<?xml version="1.0" encoding="utf-8"?>
<!-- Generator: Adobe Illustrator 22.0.1, SVG Export Plug-In . SVG Version: 6.00 Build 0)  -->
<svg version="1.1" id="Layer_5" xmlns="http://www.w3.org/2000/svg" xmlns:xlink="http://www.w3.org/1999/xlink" x="0px" y="0px"
	 viewBox="0 0 512 512" style="enable-background:new 0 0 512 512;" xml:space="preserve">
<style type="text/css">
	.st0{fill:#E3B64E;}
</style>
<g>
	<g>
		<path class="st0" d="M481,96c-10.4,0-19.2,6.7-22.5,16H305v16h153.5c3.3,9.3,12.1,16,22.5,16c13.2,0,24-10.8,24-24
			S494.2,96,481,96z M481,128c-4.4,0-8-3.6-8-8s3.6-8,8-8s8,3.6,8,8S485.4,128,481,128z"/>
		<path class="st0" d="M433,144c-10.4,0-19.2,6.7-22.5,16h-22.2l-16-16h-61l0.9,8.8c0.5,5,0.8,10.1,0.8,15.2v6.9
			c0,44-19.7,85-54,112.4l-26,20.8V376h-96v-32.5c35.9-4,64-34.5,64-71.5v-8h-16v8c0,30.9-25.1,56-56,56H78.2
			c-12.5,0-22.8-9.4-23.9-21.8l-5.8-64.1L25,234.2V168C25,88.6,89.6,24,169,24c50.2,0,96,25.5,122.5,68.2l2.3,3.8h78.5l16-16h22.2
			c3.3,9.3,12.1,16,22.5,16c13.2,0,24-10.8,24-24s-10.8-24-24-24c-10.4,0-19.2,6.7-22.5,16h-28.8l-16,16h-63
			C272.9,34.8,223.3,8,169,8C80.8,8,9,79.8,9,168v77.8l24.5,8.2l4.9,53.7c1.9,20.7,19,36.4,39.8,36.4H121v32h-16
			c-13.2,0-24,10.8-24,24c0,6,2.3,11.3,5.9,15.5C58.8,430.9,41,460.3,41,492.8V504h288v-8c0-34.1-19.5-63.7-48-78.3
			c4.9-4.4,8-10.7,8-17.7c0-13.2-10.8-24-24-24h-16v-60.2l20-16c38.2-30.5,60-76.1,60-124.9V168c0-2.7-0.1-5.3-0.2-8h36.9l16,16
			h28.8c3.3,9.3,12.1,16,22.5,16c13.2,0,24-10.8,24-24S446.2,144,433,144z M433,64c4.4,0,8,3.6,8,8s-3.6,8-8,8s-8-3.6-8-8
			S428.6,64,433,64z M57.2,488c1.8-26.9,18.4-50.7,43.5-61.4l6-2.6h84c-20.6,14.5-34.9,37.5-37.2,64H57.2z M201.8,488
			c3.7-18.2,19.9-32,39.2-32s35.5,13.8,39.2,32H201.8z M312.6,488h-16.2c-3.9-27.1-27.2-48-55.4-48s-51.5,20.9-55.4,48h-16.2
			c4-36,34.6-64,71.6-64S308.6,452,312.6,488z M273,400c0,4.4-3.6,8-8,8H105c-4.4,0-8-3.6-8-8s3.6-8,8-8h160
			C269.4,392,273,395.6,273,400z M433,176c-4.4,0-8-3.6-8-8s3.6-8,8-8s8,3.6,8,8S437.4,176,433,176z"/>
		<path class="st0" d="M337,248h112v16H337V248z"/>
		<path class="st0" d="M337,280h112v16H337V280z"/>
		<path class="st0" d="M337,312h112v16H337V312z"/>
		<path class="st0" d="M337,344h16v16h-16V344z"/>
		<path class="st0" d="M369,344h16v16h-16V344z"/>
		<path class="st0" d="M401,344h16v16h-16V344z"/>
		<path class="st0" d="M433,344h16v16h-16V344z"/>
	</g>
</g>
<g>
	<path class="st0" d="M283.7,118.2c1.8,0,3.3-1.5,3.3-3.3s-1.5-3.3-3.3-3.3H271v-9.1h12.7c1.8,0,3.3-1.5,3.3-3.3s-1.5-3.3-3.3-3.3
		H271v-5.5c0-0.9-0.4-1.7-1-2.4l-9.7-9.7c-0.6-0.6-1.5-1-2.4-1h-5.5V64.6c0-1.8-1.5-3.3-3.3-3.3c-1.8,0-3.3,1.5-3.3,3.3v12.7h-9.1
		V64.6c0-1.8-1.5-3.3-3.3-3.3s-3.3,1.5-3.3,3.3v12.7h-9.1v-12c0-11.2-9.1-20.2-20.2-20.2c-9.1,0-17.1,6.2-19.5,14.7
		c-7,0.7-13.4,3.8-18.4,8.8c-5.6,5.7-8.7,13.2-8.7,21.2c0,4,0.8,7.9,2.3,11.5c-4.7,2.5-8.7,6.1-11.8,10.5
		c-3.8,5.6-5.9,12.1-5.9,18.9c0,12.5,6.8,23.6,17.6,29.4c-1.5,3.6-2.3,7.6-2.3,11.5c0,8,3.1,15.5,8.7,21.2c5,5,11.4,8.1,18.4,8.8
		c2.4,8.6,10.4,14.7,19.5,14.7c11.2,0,20.2-9.1,20.2-20.2v-12h9.1v12.7c0,1.8,1.5,3.3,3.3,3.3s3.3-1.5,3.3-3.3v-12.7h9.1v12.7
		c0,1.8,1.5,3.3,3.3,3.3s3.3-1.5,3.3-3.3v-12.7h5.5c0.9,0,1.7-0.4,2.4-1l9.7-9.7c0.6-0.6,1-1.5,1-2.4v-5.5h12.7
		c1.8,0,3.3-1.5,3.3-3.3c0-1.8-1.5-3.3-3.3-3.3H271v-9.1h12.7c1.8,0,3.3-1.5,3.3-3.3c0-1.8-1.5-3.3-3.3-3.3H271V134h12.7
		c1.8,0,3.3-1.5,3.3-3.3s-1.5-3.3-3.3-3.3H271v-9.1L283.7,118.2z M200.6,209.7c-5.6,0-10.4-3.4-12.5-8.3c2.4-0.4,4.8-1.2,7.1-2.2
		c3.3-1.5,6.3-3.6,8.8-6.2c1.3-1.3,1.3-3.4-0.1-4.7c-1.3-1.3-3.4-1.3-4.7,0.1c-2,2-4.3,3.6-6.9,4.8c-2.7,1.3-5.6,1.9-8.6,2.1
		c-12.7-0.2-23.1-10.7-23.1-23.5c0-4,1-8,3-11.5c0.5-0.8,0.6-1.8,0.2-2.8c-0.3-0.9-1-1.6-1.9-2c-10.1-4.1-16.7-13.8-16.7-24.7
		c0-10.9,6.5-20.6,16.7-24.7c2-1.1,2.5-2.7,1.7-4.7c-2-3.5-3-7.5-3-11.5c0-12.8,10.4-23.3,23.1-23.5c3,0.1,5.8,0.8,8.6,2.1
		c2.6,1.2,4.9,2.8,6.8,4.8c0.7,0.7,1.5,1,2.4,1c0.8,0,1.7-0.3,2.3-1c1.3-1.3,1.4-3.4,0.1-4.7c-2.5-2.6-5.5-4.7-8.9-6.2
		c-2.3-1-4.7-1.8-7.1-2.2c2.1-4.9,6.9-8.3,12.5-8.3c7.5,0,13.5,6.1,13.5,13.5v41h-10.4l-8.9-8.9c0.9-1.7,1.4-3.7,1.4-5.7
		c0-3.2-1.2-6.2-3.5-8.4c-4.6-4.6-12.2-4.6-16.8,0c-2.2,2.2-3.5,5.2-3.5,8.4s1.2,6.2,3.5,8.4c2.3,2.3,5.4,3.5,8.4,3.5
		c2,0,3.9-0.5,5.7-1.4l9.9,9.9c0.7,0.6,1.5,1,2.4,1h11.8v14.4h-21c-1.5-4.9-6-8.5-11.4-8.5c-6.5,0-11.9,5.3-11.9,11.9
		c0,6.5,5.3,11.9,11.9,11.9c5.4,0,9.9-3.6,11.4-8.5h21v14.4h-11.8c-0.1,0-0.2,0-0.2,0c-0.8,0.1-1.5,0.4-2.1,1l-9.9,9.9
		c-4.5-2.5-10.3-1.8-14.1,2c-2.2,2.2-3.5,5.2-3.5,8.4c0,3.2,1.2,6.1,3.5,8.4c2.3,2.3,5.4,3.5,8.4,3.5c3,0,6.1-1.2,8.4-3.5
		c2.2-2.2,3.5-5.2,3.5-8.4c0-2-0.5-4-1.5-5.7l8.9-8.9h10.4v41.1C214.2,203.6,208.1,209.7,200.6,209.7L200.6,209.7z M189.6,91.7
		c0,1.4-0.5,2.7-1.5,3.7c-2,2-5.3,2-7.3,0c-1-1-1.5-2.3-1.5-3.7c0-1.4,0.5-2.7,1.5-3.7c2-2,5.3-2,7.3,0
		C189.1,89,189.6,90.3,189.6,91.7z M187,130.7c0,2.9-2.3,5.2-5.2,5.2c-2.9,0-5.2-2.3-5.2-5.2c0-2.9,2.3-5.2,5.2-5.2
		C184.7,125.5,187,127.8,187,130.7z M189.6,169.7c0,1.4-0.5,2.7-1.5,3.7c-2,2-5.3,2-7.3,0c-1-1-1.5-2.3-1.5-3.6
		c0-1.4,0.5-2.7,1.5-3.7c2-2,5.3-2,7.3,0c0,0,0,0,0,0l0,0C189.1,167,189.6,168.3,189.6,169.7L189.6,169.7z M264.3,169.8l-7.7,7.7
		h-35.7v-9.9H251c1.8,0,3.3-1.5,3.3-3.3v-18.5c0-1.8-1.5-3.3-3.3-3.3c-1.8,0-3.3,1.5-3.3,3.3v15.1h-26.8v-60.3h26.8v15.1
		c0,1.8,1.5,3.3,3.3,3.3c1.8,0,3.3-1.5,3.3-3.3V97.2c0-1.8-1.5-3.3-3.3-3.3h-30.2v-9.9h35.7l7.7,7.7V169.8z"/>
	<path class="st0" d="M251,127.3c-1.8,0-3.3,1.5-3.3,3.3v0c0,1.8,1.5,3.3,3.3,3.3c1.8,0,3.3-1.5,3.3-3.4S252.9,127.3,251,127.3
		L251,127.3z"/>
</g>
</svg>
