<?xml version="1.0" encoding="utf-8"?>
<!-- Generator: Adobe Illustrator 22.0.1, SVG Export Plug-In . SVG Version: 6.00 Build 0)  -->
<svg version="1.1" id="圖層_1" xmlns="http://www.w3.org/2000/svg" xmlns:xlink="http://www.w3.org/1999/xlink" x="0px" y="0px"
	 viewBox="0 0 100 100" style="enable-background:new 0 0 100 100;" xml:space="preserve">
<style type="text/css">
	.st0{fill:none;stroke:#E5B74F;stroke-width:5;stroke-linecap:round;stroke-linejoin:round;stroke-miterlimit:10;}
	.st1{fill:#E5B74F;}
	.st2{fill:none;stroke:#E5B74F;stroke-width:3;stroke-linecap:round;stroke-linejoin:round;stroke-miterlimit:10;}
	.st3{fill:none;stroke:#E5B74F;stroke-width:1.2;stroke-miterlimit:10;}
</style>
<path class="st0" d="M22.8,49.8C6.6,47.4,4.3,18,27.8,19.5C26.7,8,54.3-6.2,67.1,15c7.2-6,19.9,2.7,16.6,10.8
	c11.7-0.6,15.9,22.2-2.1,25.8"/>
<ellipse class="st1" cx="51.8" cy="36.5" rx="2.2" ry="2.2"/>
<path class="st2" d="M45.8,31.6c0,0,6.1-5.5,11.5,0"/>
<path class="st2" d="M41.4,26.7c0,0,9.4-11.3,20.1,0.2"/>
<path class="st3" d="M75.7,56.6h-47c-1.1,0-1.8-0.7-1.8-1.8V43.1c0-1.1,0.7-1.8,1.8-1.8h47c1.1,0,1.8,0.7,1.8,1.8v11.7
	C77.5,55.7,76.8,56.6,75.7,56.6z"/>
<path class="st3" d="M71.7,53H45.1c-1.1,0-1.8-0.7-1.8-1.8v-1.6c0-1.1,0.7-1.8,1.8-1.8h26.9c1.1,0,1.8,0.7,1.8,1.8v1.6
	C73.5,52.3,72.8,53,71.7,53z"/>
<path class="st3" d="M75.7,76.8h-47c-1.1,0-1.8-0.7-1.8-1.8V63.3c0-1.1,0.7-1.8,1.8-1.8h47c1.1,0,1.8,0.7,1.8,1.8v11.7
	C77.5,76,76.8,76.8,75.7,76.8z"/>
<path class="st3" d="M71.7,73.3H45.1c-1.1,0-1.8-0.7-1.8-1.8v-1.6c0-1.1,0.7-1.8,1.8-1.8h26.9c1.1,0,1.8,0.7,1.8,1.8v1.6
	C73.5,72.4,72.8,73.3,71.7,73.3z"/>
<path class="st3" d="M75.7,97.2H28.5c-1.1,0-1.8-0.7-1.8-1.8V83.7c0-1.1,0.7-1.8,1.8-1.8h47c1.1,0,1.8,0.7,1.8,1.8v11.7
	C77.5,96.4,76.6,97.2,75.7,97.2z"/>
<path class="st3" d="M71.9,93.1H45.1c-1.1,0-1.8-0.7-1.8-1.8v-1.6c0-1.1,0.7-1.8,1.8-1.8h26.9c1.1,0,1.8,0.7,1.8,1.8v1.6
	C73.7,92.4,72.8,93.1,71.9,93.1z"/>
<ellipse class="st3" cx="32.1" cy="46.6" rx="2.2" ry="2.2"/>
<ellipse class="st3" cx="32.1" cy="66.4" rx="2.2" ry="2.2"/>
<ellipse class="st3" cx="32.1" cy="87.3" rx="2.2" ry="2.2"/>
</svg>
