<?xml version="1.0" encoding="utf-8"?>
<!-- Generator: Adobe Illustrator 22.0.1, SVG Export Plug-In . SVG Version: 6.00 Build 0)  -->
<svg version="1.1" xmlns="http://www.w3.org/2000/svg" xmlns:xlink="http://www.w3.org/1999/xlink" x="0px" y="0px"
	 viewBox="0 0 100 100" style="enable-background:new 0 0 100 100;" xml:space="preserve">
<style type="text/css">
	.st0{fill:none;stroke:#C9CACA;stroke-miterlimit:10;}
	.st1{fill:none;stroke:#E5B74F;stroke-miterlimit:10;}
	.st2{opacity:0.28;fill:none;stroke:#E5B74F;stroke-miterlimit:10;}
	.st3{fill:#E5B74F;}
	.st4{fill:#454253;}
	.st5{font-family:'Broadway';}
	.st6{font-size:32.9435px;}
	.st7{fill:none;stroke:#454253;stroke-linecap:round;stroke-linejoin:round;stroke-miterlimit:10;}
	.st8{font-family:'BerlinSansFBDemi-Bold';}
	.st9{font-size:4.4351px;}
	.st10{font-size:3.8807px;}
	.st11{font-size:6.6527px;}
</style>
<g id="圖層_1">
	<line class="st0" x1="-9.2" y1="17.3" x2="5.3" y2="69"/>
	<line class="st0" x1="-5.9" y1="16.4" x2="8.6" y2="68.1"/>
	<line class="st0" x1="-2.5" y1="15.4" x2="12" y2="67.1"/>
	<line class="st0" x1="0.8" y1="14.5" x2="15.3" y2="66.2"/>
	<line class="st0" x1="4.2" y1="13.5" x2="18.7" y2="65.2"/>
	<line class="st0" x1="7.5" y1="12.6" x2="22" y2="64.3"/>
	<line class="st0" x1="10.9" y1="11.7" x2="25.4" y2="63.3"/>
	<line class="st0" x1="14.2" y1="10.7" x2="28.7" y2="62.4"/>
	<line class="st0" x1="17.6" y1="9.8" x2="32.1" y2="61.5"/>
	<line class="st0" x1="20.9" y1="8.8" x2="35.4" y2="60.5"/>
	<line class="st0" x1="24.3" y1="7.9" x2="38.8" y2="59.6"/>
	<line class="st0" x1="27.6" y1="7" x2="42.1" y2="58.6"/>
	<line class="st0" x1="31" y1="6" x2="45.5" y2="57.7"/>
	<line class="st0" x1="34.3" y1="5.1" x2="48.8" y2="56.8"/>
	<line class="st0" x1="37.7" y1="4.1" x2="52.2" y2="55.8"/>
	<line class="st0" x1="41" y1="3.2" x2="55.5" y2="54.9"/>
	<line class="st0" x1="44.4" y1="2.2" x2="58.9" y2="53.9"/>
	<line class="st0" x1="47.7" y1="1.3" x2="62.2" y2="53"/>
	<line class="st0" x1="51.1" y1="0.4" x2="65.6" y2="52.1"/>
	<line class="st0" x1="54.4" y1="-0.6" x2="68.9" y2="51.1"/>
	<line class="st0" x1="57.7" y1="-1.5" x2="72.3" y2="50.2"/>
	<line class="st0" x1="61.1" y1="-2.5" x2="75.6" y2="49.2"/>
	<line class="st0" x1="64.4" y1="-3.4" x2="79" y2="48.3"/>
	<line class="st0" x1="67.8" y1="-4.3" x2="82.3" y2="47.3"/>
	<g>
		<line class="st1" x1="-12.4" y1="18" x2="-12.4" y2="18"/>
		<path class="st2" d="M68.5-5.1"/>
		<path class="st1" d="M6.7,42.6"/>
		<path class="st3" d="M13.4,70.7c0,0,2.9-2,7.1-2.4l1.3,5.3c0,0-4.3,2.3-7.2,1.7C14.6,75.4,12.7,71.1,13.4,70.7z"/>
		<path class="st3" d="M24.4,68c0,0,2.9-2,7.1-2.4l1.3,5.3c0,0-4.3,2.3-7.2,1.7C25.6,72.7,23.7,68.4,24.4,68z"/>
		<path class="st3" d="M2.2,73.4c0,0,2.9-2,7.1-2.4l1.3,5.3c0,0-4.3,2.3-7.2,1.7C3.4,78.2,1.5,73.9,2.2,73.4z"/>
		<path class="st3" d="M5,4.2c0,0,2.9-2,7.1-2.4l1.3,5.3c0,0-4.3,2.3-7.2,1.7C6.1,9,4.2,4.7,5,4.2z"/>
		<path class="st3" d="M-5.7,7c0,0,2.9-2,7.1-2.4L2.7,10c0,0-4.3,2.3-7.2,1.7C-4.6,11.7-6.4,7.4-5.7,7z"/>
		<path class="st3" d="M-16.3,9.7c0,0,2.9-2,7.1-2.4l1.3,5.3c0,0-4.3,2.3-7.2,1.7C-15.2,14.4-17.1,10.1-16.3,9.7z"/>
		<path class="st3" d="M77.8,53c0,0,2.9-2,7.1-2.4l1.3,5.3c0,0-4.3,2.3-7.2,1.7C78.9,57.7,77,53.4,77.8,53z"/>
		<path class="st3" d="M67.4,55.7c0,0,2.9-2,7.1-2.4l1.3,5.3c0,0-4.3,2.3-7.2,1.7C68.5,60.4,66.6,56.1,67.4,55.7z"/>
		<path class="st3" d="M56.5,59c0,0,2.9-2,7.1-2.4l1.3,5.3c0,0-4.3,2.3-7.2,1.7C57.6,63.7,55.7,59.4,56.5,59z"/>
		<path class="st3" d="M46.2,62.3c0,0,2.9-2,7.1-2.4l1.3,5.3c0,0-4.3,2.3-7.2,1.7C47.3,67,45.4,62.7,46.2,62.3z"/>
		<path class="st3" d="M35.6,64.9c0,0,2.9-2,7.1-2.4l1.3,5.3c0,0-4.3,2.3-7.2,1.7C36.7,69.6,34.9,65.3,35.6,64.9z"/>
		<path class="st3" d="M59.5-11c0,0,2.9-2,7.1-2.4l1.3,5.3c0,0-4.3,2.3-7.2,1.7C60.6-6.3,58.7-10.6,59.5-11z"/>
		<path class="st3" d="M47.9-8.1c0,0,2.9-2,7.1-2.4l1.3,5.3c0,0-4.3,2.3-7.2,1.7C49.1-3.4,47.2-7.7,47.9-8.1z"/>
		<path class="st3" d="M37.6-4.9c0,0,2.9-2,7.1-2.4L46-1.9c0,0-4.3,2.3-7.2,1.7C38.8-0.1,36.9-4.4,37.6-4.9z"/>
		<path class="st3" d="M27.2-2.2c0,0,2.9-2,7.1-2.4l1.3,5.3c0,0-4.3,2.3-7.2,1.7C28.4,2.6,26.5-1.7,27.2-2.2z"/>
		<path class="st3" d="M16.2,1.1c0,0,2.9-2,7.1-2.4l1.3,5.3c0,0-4.3,2.3-7.2,1.7C17.3,5.9,15.5,1.6,16.2,1.1z"/>
		<line class="st1" x1="85.5" y1="46.5" x2="70.9" y2="-5.4"/>
		<path class="st1" d="M-13,17.8"/>
		<path class="st1" d="M70.9-5.4L-15.9,19c-1.9,0.5-3.9-0.6-4.5-2.5l-1.4-5.1c-0.5-1.9,0.6-3.9,2.5-4.5l86.8-24.4
			c1.9-0.5,3.9,0.6,4.5,2.5l1.4,5.1C73.9-7.9,72.8-5.9,70.9-5.4z"/>
		<path class="st1" d="M89,58.5L2.2,82.9c-1.9,0.5-3.9-0.6-4.5-2.5l-1.4-5.1c-0.5-1.9,0.6-3.9,2.5-4.5L1.7,70l83.9-23.6
			c1.9-0.5,3.9,0.6,4.5,2.5l1.4,5.1C92,56,90.9,58,89,58.5z"/>
		<line class="st1" x1="1.7" y1="70" x2="-12.9" y2="18.2"/>
		<path class="st1" d="M4.4,69.3"/>
		<path class="st1" d="M-10.2,17.4"/>
		<path class="st1" d="M6.7,68.6"/>
		<path class="st1" d="M-7.9,16.7"/>
		<g>
			<circle class="st4" cx="35.8" cy="33.5" r="20.2"/>
			<line class="st1" x1="55.1" y1="27.8" x2="68.9" y2="23.6"/>
			<line class="st1" x1="2.7" y1="43.4" x2="16.6" y2="39.3"/>
			<line class="st1" x1="28.2" y1="7.7" x2="30" y2="14"/>
			<line class="st1" x1="42.7" y1="52.7" x2="43.8" y2="57.1"/>
			<text transform="matrix(0.9304 -0.3666 0.3666 0.9304 30.1068 47.9949)" class="st3 st5 st6">5</text>
		</g>
	</g>
</g>
<g id="圖層_2">
	<g>
		<ellipse class="st3" cx="67.7" cy="78.3" rx="18.6" ry="19.5"/>
		<path class="st7" d="M65.3,87l-0.1-4.3c0-1,1.3-0.2,1.3-0.2c3.6,2.6,5.4,2.1,5.4,2.1c2.3-0.8,1-3.3,1-3.3
			c-2.7-0.5-2.5-2.2-2.5-2.2c0.9,0.6,2.7-0.2,2.7-0.2l0-1.3l1.8-0.8c0.6-0.2,0.3-0.9,0.3-0.9l-2.5-2.5c-0.3-0.2-0.3-1-0.3-1
			c0.2-3.7-5.4-8.7-12.4-6.5c0,0-7.3,2.6-5,11.5c0,0,0.2,2.6,4,5.9c1.2,1,0.6,3.9,0,5.1"/>
		<g>
			<text transform="matrix(1.0565 0 0 1 74.6912 81.5268)" class="st4 st8 st9">A</text>
		</g>
		<g>
			<text transform="matrix(1.0936 0 0 1 78.3767 84.2299)" class="st4 st8 st10">B</text>
		</g>
		<g>
			<text transform="matrix(1.0936 0 0 1 78.8318 79.559)" class="st4 st8 st11">C</text>
		</g>
	</g>
	<path class="st3" d="M98.2,66.7c0,0-1.5,1.8-5.3-0.6c0,0-1.1-0.6-0.8,0.9l1.5,5.3l0.1,0.5l-0.3-0.1c0,0-2.1-0.7-3.3,1.2
		c0,0-1,1.4,0.6,1.9c0,0,3.1,0.5,3.8-2.7L93.2,69c0,0,0.6,0.6,3.3,0.1c0,0,1-0.1,2-1.4c0,0,0.4-0.6,0.4-1
		C99,66.5,98.5,66.4,98.2,66.7z M93.5,68.5L93.1,67c1.5,1.5,4.8,0.7,5.1,0.3C97.1,69.1,93.6,68.7,93.5,68.5z"/>
	<path class="st3" d="M39.5,94.4c0,0-2.4-0.8-3.7,1.1c0,0-0.8,2.4,2.6,1.4c0,0,1.9-0.6,1.9-1.9v-8.5c0,0,5.9-1.6,6.6-2.4L46.5,91
		c0,0-2.5-0.2-3.4,2.3c0,0-0.3,1.4,1.3,1.1c0,0,1.7-0.3,2.8-2.6c0,0,0.6-8.4,0.5-8.8c0,0-4.8,2.4-8.1,2.6L39.5,94.4z"/>
</g>
</svg>
