<?xml version="1.0" encoding="utf-8"?>
<!-- Generator: Adobe Illustrator 22.0.1, SVG Export Plug-In . SVG Version: 6.00 Build 0)  -->
<svg version="1.1" xmlns="http://www.w3.org/2000/svg" xmlns:xlink="http://www.w3.org/1999/xlink" x="0px" y="0px"
	 viewBox="0 0 512 512" style="enable-background:new 0 0 512 512;" xml:space="preserve">
<style type="text/css">
	.st0{fill:none;stroke:#3771A1;stroke-width:15;stroke-miterlimit:10;}
	.st1{fill:none;stroke:#FFD140;stroke-width:15;stroke-miterlimit:10;}
	.st2{fill:#FFD140;}
</style>
<g id="圖層_1">
	<path class="st0" d="M364.2,209.8V79.8c0-40.2-32.7-72.8-72.8-72.8h-68c-40.2,0-72.8,32.7-72.8,72.8v39.8h106.8
		c8,0,14.6,6.5,14.6,14.6s-6.5,14.6-14.6,14.6H81.6c-40.2,0-72.8,32.7-72.8,72.8v68c0,40.2,32.7,72.8,72.8,72.8h39.8v-68
		 M223.4,80.8c-8,0-14.6-6.5-14.6-14.6s6.5-14.6,14.6-14.6S238,58.2,238,66.2S231.4,80.8,223.4,80.8z"/>
	<path class="st1" d="M150.5,334.5v96.9c0,40.2,32.7,72.8,72.8,72.8h68c40.2,0,72.8-32.7,72.8-72.8v-39.8H257.4
		c-8,0-14.6-6.5-14.6-14.6s6.5-14.6,14.6-14.6h175.8c40.2,0,72.8-32.7,72.8-72.8v-68c0-40.2-32.7-72.8-72.8-72.8h-39.8v68
		 M291.4,430.4c8,0,14.6,6.5,14.6,14.6s-6.5,14.6-14.6,14.6s-14.6-6.5-14.6-14.6S283.3,430.4,291.4,430.4z"/>
</g>
<g id="圖層_3">
</g>
<g id="圖層_2">
	<g>
		<g>
			<path class="st2" d="M70.4,195.1h27.9c9.8,0,17.7,2.8,23.6,8.4c5.9,5.6,8.9,13,8.9,22.2c0,9.7-3,17.3-9,22.8
				c-6,5.5-14.4,8.2-25,8.2h-3.9v37.8H70.4V195.1z M92.9,214.2v23.5c5.1-0.1,8.8-1.1,11.2-2.9c2.4-1.8,3.6-4.7,3.6-8.7
				c0-4.3-1.2-7.3-3.5-9.1C101.9,215.2,98.1,214.3,92.9,214.2z"/>
			<path class="st2" d="M138.7,226H160l5.4,17.8c1.9,6.3,3.5,12.4,4.9,18.4h0.4c1.1-5.7,2.1-9.8,2.8-12.3l7.2-23.9h21.6l-29.1,96.8
				h-21.5l8.8-29.1L138.7,226z"/>
			<path class="st2" d="M214.6,207.7h21.6V226h8.4v18h-8.5v50.5h-21.5v-50.7h-8.2V226h8.2V207.7z"/>
			<path class="st2" d="M255.6,189.6h21.5v45.3h0.4c5.3-7.4,11.4-11.1,18.4-11.1c5,0,8.8,1.6,11.6,4.9c2.7,3.3,4.1,7.8,4.1,13.7
				v52.2H290v-41.8c0-2.7-0.5-4.8-1.6-6.3c-1.1-1.5-2.5-2.3-4.4-2.3c-4.5,0-6.8,3.1-6.8,9.2v41.2h-21.5V189.6z"/>
			<path class="st2" d="M353.2,223.6c9.9,0,17.4,3.3,22.5,9.9c5.2,6.6,7.7,15.7,7.7,27.5c0,11.5-2.7,20.4-8,26.6
				c-5.3,6.3-12.8,9.4-22.2,9.4c-9.1,0-16.3-3.2-21.6-9.6c-5.3-6.4-8-15.2-8-26.5c0-11.7,2.5-20.9,7.6-27.5
				C336.3,226.9,343.6,223.6,353.2,223.6z M353.3,277.6c2.8,0,4.9-1.3,6.4-3.9c1.4-2.6,2.1-7.1,2.1-13.5c0-6.3-0.7-10.7-2.1-13.3
				s-3.5-3.8-6.2-3.8c-2.7,0-4.8,1.2-6.2,3.7c-1.4,2.5-2.2,7-2.2,13.5C345.1,271.9,347.8,277.6,353.3,277.6z"/>
			<path class="st2" d="M417.7,226v9.3h0.4c5.1-7.7,11.2-11.5,18.5-11.5c4.8,0,8.5,1.6,11.3,4.8c2.8,3.2,4.2,7.5,4.2,12.9v53.1
				h-21.6v-42.2c0-2.3-0.5-4.2-1.6-5.7c-1.1-1.5-2.5-2.2-4.2-2.2c-4.6,0-6.9,2.9-6.9,8.7v41.5h-21.5V226H417.7z"/>
		</g>
	</g>
</g>
</svg>
