<?xml version="1.0" encoding="utf-8"?>
<!-- Generator: Adobe Illustrator 22.0.1, SVG Export Plug-In . SVG Version: 6.00 Build 0)  -->
<svg version="1.1" id="圖層_1" xmlns="http://www.w3.org/2000/svg" xmlns:xlink="http://www.w3.org/1999/xlink" x="0px" y="0px"
	 viewBox="0 0 100 100" style="enable-background:new 0 0 100 100;" xml:space="preserve">
<style type="text/css">
	.st0{fill:none;stroke:#DCB250;stroke-linecap:round;stroke-linejoin:round;stroke-miterlimit:10;}
	.st1{fill:#DCB250;}
	.st2{fill:none;stroke:#F6D491;stroke-miterlimit:10;}
	.st3{fill:#F6D491;}
</style>
<path class="st0" d="M92.6,86.5H10c-1.6,0-2.8-1.3-2.8-2.8v-2.5c0-1.6,1.3-2.8,2.8-2.8h82.6c1.6,0,2.8,1.3,2.8,2.8v2.5
	C95.4,85.3,94.1,86.5,92.6,86.5z"/>
<line class="st0" x1="10.2" y1="82.5" x2="22.6" y2="82.5"/>
<line class="st0" x1="27.8" y1="82.5" x2="40.2" y2="82.5"/>
<line class="st0" x1="44.7" y1="82.5" x2="57.1" y2="82.5"/>
<line class="st0" x1="62.8" y1="82.5" x2="75.2" y2="82.5"/>
<line class="st0" x1="79.2" y1="82.5" x2="91.6" y2="82.5"/>
<rect x="28.8" y="72.1" class="st1" width="47.4" height="6.5"/>
<path class="st1" d="M67,75.3c0,0,14.5-7.4,16.9-8.9c5.1-3.3,1.9-9.7-3.4-6.3L62.9,73.7L67,75.3z"/>
<circle class="st2" cx="83.4" cy="62" r="1.7"/>
<polygon class="st3" points="84.2,60.6 85.7,45.7 82.1,46 83.3,60.5 "/>
<polygon class="st1" points="83.4,43.5 83.4,45.9 84.6,45.9 84.8,43.4 92.5,40.9 93.8,35.1 91.1,34.7 91.2,39.7 84.1,42.6 
	77.6,40.1 77.8,34.8 75.3,35.1 75.9,40.7 "/>
<path class="st1" d="M37.6,75.3c0,0-14.5-7.4-16.9-8.9c-5.1-3.3-1.9-9.7,3.4-6.3l17.7,13.6L37.6,75.3z"/>
<circle class="st2" cx="21.3" cy="62" r="1.7"/>
<polygon class="st3" points="20.4,60.6 19,45.7 22.6,46 21.3,60.5 "/>
<polygon class="st1" points="21.2,43.5 21.2,45.9 20,45.9 19.8,43.4 12.1,40.9 10.9,35.1 13.6,34.7 13.5,39.7 20.5,42.6 27.1,40.1 
	26.9,34.8 29.3,35.1 28.8,40.7 "/>
<path class="st1" d="M60.4,21.7c-0.1-0.1-0.1-0.1-0.2-0.2l-0.2-0.2c0,0-0.1-0.1-0.1-0.1C54.8,17,47,17.3,42.3,22l-0.6,0.6l-0.8,0.8
	C40,24.2,40,25.7,41,26.6c1,0.9,2.5,0.9,3.5-0.1l1.3-1.3c3-3,8.1-3.1,11.2-0.2l1,0.9c1,0.9,2.5,0.9,3.5-0.1c0.5-0.4,0.7-1,0.7-1.7
	c0-0.6-0.3-1.2-0.7-1.6L60.4,21.7z"/>
<path class="st1" d="M57.7,30.1c0,0-0.1-0.1-0.1-0.1l-0.1-0.1c0,0,0,0-0.1-0.1c-3.2-3.3-8.1-3.1-11.1,0.5L46,30.7l-0.5,0.6
	c-0.6,0.7-0.6,1.9,0,2.6c0.6,0.7,1.6,0.7,2.2,0l0.8-1c1.9-2.3,5-2.4,7-0.1l0.6,0.7c0.6,0.7,1.6,0.7,2.2,0c0.3-0.3,0.4-0.8,0.4-1.3
	c0-0.5-0.2-0.9-0.5-1.3L57.7,30.1z"/>
<path class="st1" d="M67.1,16.9l-0.8-0.8c0,0,0,0,0,0l-0.7-0.6c-0.1-0.1-0.2-0.2-0.4-0.3c-8.4-6.8-21-6.4-28.9,1.1
	c0,0-0.1,0.1-0.1,0.1l-1.5,1.4c-0.9,0.8-0.8,2.2,0.1,3c0.9,0.8,2.3,0.8,3.2,0l1.5-1.4c0,0,0,0,0,0c6.4-6.1,16.7-6.3,23.3-0.5
	l1.2,1.1c0.9,0.8,2.3,0.8,3.2-0.1C68,19.1,68,17.7,67.1,16.9z"/>
<path class="st1" d="M-28.3,53.7c0,11.1-9,20.1-20.1,20.1s-20.1-9-20.1-20.1s9-20.1,20.1-20.1S-28.3,42.6-28.3,53.7z"/>
</svg>
