<?xml version="1.0" encoding="utf-8"?>
<!-- Generator: Adobe Illustrator 22.0.1, SVG Export Plug-In . SVG Version: 6.00 Build 0)  -->
<svg version="1.1" xmlns="http://www.w3.org/2000/svg" xmlns:xlink="http://www.w3.org/1999/xlink" x="0px" y="0px"
	 viewBox="0 0 1367 462" style="enable-background:new 0 0 1367 462;" xml:space="preserve">
<style type="text/css">
	.st0{fill:#FFC44D;stroke:#FCFCFC;stroke-width:3;stroke-miterlimit:10;}
	.st1{fill:#437156;}
</style>
<g id="Group_202">
</g>
<g id="圖層_2">
	<path class="st0" d="M71.4-102l1372-24v312c0,0-26,22-712,44S71.4-102,71.4-102z"/>
	<g>
		<g>
			<g>
				<g>
					<g>
						<g>
							<path class="st1" d="M1395.9,237.2c3.9-0.7,7.4-0.7,6-0.2c7.8-2.1,8.1-1.3,8.9-2.9c4.9-1.6,10.4-1.8,4.8,0
								c2.4-0.6,4.8-1.2,7.1-2l3.5-1l3.5-1.1c-2.8,0.7-5.7,1.2-8.6,1.8c1-0.9,4.5-1.5,7.9-2.3c3.5-0.8,6.7-1.8,7.8-2.9
								c-2.5,0.7-4.8,1.6-7.4,2.2c-1.3,0.3-2.5,0.7-3.8,1l-3.8,0.9l0.7-0.6c-0.9,0.3-1.9,0.6-3.1,0.9c-1.2,0.3-2.4,0.5-3.7,0.8
								c-1.2,0.2-2.4,0.5-3.5,0.6c-1.1,0.2-2,0.3-2.6,0.3c0.3-0.3,0-0.5,2.8-1.1c-9.5,1.7-10.7,2.4-11.5,3.1
								c-0.8,0.7-1.1,1.5-9.1,2.9C1392.9,237.5,1394.2,237.4,1395.9,237.2z"/>
							<path class="st1" d="M1379.1,236.6c-2.2,0.8-4.4,1.6-6.5,2.4c-3.8,0.3-7.6,0.7-11.4,1c-0.1,0.5-8.3,1.9-2.6,1.7
								c1.1-0.2,3.2-0.6,5-0.8c-0.6,0.6-4.3,1.2-7.5,1.7c-3.2,0.5-5.8,0.9-4.1,1.3c9-1.3,10.4-1.2,15.8-2.8
								c8.2-0.9,14.3-1.4,18.1-1.5c2.4-0.5,2.7-1.3,5.7-1.8c-0.7,0.1-1.3,0.2-2.1,0.3l-0.6-1.6c-2.5,0.7-5,0.9-7.8,1.3
								c4.3-1.2,8.6-2.5,12.9-3.8c-4.5-0.9-17.2,1.8-22.5,1.7C1378.1,236.3,1366.4,237,1379.1,236.6z"/>
							<path class="st1" d="M1391.6,237.7c0.1,0,0.2,0,0.3-0.1C1391.8,237.7,1391.7,237.7,1391.6,237.7z"/>
							<path class="st1" d="M388.7,263.8c-2.9-0.3-3.7,0-4.2,0.2c10.7,1.3,21.4,2.2,32.1,3.3c-1-0.5-10.2-2-4-1.7
								c-2.7-0.8-11.1-1.2-12.4-0.7l2.4-0.4c-7.5,0.2-12.4-2.1-7.5-2.1l-0.6-0.1l-20.8,1C381.2,264.4,379.7,262.8,388.7,263.8z"/>
							<path class="st1" d="M-142.1-64c1,4.1,1.3,4.6,1.4,4.1C-141.2-61.4-141.7-62.8-142.1-64z"/>
							<path class="st1" d="M368.9,263.5l-6.5,0.2C364.9,263.7,367.2,263.7,368.9,263.5z"/>
							<path class="st1" d="M414.9,252.4c0-0.1,0.1-0.1-0.1-0.2l-2.9,0.3c0,0,0.1,0,0.1,0C413,252.4,414,252.4,414.9,252.4z"/>
							<path class="st1" d="M223.5,240.9c-0.7-0.2-1.3-0.3-2.1-0.5C222.2,240.7,222.9,240.8,223.5,240.9z"/>
							<path class="st1" d="M501.7,252.4l-7.1,0.2l-7.1,0.1c1.9-0.4-4.9-0.6-1.9-1c-1.1,0-6.2-0.1-4.8,0.2l2.9,0.1
								c-7.6,1-3.1,1.8-15.5,2.1c7.7,1.3,11.1,0.7,15.2,0.3c1.4,0,2.6,0,3.7,0c4-0.4,7.9-0.8,11.9-1.3L501.7,252.4z"/>
							<path class="st1" d="M-34.5,99.5l0.2,0C-34.4,99.4-34.5,99.4-34.5,99.5z"/>
							<path class="st1" d="M-33.6,99.6l-0.8-0.1C-33.6,99.8-31.3,101.6-33.6,99.6z"/>
							<path class="st1" d="M371.3,262.9c-0.2,0.2-1.1,0.4-2.5,0.6c1.6,0,3.3-0.1,4.9-0.2C373.1,263.2,372.2,263,371.3,262.9z"/>
							<path class="st1" d="M382.6,261.1l12,1.2l4.5-0.3C394.5,261.9,389.1,261.4,382.6,261.1z"/>
							<path class="st1" d="M242.1,246.2c-24.6-5.6,6.4-0.2-4.8-3.2c-6.8-1.4-9.4-1.2-13.7-2.1c19.6,4.1-3.3,1.9,16.5,6.2
								c-1.6,0.4-5.2-0.1-9.3-0.9c-2-0.4-4.2-0.9-6.2-1.4c-2-0.5-4-1.1-5.6-1.6c-7.2-3.3,6.8,0.8,8.9-0.2c-7.9-1.7-6.6-1.2-10.1-1.3
								c-3.1-0.9-6.2-1.6-9.3-2.3c-3.1-0.7-6.2-1.4-9.1-2.1c-5.8-1.4-10.9-2.8-14.3-4.8c-8.9-2.4-8.5-1.6-13.9-2.4
								c-1.4,1.1,13,4.7,15.9,6.8c-0.6-0.3-1.9-1-1.5-1c2.5,0.9,5.1,1.7,7.6,2.5c-7.2-2.5,1.4-1.1,5.4-0.1c2.9,0.8,8.5,2.3,7.6,2.4
								l-4.4-0.9c1.4,0.5,2.8,0.9,4.3,1.2c1.5,0.3,3.1,0.6,4.7,0.9c3.2,0.6,6.4,1.2,9.2,2.4c0.2,0.4-2,0-2.4,0.1
								c6.8,0.8,13.2,2.3,23.1,4l-6,0.1c2.1,0.1,4.7,0.4,7.7,1c3,0.5,6.4,1.2,9.8,1.9c3.5,0.8,7.1,1.6,10.6,2.6
								c3.5,0.9,6.9,1.7,10,2.5c-1.3-0.5-3.8-1.2-2.2-1.2c7.3,1.1,12.6,3.2,9.1,3.3c7.3,0.2,26.9,6,36.9,6c3.8,0,7.6,0,11.5,0
								l11.4-0.2c7.6-0.1,15.2-0.3,22.8-0.6c-1.7,0-3.5-0.1-5.4-0.3c-3.9-1.8-6.1-1.9,1.2-2.2c-3.5-0.1-4.7,0.2-6.2,0.3
								c-1.6,0.2-3.6,0.2-8.8-0.6c4.2,0,5.4-1.3-4.6-2.9c-12.6-1.1-23.2-1.8-33.6-2.1c-10.4-0.6-20.6-1-32.5-2.5
								c-0.3-0.6-5.1-1.7-10.9-3c-5.8-1.3-12.5-2.8-16.9-3.9c3.6-0.3,10.2,0.9,17.1,2.1c-4.3-1-11.6-2.6-17.1-3.9L242.1,246.2z"/>
							<path class="st1" d="M300.5,254.7c-0.6-0.2-1.2-0.4-1.9-0.5C299,254.4,299.5,254.5,300.5,254.7z"/>
							<path class="st1" d="M263.9,249.1c0.1,0,0.1-0.1,0.1-0.1c-0.7-0.1-1.4-0.3-2.2-0.4C262.5,248.8,263.4,249,263.9,249.1z"/>
							<path class="st1" d="M365.7,259.9c1.5-0.1,2.6,0,4.2-0.1c-0.9,0-2.1-0.1-3.2-0.2C365.6,259.7,365.1,259.7,365.7,259.9z"/>
							<path class="st1" d="M370.5,262.3l-0.8,0.3c0.6,0.1,1.1,0.2,1.6,0.3C371.5,262.7,371.4,262.5,370.5,262.3z"/>
							<path class="st1" d="M152,211.5l-2.3-0.6C151.1,211.4,151.7,211.5,152,211.5z"/>
							<path class="st1" d="M215.2,237.9c8.5,2.1,1.4-1.1,13.4,1.9c-1.2-0.3-2.3-0.6-3.5-0.9c4.4,0.8,10.4,2.1,16.5,3.5
								c3.1,0.8,6.2,1.4,9.2,2.1c3,0.7,5.9,1.3,8.5,1.9c-1.3,0.3,6.1,2.1,4.7,2.7c7.1,1.2,14.2,2.4,18,2.2
								c4.3,1.2,11.2,1.5,16.7,2.9c-2.3-1,8.3-0.4-5.4-2.2c1.1,0.1,0.4-0.1,1.5,0c-4.3-1.2-7.4-1.6-10.3-1.9
								c-2.9-0.4-5.8-0.6-9.5-1.3c-4.4-1.4,7.5,0.6,3.3-0.4c-2.4-0.3-5.4-0.9-8.6-1.6c-1.6-0.3-3.2-0.7-4.8-1
								c-1.6-0.4-3.2-0.7-4.7-1c-6.1-1.3-11-2.1-10.9-1.1c-3.4-0.7-5.3-1.2-6.6-1.7c-1.3-0.5-2-0.8-3-1.3c-2.8-0.1-6.7-0.8-10.9-1.8
								c-4.3-0.9-8.8-2.3-13.1-3.5c-8.5-2.3-15.7-4.5-16-3.1c2,0.5,4.5,1.2,7.3,1.9c2.8,0.7,5.9,1.3,8.8,1.8L215.2,237.9z"/>
							<path class="st1" d="M351.2,258.2c-0.5-0.1-1.2-0.2-1.7-0.2C350,258,350.7,258.1,351.2,258.2z"/>
							<path class="st1" d="M459.9,277.2l-3.8,1.5c-5.2-0.3-9.6-0.5-13.5-0.8c-3.9-0.3-7.4-0.6-10.7-0.9c-6.7-0.6-13.2-1.3-22.2-2.1
								c-1.4-0.4,0.9-0.3,2-0.3c-3.2-0.3-6.8-0.6-10.5-1c-3.7-0.4-7.6-0.7-11.4-1.2c-7.5-0.8-14.6-1.5-19.3-1.7
								c-4-0.5-14.6-2.5-10.5-2.5c-2-0.1-4.3-0.2-6.5-0.6c-0.5-0.7,5.1,0.5,5.3,0c-1.8-0.3-2.5-0.5-2.9-0.3
								c3.1-0.2-2.8-2.6,11.2-0.7c5.3,2.2-9.8-1.1-6.8,1c4.7,0.6,4.2-0.1,4.6-0.2c5.9,0.8,5.7,1.2,5.4,1.6c2.3-0.2,9.8,1.3,13,0.9
								c11.6,1.2-0.8,1.2,6.8,2l4.5-1.2l12.6,1.6c9.1,0.6,8.6-0.2,8.3-1c-0.3-0.8-0.2-1.6,10.3-1.2c-2.8,0.7,5.4,2.8,15.1,4
								c-5.8-0.4-16.6-0.2-24.1-1.4c10.4,2.3-14.6-1.3-9.2,0.8c2.6-0.1,6.1,0,9.8,0.3c3.7,0.3,7.6,0.7,10.9,1.1l-2.2,0
								c3.6,0.4,6.8,0.3,10.4,0.2c3.5,0,7.4,0,12.4,0.7c5,0.3,4,0.7,3.1,1C456.2,276.9,460,276.8,459.9,277.2z M449.1,276.8
								l-6.6-0.6C444,276.5,446.5,276.7,449.1,276.8z"/>
							<path class="st1" d="M1287.6,245.8c0.7,0,1.4,0,2,0C1289.2,245.7,1288.4,245.7,1287.6,245.8z"/>
							<path class="st1" d="M702.2,262.3l3.8,0.1C704.5,262.3,703.3,262.3,702.2,262.3z"/>
							<path class="st1" d="M788,256.3l5.6-0.4C791.3,255.9,789.6,256.1,788,256.3z"/>
							<path class="st1" d="M1242.2,248.7l-0.2,0c-0.3,0.1-0.5,0.1-0.9,0.1L1242.2,248.7z"/>
							<path class="st1" d="M960.1,257.6c0.9,0.1,1.8,0.2,3.1,0.3C963,257.8,961.9,257.7,960.1,257.6z"/>
							<path class="st1" d="M786.9,256.4c0.1,0,0.2,0,0.3,0c0.2,0,0.5-0.1,0.7-0.1L786.9,256.4z"/>
							<path class="st1" d="M664.4,257.3c-0.8,0.1-1.6,0.1-2.4,0.2C663.1,257.5,663.8,257.4,664.4,257.3z"/>
							<path class="st1" d="M669.8,262.2c-0.9,0-1.7,0.1-2.4,0.2L669.8,262.2z"/>
							<path class="st1" d="M537.8,257.1l-5.1,0.1C535.2,257.3,536.7,257.2,537.8,257.1z"/>
							<path class="st1" d="M656.2,261c-0.3,0.1-0.6,0.2-0.8,0.2C656.1,261.2,656.4,261.1,656.2,261z"/>
							<path class="st1" d="M1320.6,248.1c-0.1,0-0.2,0-0.3,0l-0.1,0.2L1320.6,248.1z"/>
							<path class="st1" d="M1332.8,244.5c1.5-0.2,3-0.4,4.5-0.6C1335.6,244.1,1334,244.3,1332.8,244.5z"/>
							<path class="st1" d="M1034.9,258.4c1.4,0.2,4.6,0.4,3.1,0.7C1040.6,258.7,1040.4,257.8,1034.9,258.4z"/>
							<path class="st1" d="M1296.4,260.8c0.8-0.3,1.8-0.5,2.8-0.8C1297.4,260.4,1295.7,260.7,1296.4,260.8z"/>
							<path class="st1" d="M1299.3,260c0.9-0.2,1.9-0.4,2.8-0.6C1301,259.6,1300.1,259.8,1299.3,260z"/>
							<path class="st1" d="M1000.6,273.4c-0.3-0.1-0.9-0.2-1.6-0.2C999.2,273.5,999.8,273.5,1000.6,273.4z"/>
							<path class="st1" d="M1341,243.9c0.8-0.4,20.2-3.4,3.8-1.9c0.5-1.3,10.5-1.7,14.8-2.5c-3.2,0.1,1.5-1,0.5-1.3
								c-2.1,0.4-4.7,1.1-8.3,1.3c-1.7-0.4,3.7-1.3,7.9-1.6c-5.3-0.1,6.5-1.7-0.9-1.4c-15.7,2.2-26.8,3.7-37.8,6.5
								c9-1.1,19.1-2.4,26.5-2.7l-3,1.4c-8.5-0.1-13.6,1.1-21.8,1.7c6.2-0.4,12.4-0.8,18.6-1.2c8.8,0,3,0.8-3.8,1.7
								C1339,243.8,1340.5,243.7,1341,243.9z"/>
							<path class="st1" d="M1329.4,254.6l0.3,0c0.3-0.1,0.6-0.1,0.8-0.2L1329.4,254.6z"/>
							<path class="st1" d="M538.1,279.2l-1.6,0.4C537.8,279.4,538.2,279.3,538.1,279.2z"/>
							<path class="st1" d="M1317.8,250.3L1317.8,250.3C1317.7,250.4,1317.7,250.4,1317.8,250.3z"/>
							<path class="st1" d="M578.1,280.1c-0.1,0-0.1,0.1-0.2,0.1C578,280.2,578,280.2,578.1,280.1z"/>
							<path class="st1" d="M589.1,256.8c-0.1-0.1-0.1-0.1-0.3-0.2C588,256.7,588.4,256.8,589.1,256.8z"/>
							<path class="st1" d="M578.1,280c0,0,0,0.1,0,0.1C578.1,280.1,578.2,280.1,578.1,280z"/>
							<path class="st1" d="M772.2,276.6c0,0-0.6-0.2-1.6-0.4C770.2,276.4,770.6,276.5,772.2,276.6z"/>
							<path class="st1" d="M733.9,275.2c-0.2,0-0.4-0.1-0.7-0.1L733.9,275.2z"/>
							<path class="st1" d="M1025.7,253.8c-1.9,0-3.3,0.1-4.5,0.2C1022.6,253.9,1024.1,253.9,1025.7,253.8z"/>
							<path class="st1" d="M577.9,280.2c-0.4,0.1-1,0.2-1.9,0.3C577,280.4,577.5,280.3,577.9,280.2z"/>
							<path class="st1" d="M830.5,270.6c-0.4,0-0.8,0.1-1.2,0.1l0.7,0L830.5,270.6z"/>
							<path class="st1" d="M850.5,271.1c-0.7,0.1-1,0.3-1.4,0.4c7.1-0.5,20.2-0.2,21.8-1.4c-2.4,0.1-15-0.4-12.8-1.1
								c-5,0.4-12.3-0.4-15-0.1c8.2,0.5,0.9,1-4.6,1.4c-5-0.3,0.9-0.9-3.4-1.1l-11.6,0.3l10.1,0l-3.1,1.1c0.4,0,0.6-0.1,1-0.1
								C848.6,269.7,833,272.1,850.5,271.1z"/>
							<path class="st1" d="M849.1,271.5c-1.1,0.1-2,0.2-2.7,0.3C848,271.8,848.6,271.7,849.1,271.5z"/>
							<path class="st1" d="M918.9,272.2c0.9-0.1,1.8-0.1,3-0.2C921.4,272,920.1,272.1,918.9,272.2z"/>
							<path class="st1" d="M407.6,263.1c0.3,0.4,10.1,2,10,1.1c-2.9-0.4-5.9-0.8-8.9-1.2L407.6,263.1z"/>
							<path class="st1" d="M1108.8,261.9c-1.1,0-2.2,0.1-3.3,0.1c-0.2,0.1-0.5,0.1-0.6,0.2C1105.5,262.2,1107.7,262,1108.8,261.9z"
								/>
							<path class="st1" d="M861.1,268.5c-1.8,0.2-2.6,0.3-3.1,0.4C859.2,268.9,860.3,268.7,861.1,268.5z"/>
							<path class="st1" d="M1109.5,263.9c1.4,0.2,3.5,0.5,3.8,0.8c2.9-0.1,4.9-0.6,7.8-0.9C1117.9,264,1114,264.1,1109.5,263.9z"/>
							<path class="st1" d="M1121.4,263.7c-0.1,0-0.2,0-0.2,0C1121.3,263.8,1121.3,263.7,1121.4,263.7z"/>
							<path class="st1" d="M401.7,262.1c-0.9,0-1.7-0.1-2.7-0.1l1.4-0.1c-2.3-0.3-4.5-0.6-6.8-1c-0.8,0-1.7-0.1-2.8-0.2
								c0.4,0,0.8,0,1-0.1c-0.7-0.1-1.5-0.2-2.2-0.3c-5.5,0.2-19.1-0.6-23-0.7c-5.2-0.3-11.5-0.9-15.5-1.5c3.7,0.5,8.5,1,7.2,0.3
								c-3.7-0.7-6.4-1.6-9.8-2.3c-3.4-0.8-7.5-1.4-14-1.7l7.5,1.1c-5.7-0.2-11.4-0.4-17.2-0.6c-2.9-0.9-0.7-0.8,2.4-0.5
								c3.2,0.2,7.4,0.6,8.6,0.5c-3.3-0.3-6.5-0.7-9.4-1.2c-2.9-0.6-5.7-1.2-8.2-1.8c-5.1-1.1-9.3-2-12.4-1.7
								c-0.7-1.1-1.8-3-10.4-4.4c6,2.2-5.3-0.2-0.4,1.9c-3.1,0-9.5-2.1-10.1-1.5l0.9-0.2c-14.3-4.4-19.5-2.9-25.9-3.6
								c-8.7-1.7-15.1-3.1-21-4.7c-5.9-1.5-11.4-2.9-18.5-4.7c-0.4-0.8-3.8-3.5-9.4-4.9c-2.8,0.2-15.6-3-17.2-2.3
								c9.9,3.3,8.5,1.4,14.6,2.8c4.7,2.5,0.1,1.3,6.8,3.7c-1.4-0.5-3.6-1.1-6.3-1.8c-2.7-0.7-5.8-1.6-9-2.4
								c-3.2-0.8-6.3-1.7-9.1-2.5c-2.7-0.9-5-1.7-6.4-2.4l2.2,0.5c-4.7-1.8-7.3-3.5-10.8-5.1c-3.5-1.7-7.8-3.4-16-5.1
								c-2.6-0.6-5.2-1.3-7.8-1.9c0.4,0,0.5-0.1,0.7-0.1c-6.1-2.2-8.3-3.3-10.6-4.3c-2.3-1.1-4.8-2.1-11.7-4.1
								c1.1,0.3,0.5,0,1.5,0.3c-1.9-0.9-3.8-1.6-5.7-2.3c-1.9-0.7-3.8-1.3-5.6-1.9c-3.7-1.2-7.2-2.1-10.1-3.2
								c-3.1-2.4,1.2-0.5,3.6-0.3c-13.2-5.8-28-10.6-36.6-13.5c-2.7-1.5-5.4-3-8.2-4.5c5.1,2.1,11.7,4.1,10.4,2.8
								c-4.7-2-4-1.2-10.4-4.5c1.4,0,4.3,0.8,7.7,1.6c-6.5-3.6-7.4-3.6-7.9-3.3c-0.4,0.3-0.3,0.7-4.6-2.5c-4.2-2.1-7-2.6-7.8-2.2
								l-7-4.9c-0.6,0.2-3.3-0.9-6.5-2.6c-3.2-1.7-7-3.8-10-5.4c-0.9-0.1,4.3,3.6,6.8,4.6c-0.8,0.4-7.4-2.9-11.4-5.4
								c-0.2-1.3-6.9-5.2-12.6-8.9c-5.8-3.6-10.6-7-7.6-6.4c-2.2-1.4-4.6-2.9-7-4.5c-2.4-1.6-4.8-3.3-7.3-5
								c-1.2-0.9-2.5-1.7-3.7-2.6l-3.7-2.7c-2.4-1.8-4.9-3.5-7.2-5.4c-2.3-1.8-4.6-3.6-6.9-5.3c-2.2-1.7-4.3-3.5-6.3-5.1
								c-4-3.2-7.4-6.1-10.1-8.3c-1.6-1.7-3.9-4.3-5.5-5.9c-1.5-1.7-2-2.5,0.4-0.9c-1.6-1.5-3-2.8-4.4-4.1c-1.4-1.3-2.7-2.6-4-3.7
								c-2.6-2.3-5-4.5-7.3-6.8c-1.2-1.1-2.4-2.2-3.5-3.4c-1.2-1.2-2.3-2.4-3.5-3.7c-1.2-1.3-2.4-2.6-3.7-4c-1.2-1.5-2.5-3-3.8-4.7
								c-0.7-1.2,4.9,5.9,5,5c-3.9-4-7-8-10.3-12.7c-0.8-1.2-1.7-2.4-2.6-3.7c-0.9-1.3-1.8-2.6-2.8-4c-2-2.8-4.1-5.9-6.7-9.4
								c1.7,2.4,2.5,2.8,2.9,3c0,0.2-1.2-1.1-2.7-3c-1.5-1.8-3.2-4.2-4.6-6c-1.2-2.2,2,2.7,1.5,1.4c-4.4-7-8.3-13.8-12.1-20.3
								c-1.8-3.3-3.7-6.5-5.4-9.8c-0.9-1.6-1.7-3.2-2.6-4.9c-0.8-1.6-1.7-3.3-2.5-4.9c-0.8-1.6-1.6-3.3-2.4-4.9
								c-0.8-1.7-1.6-3.3-2.4-5c-1.5-3.4-3-6.8-4.4-10.3c-2.8-7-5.4-14.4-7.5-22.5c1.2,4.6,2.5,7.6,3.5,9.5c1,1.9,1.7,2.6,2,2.6
								c-0.9-2.9-1.8-5.9-2.7-8.8c-1.6-3.2-3.4-10-5.1-15.6c0.1-0.8-0.3-3.6,0.6-0.8c-1.3-9.1-3-16-4.6-23.5c-1.6-7.5-3-15.7-2.8-27
								c0.9,9.1,2.4,18.1,4.3,27c0.1-2.3,0.1-4.5,0.2-6.7c0.4,1.9,0.8,3.9,1.2,5.8c0.4,1.9,0.9,3.9,1.4,5.8
								c-0.2-3.5-0.7-6.8-1.2-9.2c-0.4-2.5-0.8-4.2-0.3-4.7c0.4,1.5,0.6,5,1.2,5.1c-0.1-3.4-0.4-5.2-0.7-6.8c-0.3-1.6-0.6-3-0.8-5.5
								c1.3,6.6,2.7,16.4,4.7,26.1c1.9,9.7,4.3,19.5,6.4,26.1c0.7,2.1-1-1.7-1.3-2c1.6,5.5,1.9,9,4.5,15.7c2.2,4-0.6-3.4-1.4-6.8
								c0.4,0.1,0.8,0.6,1.1,1.5c0.4,0.9,0.8,2.3,1.5,4.1c-0.2,0.3,0.2,1.7,0.8,3.8c0.6,2.1,1.6,4.7,2.5,7.6c1,2.8,2.1,5.7,3,8.2
								c0.9,2.5,1.7,4.7,1.9,6c4.5,9.6,4.8,8.5,4.9,7.4c0.1-1.1,0-2.1,4.4,7.2l1.9,5.9c1.6,2.6,3.4,5.2,5.2,8
								c1.8,2.8,3.8,5.6,5.8,8.6c2,2.9,4,5.8,6.1,8.7c2.1,2.9,4,5.8,6,8.5l-1.7-2.3c-0.7-0.6-0.7-0.3-0.4,0.4
								c0.3,0.7,0.9,1.7,1.2,2.3c5.6,8.6,12.6,14.8,15.7,20.3c2.1,2,4.6,4.4,7.2,7c2.7,2.5,5.5,5.2,8.4,8c5.9,5.4,12,10.8,17.1,15.1
								c0.8,1.7-2.6-0.9-6.7-4.5c-4.2-3.6-8.9-8.2-11.2-9.9l4.3,4.3c1.4,1.4,2.8,2.9,4.3,4.3c-1.4-1.3-2.5-2.4-3.6-3.3
								c-1-1-2-1.7-2.8-2.5c-1.7-1.4-3.3-2.5-5.2-3.9c3.6,4,6.3,6.3,9,8.5c2.8,2.2,5.5,4.2,9.3,7.5c-0.9-0.2,0,0.9,3.4,4l1.6,0.2
								c0,0.1,0.3,0.5,1.4,1.5c2.3,1.9,4.7,3.8,7,5.6c2.3,1.9,4.7,3.7,7.1,5.5c-2.7-2.7-2.3-3.4-5.8-6.5c0.9,1.5-2.2-1-5.7-4
								c1.8,1.1,1,0.2-0.2-0.9c-1.1-1.2-2.6-2.7-2.4-2.8c0.9,0.8,1.7,1.6,2.6,2.4c0.9,0.8,1.9,1.6,2.8,2.4c1.9,1.6,3.8,3.2,5.6,4.7
								c3.8,2.9,7.2,5.6,9.7,7.4l1,1.9c3.5,2.8,7.1,5.5,10.5,7.9c3.4,2.4,6.6,4.6,9,6.4l-1.8-0.7c4.3,3.1,8.7,6.1,13,8.8
								c2.2,1.4,4.3,2.8,6.3,4.2c2.1,1.4,4.1,2.7,6,4.1c2.2,1,4.5,2.1,6.8,3.2c2.4,1.1,4.8,2.2,7.1,3.2c4.7,2.2,9.3,4,12.9,5.4
								c1.1,0.2,3,1.3,5.7,2.7c2.6,1.4,5.8,3.2,9.2,5.1c3.4,1.9,7.1,3.7,10.5,5.4c1.7,0.8,3.4,1.6,4.9,2.2c1.6,0.6,3,1.1,4.3,1.5
								c0.3,0.2-1.5-0.3-3.7-1.1c-2.3-0.7-5-1.8-6.8-2.3c1.6,0.8,3.1,1.5,4.6,2.1c1.5,0.6,2.8,1,4.1,1.5c2.4,0.9,4.3,1.6,5,2.7
								c-14.4-6.9,0.4,1.2-6.3-1.4c3.4,1.5,7,3.1,10.1,4.3c3.1,1.2,5.9,2.2,7.7,2.7c-11.2-4.7,4.6,0.1-6.9-4.2
								c4.6,1.4,9.9,3.2,15.3,5.3c5.5,2,11.1,4.3,16.3,6.4c-0.3,0.5,0.9,1.2,4.8,2.8l3.5,0.5c4.9,2-9.9-2.7,0,1.3
								c1.3,0.3,2.8,0.8,4.4,1.3c1.6,0.5,3.3,1,5,1.6c3.5,1.2,7.2,2.5,10.7,3.8c7.1,2.4,13.6,4.3,16.2,3.9c7.7,3.5-15.5-4-3.8,1
								c-3.6-0.7-7.8-2.1-11.4-3.2c-3.6-1.2-6.5-2.2-7.9-2c6.9,2,2.2,1.8,6.6,3.4l7.9,1.8l-1.7-0.6c13.2,3.2,33.5,9.7,50.3,13.9
								c7.2,1.2,13.4,2.1,19.9,3c3.2,0.5,6.6,1,10.1,1.7c3.6,0.7,7.4,1.4,11.7,2.4c-5.2-0.4,14.1,3.8,3,2.7c1.9,0.6,3.9,1.1,5.8,1.5
								c1.9,0.4,3.6,0.7,5.1,0.9c3,0.4,5.1,0.5,5.2,0.3c-7-1.6-2.4-0.7-8.3-2.1c4.1,0.2,13.3,2,17,3.2c-1.7-0.4-1.1-0.1-1.5,0
								c8.3,2,4.1,0.1,10.2,1c1.8,1.2,13.3,2.7,18.8,4l8.3,0.1c-4.6,0.1,7.7,1.6,8.8,2.5c5.9,0.3,10.9,0,19.7,1.5
								c-3.7-0.1,8,1.7,8,2.6c15,2.9,25.4,0.8,39.6,3.6c-0.5,0.2-3.4,0.4,0.8,1.1c3.3,0.1,9.1,0.8,12.7,1l-0.1,0c0.1,0,0.1,0,0.2,0
								c1.7,0.1,2.8,0.1,2.9-0.1c6.1-0.2,9.4-0.8,21.4-0.5c-0.8-1-10.9-1.5-15.3-1.6l-3.9,0.6c-3.5-1.8-10.8-0.8-13.5-1.6
								c3.7-0.5,10.6-0.1,18.2,0.4c7.6,0.4,15.9,0.9,22.1,0.9c-7.4-2-23.8-3.5-38.1-4.8l6.2,1.2l-7.5-0.7l7.1,1.8
								c-3.5-0.4-6.8-0.7-10.1-1c-1.6-0.1-3.2-0.3-4.8-0.4c-1.6-0.2-3.2-0.3-4.8-0.5c3.7,0.4,6.3,1,7.4,1.4c1.1,0.4,0.7,0.7-1.4,0.4
								c-8.2-1.9-8.8-0.4-15.1-1.1c3.5,0.5,8.2,1,5.1,1.3c-6.2-1.3-10.2-1.9-14-2.4c-3.8-0.6-7.5-1.2-13.1-2.6c0.6,0.9-3,0.5-6.9,0
								c-4-0.5-8.3-1.2-9.2-0.7l5.3,0.9l-11.3-0.7c-10.1-2.8,9.3,0-6.2-3.2c-7.2-1.2-10.8-1.4-14-1.5c-3.2-0.1-6-0.1-11.7-1
								c3.9-0.3,13.1,0.3,22.2,1.9l-5.5-1.4c1.5-0.1,5.4,0.5,9.8,1.1c4.3,0.6,9.1,1.4,12.3,1.8c-5.3-0.2-4.1,0-1,0.6
								c3.1,0.5,8.2,1.3,10.5,2c1-0.8-5.8-1.5,2.3-1.2c-7.5-0.9-8.6-1.1-18-2.8c5.1,0.9,8.8,1.3,11.8,1.4c3,0.1,5.3,0,7.5-0.1
								c4.4-0.2,8.4-0.4,17.3,1.1c-4.2-0.3-3.5,0.1-1.6,0.7c1.8,0.6,4.8,1.2,5.3,1.5c3.9,0.3,11.8,1,15.1,1.2l-2.8-1.7
								c5.3,0.3,8.7,1.2,12.4,2.1c3.7,0.8,7.6,1.6,13.7,1.5c1.6-0.6-10.6-1.3-8.4-1.3c4.2,0.2,7.6,0.5,10.7,0.9
								c3.1,0.4,5.8,0.8,8.5,1.3c5.4,1,10.5,2.3,17.8,3.3c0.9-0.3,0.8-1.2,6-1.6c-1.7,0.7,2.1,1.4-3.7,1.6
								c4.9,0.7,10.8,0.5,15.2,0.5c-10.2-1.2,4.3-0.9,6.2-1.2c5.3,0.4-1.7,0.7-5,0.7c4.2,0.5,9.3,2,11.8,0.9c0.1,0.4-3,0.8-7,1.1
								c-4,0.2-9.1,0.3-13,0.1l5.3,0.5c-3.7,0.2-4.4,0-9.7-0.5c5.1,1,4.6,1.7,3.3,2.2c-0.7-0.2,0.4-0.2-0.2-0.3
								c-4.3-0.5-7.6-0.5-6.6,0c-3.9,0.9,5.9,1.1,8.7,1.9c2.2,0.1,4.4,0.2,6.5,0.2c3.7-0.3,7.5-0.7,11.2-1.1l11.2-1.2
								c9.5,0.1,13.7,1.1,20.8,2l2-0.9c8.3,0.5,16,1.1,10.7,2.1c-0.3-0.3-1.4-0.3-3.2-0.4c-0.2,0.1-0.7,0.2-1.2,0.3
								c-0.2,0.1-0.3,0.1-0.4,0.2c8.9,0.1,14.4,0,14.9,0c-15.1,0.9-0.8,1.8-3.4,3.4l15.2-0.1c-9.2-0.8-0.1-0.8,3.1-1
								c0.9,1,12.3,0.3,17.6,0.5l-0.4,0.2c4.9,0.4,13.6,0.5,19.8,0.3c-0.3-0.3,7.7-1.8,11.5-2.7c-10.6-0.5-4.3-0.8-5.1-1.4
								c1.1,0.1,3.1,0.1,3.3,0c1.5-0.3-2.1-0.4-2.3-0.7c-11.3,0.3-22.8,0.2-27.5,1.5c3.4,0.7,5.9-0.5,9.8,0
								c-5.6,0.8-12.8,0.5-22.1,0.3l-3-0.9l-9.4,0.2c3.9-0.3,1.6-1.2,11.5-1.2c-1.2-0.8-9.8-0.1-15.8-0.5l-3.1,1
								c1.2-0.6-11.7-1.1-2.5-1.6l14.9-0.5l-4.1-0.9l12.6,0.1l-3,0.5c20.3-0.3,5.9,2.3,26.4,1.4c6.4-1.2,13.3-1.2,25.8-0.8
								c-9.1,0.2-0.9,0.9-4.4,1.6c9.2,0.7,12.4-0.4,17.2-0.8c2.4,0.7,4,1.3-4.2,1.1c-1.1,1.5,10.9-0.1,11.6,1.4
								c27.4,0.2,22-4.7,54-2.7l-1.2,0.6c20.3-0.7,32.1,0,50.9-0.5l14.8,1.5c-3.3,0.3-12.2,1.4-8.1,2.2c-7.2-1.5-14.9-1-22.7-1.8
								c-0.8,0.4,2.4,0.7,3.8,0.9c-4.7,0-7-0.7-13.2-0.4c0.3,0.3,7.1,0.7,2,0.9l-8.4-1c-11.3,0.5-5.6,2.3-18.8,1.8
								c2.5-0.9,7.5-2.1,12.6-2.3c-6.1-0.2,8.1-0.5,2.5-1c-8.7,1.3-12.9,0.2-24.5,1c1.4-0.2,1.7-0.4,4.6-0.5l-16.8-0.6
								c4.2,0.8-13.9,0.7-12.3,1.8c17.9,0.6,12.7-0.1,33.1,0.6c-5.8,0.2-13.3,1.3-16.8,2.3c-0.2,0-0.5-0.1-1.1-0.1
								c-3.1,1.1,0.1,1.4,0,3.3c9.3-1.3,15.6-0.2,26.6-0.9c2.1-1-6.4-1.3-11.9-1.1l9.7-0.7l-1.9,0.5l24.6,0.4
								c-4.7,0.1-6.2,0.7-8.7,1.1c3.2,0,6.3,0.3,9.7,0.6c-0.7-1-0.3-1.7,2.8-1.7c15.8,0.2,24.7,1.1,30.5,2.2c0.6,0,1.3-0.1,1.8-0.1
								c-2.7-1,11.2-1.9,16.1-3c-0.2,1.1,8.2,0.6,12.7,1.1c2.4-1.2-0.8-2.9-6.4-3.8c-10.7,1.2-6,1.1-11,2.7l-17.2,1.1l3.8-1
								c-8.6-0.4-16.8,0.9-16.2-0.4c4.5-0.8,12-0.4,16.5-1.2l-5.7-0.4c10-1.3,5.1,1.2,17.2,0.3c-4.5-1,1.1-0.1,6.3-0.8
								c-4.2-0.7-21.3,0.4-17.7-1.4c6.3-0.8,21.2,2,29.5,0.2l-0.4,0.2c12.3,0.1,16.6-0.9,21.2-1.6c5.2,0.5,12.5-0.3,18.1-0.5
								l-0.1,0.5l8-0.3c-3.8,1-9.4,0.1-16.2,0.3l0.9,1c-7.9-1.1-13.2,0.7-19.3,1.6c8.9-0.9,25.3,0,27.3-1.9l5.5,0.9l2.6-0.4
								c4.1,0.7-0.1,1.9-8.1,2.2c-1.4-0.2-2.1-0.3-1.7-0.6c-3.7,0.5-7.1,1.3-16.1,1.1l4.8-0.6c-11.2,0-21.3,0.5-25.2,1.5
								c16.1,0.3,32,0.2,47.2,0c4.4-2.3,9.7-3.6,12-5.7c10.2-0.5,24-1,32.8-0.3l-0.8,0.4c4.3,0.1,8.3,0,11.6-0.3
								c4.6,0.5-3.1,1.1,0.1,1.4l14.5-0.9c-0.9,0.9-13.1,1.1-19,1.3c1.1-0.1,3.3-0.3,2.6-0.4c-6.8-0.3-19.4,1.5-22.3,0.2
								c-3.3,0.3,6.7-1.1-4.5-1c-7.5-0.4-9.9,0.8-10.7,1.2c-0.1,0.5,11.7,0.6,7.6,1.3c5.8-0.1,8.1-0.8,15.6-0.4
								c-5.8,0.1-13.6,1.3-16.7,0.5c-11.4,1.1-9.7,3.6-4.3,3.7c-1.3-0.8,20.8-1.2,5.8-2c6.7-1.1,19-1.3,27.8-2l-0.4,0.2l10.9-0.4
								c-1.5,0.3-4.8,0.6-4.9,1.1l15.1-1.7c-8.5,1.1,5.3,0.6,9.2,0.9c1.6-0.8,7.5-1.5,1.8-1.9c-6.4-0.5-3.7,0.5-9.5,0.7l8.2-1.4
								l0.7,0.1l4.9-1.1c11.2-0.1-4.8,2.5,9.5,1.2l-1.9-1.4c16.6-0.1,37.9,1,49.5,0.1c-3.2,0.9-4.6,2.2-0.1,2.9
								c-5.1-0.1-15.2,0.1-22.4,0.4c-1.4-0.2,9-1.9,16.9-1.7c-3.9-2.2-19.7,1.8-20.7-0.5c-20-0.4-14.9,2.6-31.9,1.5
								c-0.2,1.1-4.8,0.6-5.7,1.5c5.1,1.6,22.7-0.5,33.8-0.1c-1.1,0.1-3.2,0.3-3.7,0.5c7.9,0.1,11.1-0.1,16.7-0.7l-0.7-0.1
								c9.6-1.2,6,0.7,11.7,1c2.2-0.2,10.1-0.1,8.8-0.8l10.3,0.8l-0.5-1.2c5.8-0.2,7.1,0.5,12.3-0.3l0.2-1.1l-14.4,0
								c7.3-0.5,2-1.1,10-1.5c-8.9,1.4,6.3,0.4,7.2,1.4l5.9-0.7l-1.5,0.3c4.6,0.4,5.5-0.5,10.9-0.5c-6.4-0.4-10.6-1-18.6-0.1
								c5.9-0.7,17.6-1.7,20.4-1.8c6.2-0.6,10.5,0.1,16.3,0c-11.1,0.7,4,3.1-18.3,2.9c0.4-0.2,2.2-0.2,2.9-0.1
								c-3-1.3-13.4,0.4-18.2,1.1c1.3,0.7-3.8,1.1,4.8,1.3c-2.8-0.4,7.2-1.9,15.3-1.5l-1.4,1.7l11.9-0.1l-1.1,0.1
								c4.5,0.9,12.7-0.6,20.9-0.2c5.9-0.8,28.5-1,18.7-2.4c7.4,0.8,13.8-0.7,21.8-1.2l-10-0.3c11.7-1.6,8.4-0.7,17.7-2.9
								c1,0.4,3.1,0.7,1.2,1.3c15.8-0.5,38.5-0.9,47.7-2.7c11.2-0.4,13,1.5,28.6,0c3.3-0.4-2.6-1.4,7.7-1.4c0.7,0.1-9.9,1.7,1.6,1
								c8.2-1.7,19.3-0.2,30-1.9c5.7,0.1,15.4-0.6,13.5,0.6c-8.9,0.3-21.6,1.2-23.5,1.7c1.2-0.7-6.4-0.3,0.2-1.1
								c-13.5-0.1-8.7,1.1-20.9,1.1c-0.8,0.4,6.3,0.8,8.9,0.3c0.1,1.4-23.9,1.8-13,3c13-0.5,16.7-3.6,28-2.7
								c-4.5,1.1-11.5,0.7-17.2,2.4l9.3,0.1l6.6-1.3l-0.4,0.2c16.4,0.4,15-2.2,29.5-3.7c-8.5-0.5,1.8-2.5-4.6-2.7
								c9.7-0.7,16.9-1,17,0.4c-18.2,2.2-0.9,1.5-17.7,3.9c2.8,0.3-3.9,2.2,6.2,1.8c11.3-1.6-3.5-0.9,7.8-2.1c0.7,0.1,1.4,0.2,1,0.4
								c5.1-1,6.1-0.1,12.3-1.3l-1.5,0.4c7.8,0.4,8.4-1.5,15.1-1c-2.7-0.8,4.4-1.1,8.5-2.1c-6.8,0.1-10.5-1.1-23.8-0.2
								c-1.6,0.9-0.6,1.3-6,2l8.7-0.6c-1.9,0.2-3.3,0.5-5,0.8l-8.3,0.1c10.5-1.2,5.6-1.8,10.1-2.9c9.7-0.2,7.9-0.7,14-0.9
								c-0.5,1.2,18.7,0.8,29.9,0.7c-1.7,0.1-3.9,0.3-5.2,0.3c-8,1.3,5.6,0.6,5.9,0.9l5.8-1c-1.1,0.2-2.6,0.6-0.1,0.5
								c7.9-0.9,7.4-2,15.3-2.9c0.7,0.6-6,2.2-1,2.1c1.7,0.4,7.3,1.5,17.8,0c0.7-0.3,3.4-0.7,6.6-1.1c-0.4,0.1-1,0.2-1.2,0.2l7.1,0
								c-5.9,1.7-12.1,0.6-18,2.3l-0.4,1.1c-4.7,0.4-11,1.4-13.9,2.2c7.1-0.4,8.6-0.8,16.6-1.7c1.2,0.6-4.4,1.6-5.2,1.7l1.1-0.7
								c-9.6-0.1-14.1,2.2-26,3c-1.8,0.1-0.7-0.1-0.3-0.3c-4.8,0.9-9.5,1.1-14.2,1.4c-4.7,0.3-9.4,0.6-14,1.6l3-0.8
								c-6.3,0.9-18.7,2.7-31,4.5l-0.1,0.4c1.4,0.2-3.3,0.4-5.8,0.4l0,0c-6.2,0.9-12.2,1.7-17,2.3c1.6,0.2,3.6,0.3,5.9,0.2
								c1.9-0.6,13.4-0.9,11.7-1.9c5.3,0.4,13.8-1.1,17.7-1c-7.1-0.3,4.8-1.3,6-2c2.4,0.5,10.5-0.7,9.6,0.3c1.4,0.2-3.5-0.4-6.5,0.4
								c-7.3,1.4,13.6-0.1,4.4,1.3c11.7-1.5,27.1-2.3,39.1-4.1l-6.8,0.2c2.7-0.1,7.2-0.5,11.2-0.8c4-0.3,7.4-0.5,7.9-0.4
								c-4,0.5-8.6,0.8-13.7,1.4c-0.2,1.1,12.3-1,12.9-0.4c4.9-1,9.8-2,14.7-3l-6.5,0.5c2-0.5,6.4-0.9,11.6-1.2
								c5.2-0.4,11.1-0.7,16.1-1.2c-5.6,2-15.1,1.6-25.7,3.1c-7.6,1.2,4.9,1-2.4,2c1.9,0.2,6.7-0.3,9-0.9l2.9,0
								c-6.4,1.9-21,2.9-30.6,4.8c0.8-0.2,1.6-0.4,1.8-0.6c-7.5,0.1-15.1,0.7-22.3,1.6c3.9,0.1,5.4-0.3,7.6-0.6
								c0.3,0.3-6.6,1-9.1,1.5c6.8-0.1,1.3,0.7,5.6,0.6c-4.4,0.6-8,0.8-13.4,1c-2.8-0.3,2.3-0.8,1.6-1.4c-5.5,0.8-8.1-0.6-16.2,0.7
								c10.8-0.4-2.7,1.6-6.4,2.3l1.8-0.1c-3.4,1-6.3,1.2-8.7,0.6c4.4-0.6,8.7-0.6,7.4-1.3c-2.9,0.2-5.8,0.4-9.1,0.9l3-0.7l-14.5,1
								c-2.3,0.8-6,2-8,3.1c-3.5-0.4-8.3,0.4-11.6,0.8l1.5-0.4c-6.4-0.2-20.6,1-21.8,1.7c-4.6-0.3,32.1-5.5-0.2-3.3
								c-12.3,0.6-7.5,2.3-14.5,3.3c0,0,0.4-0.2-0.3-0.3c-5.4,0.1-5.9,0.9-10.3,1.4c3.2,0.1,7.9-0.1,9.4-0.4
								c-1.6,0.9-11.2,0.5-15.3,1.3c5.3-1.5-10.4,0-6.3-0.8c-10.7-0.3-22.1,1.1-27.7,2.3c-7.3-1.3-12.7,0.7-24.5,0.4
								c1.8,0,5.1-0.4,7.6-0.3c6.7-1.3-12.2,0-1.9-1.4c-2.2,0.2-0.1,0.5,2.1,0.3c4-0.3,7.7-0.8,6.7-1.3l-9.6-0.5l3.3-0.4l-14.6-0.7
								c-0.4,0.2,1,0.4,1.7,0.5c-16.9,0.1-36.2,1.4-50.9,1.7c-2.7,2.9-36.4,2.3-48.3,4.3c3.2-0.9,4.9-2.3,2.9-2.9
								c2.7-0.2,8.1-1.5,14.1-1.4c1,0.4,8.5,0.7,3.7,1.4c16.7-0.8-2.3-1.2,2.6-2.3c-18.5,0.8-29.3,2.7-40.9,3.7l-0.3-0.3l-8.8,0.8
								c7.2,0,6.9,1.6-2.4,1.3l1.1-0.1c-5.3-0.5-16.3,0.5-24.6,0.6l-5.6,1c-8.3,0.1-8.7-1.6-11.4-2.6c-13,0.1-20.5,1.7-29.7,2.7
								c-4.2-0.7-23.6-0.5-13.4-1.6c-11.7,0.8-9.3,4.8-29.4,2.9l5.2-0.8c-19.2,0.4-46.6,2.2-55.5,1.5c7.1-2.6-24-2.4-27.5-4.9
								c1,0.6-6.3,0.8-7.3,1.1c-1.6-0.3-4.2-0.6-7,0c7.5,0.5-5.3,2.7,9.1,1.5c-7.2,1.8-16.6,3.2-32.5,3.2l0.2-1.1l12.6,0.3
								c-1.3-0.8,5.2-0.7,7.8-1.1c-23.4-0.5,3-2.5-20.8-2.2c-2.3,0.7-0.8,0.4-7,0.7c2.9,0,3.4-0.8-1.3-0.8l-4.5,0.9
								c-8.3-1.7,13.8-1.2,6.7-2.4c9.2-0.9,25.2-1.4,22.2-2.7c-15.1-0.4-13.5,2.6-29.3,2l-1.7-0.6c-5.5,0.4-6.4,1.3-9.5,1.9
								c-0.3-0.3-1.7-0.6-5.2-0.7c-9.4,1.4-15.6,1.6-24.2,3.1c23-1.1,19.6,1,43.4,0c-3.7,0.4-20.4,0.8-21.4,2.3l0.2-1.1
								c-7.7,0.6-15.4,1.1-25.1,0.7l5.9-0.6c-12.8,0.7-21.3-1.6-31.5,0.1c3.6,0.1,6.5,0.1,8.7-0.1c-6.6,0.4-14.9,0.3-22.1,0.1
								l-14.9,1.6c0.1-0.5-9.3-0.6-4.7-1.4c-10.7-0.9-15.8,0.6-21.9,0.8c-10.9-1.2,9.5-0.4,10.6-1.8c-15.1-0.6-31.1-0.4-39.7,0.4
								c3.1,0.3,4.6,0.5,4.4,0.7c-0.5-0.3-6.5-0.4-9.9-0.4l-2.3,0.6c-5.6-0.6-4.8-1,0-1.4c-5.4-0.2-11.9,0.9-17.4-0.2
								c9.3-0.6,21,0.3,25.8-0.1c-19.3,0.3-19.4-2.4-43.8-2.2c-0.3-0.3,3.9-0.8-0.8-1c-10.9-0.1-2.9,1.3-6.3,2
								c8.4-0.1,12.3,0.4,17.2,1.4l-2.3,0.5c-0.3-0.3-5.6-0.5-7.2-0.8l-1.4,1.1c0.7-1.2-7.8-2.4-14.4-2.3c6.7,1.2,4.9,1.1,6.6,2.6
								c-9.4,1-10.5-1.8-21-0.8c0.8-0.4,10-0.3,2.1-0.9c-6.5-0.3-5.7,0.7-10.1,0.8c5-0.8,3.8-1.7,9.2-2.7c11.6,0.4,4.7,0.2,16.1,0.2
								l-9.6-1.3c9.8,0.2,7.2-0.9,8-1.3c-16.7-1.8-12.7,1.1-23.5,0.3c-2.6,0.2-0.1,0.4,2.1,0.5c2.2,0.1,4,0.3-0.1,0.5
								c-10.1-0.7-2.3,0.6-13.7,0.4l1.9-0.4c-3.4-0.8-6.9-0.2-10.9-0.4c-2.2,0-1,1-1.5,1.9c-0.5,0.9-2.8,1.6-11.9,1
								c0.9-0.2,1.2-0.4,1.3-0.5l9.1-3.8l9.1-3.9c-18.3-1-39.4-2.8-60.5-5.3c-4.8-2.1,15.2-0.1,14-1l9.6,1.2
								c-0.6,0.7-20.2-1.5-11.6,0.5c8.5,0.5,14.7,1.1,20.8,1.4c6.1,0.4,12.1,0.7,20.2,0.4c-2.5-1-7.8-1.3-13.8-1.6
								c-6-0.3-12.7-0.5-17.9-1.7c4.4,0.5,8.1,0.6,11.8,0.6c-2.5-0.2-5-0.5-7.5-0.7c-2.5-0.3-5.1-0.6-7.8-0.8
								c-5.3-0.6-10.7-1.2-16.3-1.8l-2.6,0.2c7.5,0.9,12.8,1.4,13.4,1.6c-10-0.9-18.6-0.9-19.4,0.3l1.8,0.2l-3.7,0
								C406.4,262.7,404.1,262.4,401.7,262.1z M-135.6-44.1c0.3,0.6,0.5,1,0.8,1.3C-135-43.2-135-42.7-135.6-44.1z M598.9,267.7
								c-13.4-0.4-27-0.9-39.9-1.4c11.6,1.5,21.5,2.7,23.6,3.5c2.1,0.8-3.5,1.2-22.9,0.8l-2.6,0.1c5.1,0.4,13.8,0.6,22.1,0.6
								c3.3-0.4,10.4-1.3,16.6-2.2c3.1-0.4,6-0.9,8.1-1.2c2.1-0.3,3.4-0.6,3.3-0.6c-2.4-0.7-5.8,0-10.1-0.3L598.9,267.7z M608.4,272
								c7.6,0.4,5.9-0.2,7.1-0.7c-2.7,0-5.4,0.1-8,0.1C608.5,271.5,609,271.7,608.4,272z M615,270.8c-0.9,0-1.6,0-2-0.1L615,270.8z
								 M467,265.6c0.3,0,0.5,0,0.8,0c-1.8-0.2-3.6-0.3-5.5-0.5C463.1,265.2,464.5,265.4,467,265.6z M482.4,267.7l1.9-0.8
								c-1.7-0.1-3.4-0.3-5.1-0.4C479.7,266.9,480.3,267.3,482.4,267.7z M532,272.8c3.2-1,13.7-0.8,14.3-2c0.7-0.3-1.5-0.5-4-0.7
								c-2.8-0.1-5.7-0.2-8.8-0.4c-0.1,0.2-0.7,0.3-1.8,0.5c3.1,0.2,5.1,0.6,3.9,1.4c-7.9-1.9-7.2,1-15.7,0.3
								C517,272.7,529.4,273.1,532,272.8z M1191.7,260.2c0.2,0.1,1.1,0.3,2.3,0.6l-6,0.9c-10.8,0.3-19.5-1.1-29.1,0.9
								c-4.6-0.2-7-0.9-9.4-1.5c2.2,0,4.3-0.1,6,0C1182.6,257.6,1169.8,262.9,1191.7,260.2z M1067.7,263.2c1.1-0.1,1.5-0.3,1.5-0.3
								c-24,3.1-43.8,4.4-56.8,4.6c2.5,0.8,14.2,1.2,19.8,1.4l-4.9,1.2l-3.1-0.7l-8.5,1.2c2.4,0.6,9.3,0.3,13.9,0.7
								c0.4-0.2,15.1-1.9,19.2-2.6l-11.8-0.4c3.2,0.2,18.8-0.5,24.9-1c0.1-0.5-10.6-1-11.9,0.2c-1.3-0.7,11-1.1,3.2-1.7
								c9.2-1.1,23.8-0.9,30.7-0.8l1.2,1.3c7.5,0.2,5-1.8,13.9-1.3c-10.9,0.7,1.9,1.4-6.8,1.8c2.8,0.4,0.1,1.4,8.8,1
								c7.2-2,9.2,0.7,16-1.1c4.6,0.4-4.9,1.2,4.1,1.1c10.3-1.3,9.6-2,10.2-3.2c-9.6,0-10.8,2.1-18.6,2.1l15.6-2.8
								c-2.9-0.2-5-0.1-6.8,0c3.1-0.3,5.8-0.7,8.1-1.2c1.3-0.3,2.5-0.6,3.6-0.8c-8.9,0.4-16.8,0.6-18.2,0.2l1.2-0.7
								c-3.2-0.4-8.3,0.2-10.6,0.7c-7.9,0.4-15.9,1.5-17.6,0.8l3-0.7C1081.1,262.6,1080,262.7,1067.7,263.2z M747.3,267.7
								c5.9,2.2,12.5,4.2,40.1,3.6l-2.2,0.2c13.9,1.3,27.2-2.1,44.1-0.7c-8.2,0.9-7.8,0.9-16.8,2.9l8.8-0.7
								c-2.4,1.2,6.4,0.5,12.8,0.5l-5.7,1.5c-3.9-0.4-14-0.4-13.7-0.1c2.2-0.2-13.3-1.7-21.8-1.2c0.9,1,18.7,0.4,10.7,2.1
								c7-0.7,7.9,0.2,15.2-0.2c-7,0.7-1.7,1.4-6.9,2.1l12-0.5c0.3,0.3-17.5,0.9-7.6,2c4.8-0.6,17.7-0.1,17.9-1.1l0.3,0.3
								c9,0.1,3.9-1.5,15-1.1c0.1-0.5-2-0.9-5.9-0.7c-3.3,0.3-3.8,1-10.7,1.2c-3.1-0.8,8.3,0,3.5-1.3c-2.4-0.7-18.2,0.8-13.2-0.8
								l9,0.1c0.2-1.1,6.7-1.1,6.5-1.9c5.5-0.5,10.7,0.7,16.3-0.3c2.3-0.7-1.8-1.9,7.5-1.5c7.3,1.5,28.6,0.8,36.6,0.4l7-0.8
								c-0.6-0.6-13.4,0.3-8.9-0.6l10.9-0.4l-0.8,0.4c3.6,0,7.3-0.5,10.6-0.8c-3.4,0.8-11.3,0.7-9.7,1.7c5.1,0.1,5.9,0.5,10.6,0.2
								c-1,0.1-1.9,0.2-1.8,0.4c10.4,0.3,10-1.4,12.6-1.8c10.4-1.6-10.5-1.1-9.2-2.3l30.4-1.2c-2.6,0.4-5.2,0.8-4.2,1.3
								c7.5,0.3,0.2,0.9,10.7,0.6c-0.8-1.5,13.2-1.2,20.6-2.3c3.5,0.5,4.2,0.6-3.4,0.8c0.9,1,11,0.3,14.7,0.3
								c2.1-0.3,5.7-0.5,7.9-0.8c-3-0.4-1.8-1.1,4.8-1.6l0.4-0.2c-10.8,0-27.5-0.6-34.2,0.5l1.9-0.5c-12.5-0.5-27.1,2.4-32.8,0.6
								c0.5-0.7-2.5-0.1-2.3-1.2l-9.1,1l1.9-0.5l-15.6,0.5l0.4-0.2c-7.4,1.1-13.2,2-17.8,2.7c0,0.5,0.5,0.6-2,1
								c-2.5,0.3-4.4,0.3-6,0.3c0,0,0,0,0,0l0,0c-3.8-0.1-6.4-0.7-11.1-0.9l14.5-0.3c1.2-0.8-0.1-1.6-7.2-2c2.9-0.1,4.1-0.7,0.5-0.7
								c-0.4,0.2-9.5,0.6-6,1.2c-13.8,0.5-36.1-1.2-57,0.5c15-1.1-12.1-0.9,4.6-1.4c-11.7-1.1-10,1.3-21.9,1.3c-1-0.4,6.5,0,9.2-0.9
								c-19.7-0.3-33.3,2.3-52.4,2.1l-0.8-1C755.4,267.4,751.4,267.6,747.3,267.7z M709.5,269.1c-3.7,0.1-7.4,0.2-11.2,0.3
								c0.4,0,0.7,0,1.1,0l-11,0.8c6.8,0.4,11.3,1.5,1.8,2c0.8-0.4-2-0.9,1.3-1.1c-6.4-0.6-20.3-1.2-16.7,0.3
								c12.2-1.4,2.8,1.9,12.5,0.9c-5.2,1-10.3,0.5-15.1,0.9c5.1-0.8-1.2-1.8-8.8-2.2c-3.3,0.2-12.3,0-17.8,0.3
								c2,0.9-2.8,1.4,6.1,1.7c-3.3,0.2-8.4,0.4-14.1-0.1c2.3-0.1,6.2-0.2,6-0.6c-3.7-0.8-8-0.8-10.4-1.2c-1.9,0-3.8,0.1-5.7,0.1
								c0.6,0.1,1,0.2,1.4,0.3l-6.3,0.7c8.4-0.3,3.9,0.4,3.8,1c0.2-1-5.4-0.2-8.3-0.2l6.2,1.2c-3,0.5-10.7-0.9-9.1,0.2
								c13.3,0.6,18.4,0.4,30.3,0.2l-4.9-0.9c13.5-0.5,8.3,1.5,23.5,1.6c6.3-0.8,22.8,0,23.1-1.6c-1.9,0.5,9.5,1.4,14.7,0.7
								c5.7-1.4,23.1-1.7,17.9-2.3c-4.7,0-11,0.8-14.8-0.1l9.1-0.3l-6-0.8C711.2,271,710.9,270.2,709.5,269.1z M506.1,257.3
								c-0.1,0-0.2,0-0.3,0C505.9,257.2,506,257.2,506.1,257.3L506.1,257.3z"/>
							<path class="st1" d="M1325.9,247.8c2.6-0.6,9-1.1,7.7-1.8C1333.9,246.9,1322.1,247.2,1325.9,247.8z"/>
							<path class="st1" d="M1333.7,247.9c0.4-0.2,0.1-0.5,3-0.9l-7.9,1L1333.7,247.9z"/>
							<path class="st1" d="M1342.4,252.9c4.1-1,6.6-1.7,13.1-2.3c2.6,1.8-10.5,1.7-13.2,3.9c11.9-1,15.3-3.2,25-4.5
								c-2.5-0.2-8.6,0.2-14.2,0.8C1347.5,251.3,1342.5,252.1,1342.4,252.9z"/>
							<polygon class="st1" points="1337.4,256.1 1343.9,254.9 1343.3,254.9 1336.7,256 							"/>
							<path class="st1" d="M1193.5,248c-0.6-0.6-4.7,0.2-6.9,0.5C1188.4,248.5,1190.9,248.5,1193.5,248z"/>
							<path class="st1" d="M-50.8,73.8c-11.3-11.6-21.9-24-31.4-37.1c2,2.9,4.1,5.5,6.2,8.4c2.2,2.8,4.4,5.6,6.9,8.6
								c2.5,2.9,5.1,6.1,8.1,9.4c1.5,1.7,3.1,3.4,4.8,5.2C-54.5,70-52.7,71.8-50.8,73.8z"/>
							<path class="st1" d="M1026.9,258.8c13.5-1,19.5-2.3,33.2-3.1c-18.1-0.7-23.8,2.8-39.1,1.9L1026.9,258.8z"/>
							<path class="st1" d="M1031.5,253.5c2.3,1.2-10.4,1.7-8.4,2.6c9.1-0.6,4.2-1.3,12.5-1.4L1031.5,253.5z"/>
							<polygon class="st1" points="1093.4,271.7 1089.3,272.5 1092.6,272.1 							"/>
							<polygon class="st1" points="970,256.3 971.5,255.9 964.7,255.7 							"/>
							<path class="st1" d="M973,255.6l-1.5,0.3L973,255.6z"/>
							<polygon class="st1" points="1088.2,274.5 1094.3,274.6 1097.3,273.9 							"/>
							<path class="st1" d="M1034.2,269.7l5.4-0.6C1038.6,269.3,1031.1,269,1034.2,269.7z"/>
							<polygon class="st1" points="928.6,256.6 922,257.2 922.7,257.4 929.3,256.8 							"/>
							<path class="st1" d="M991.6,274.3c3.8,0.8-10.9,0.5-3.1,1.2C995.4,275.1,992.6,274.7,991.6,274.3z"/>
							<path class="st1" d="M911.5,269.7c-0.9,0-1.8,0.1-2.7,0.2C909.8,269.8,910.7,269.8,911.5,269.7z"/>
							<path class="st1" d="M911.5,269.7c2.9-0.1,5.8,0.3,7.8-0.1C915.6,269.3,914.3,269.5,911.5,269.7z"/>
							<path class="st1" d="M878.4,270.5l2.6,0c-2.7,0.5-1.4,0.4,1,0c2.8-0.1,2.6-0.4,2.9-0.6c0.6-0.1,1.1-0.3,1.7-0.4
								c-0.9,0.1-1.6,0.3-2.3,0.4C880,270,877.4,270.1,878.4,270.5z"/>
							<path class="st1" d="M755.3,256c9.7,0.3,12.2,0.4,11.6,1.2c9.2,0.2,7.7-1.1,13.3-1.4C769.9,255.9,767.7,255.6,755.3,256z"/>
							<path class="st1" d="M780.2,255.7c1.2,0,2.3-0.1,3.6-0.1C782.4,255.6,781.2,255.7,780.2,255.7z"/>
							<polygon class="st1" points="917.2,277.8 911.2,279 913.4,278.8 							"/>
							<path class="st1" d="M741,255.7c1.8,0,4.7,0,6.1,0.2C747.6,255.2,739.2,255.6,741,255.7z"/>
							<path class="st1" d="M778.4,269.8c1,0.4,7.2,0.1,9.7,0.3C784.4,270,781.5,268.6,778.4,269.8z"/>
							<path class="st1" d="M713.3,258.8c1.8,0,4.5,0.5,3.4,1.1C719.2,259.5,722.8,258.2,713.3,258.8z"/>
							<polygon class="st1" points="760.7,269.7 762.1,270 768.7,269.5 							"/>
							<path class="st1" d="M784.4,280.4c7.4-0.9-11.8-2,1-2.8c-16.6-0.8,1.3,1.2-10.9,1.2C781.6,278.9,785.1,280,784.4,280.4z"/>
							<path class="st1" d="M774.4,278.7c-1,0-2.2-0.1-3.4-0.1C772.4,278.7,773.5,278.7,774.4,278.7z"/>
							<path class="st1" d="M669.6,273.4c1.1-0.1,1.8-0.2,2.5-0.3C671.2,273.2,670.4,273.3,669.6,273.4z"/>
							<path class="st1" d="M735.4,279.6l11.2-1.4c-7.5,0.9-26.2,0.9-25,2.2c6.1,0.3,13.4-0.1,16.4-0.7L735.4,279.6z"/>
							<path class="st1" d="M607.5,255.6l4.8-0.5l-6-0.2C608,255.1,604.9,256.1,607.5,255.6z"/>
							<path class="st1" d="M605.1,254.9l1.2,0C606,254.9,605.7,254.9,605.1,254.9z"/>
							<path class="st1" d="M690.7,272.8c3.6,0.1,6.5,0.1,9.8-0.2C699.1,272.4,690.1,272.2,690.7,272.8z"/>
							<polygon class="st1" points="573.6,257 581.5,256.9 572.9,256.9 							"/>
							<polygon class="st1" points="536.7,253.9 535.3,253.7 528.8,253.9 530.1,254.2 							"/>
							<path class="st1" d="M584.6,280.6c5.4,0.2,9.6-0.9,8.2-1.2l-10.5-0.1c2.6,1.1,2.9,0,9,0.4L584.6,280.6z"/>
							<path class="st1" d="M265.4,226.1c2.4-0.1,13.4,2.4,13.9,3.2c-1.5,0-7.6-1-3.9,0.2l9.1,0.1c11.5,3.4-9.3,0.4-15.2-0.2
								c5.9,1.3,9.8,1.9,13.8,2.4c4,0.6,8.1,1,14.5,2.2c-3.7-0.8-6-1.7-7.9-2.4c-0.2-1.2,11.5,1.4,20,2.9c-5.3-1.5-2.1-1.3,1.9-1.1
								c0.7,0.1,1.2,0.1,1.5,0.1c0.5,0,0.9,0,1.4,0.1l-1-0.2c0.1-0.1-0.1-0.3-0.8-0.6c-7.2-0.8-12.4-2.9-17-3.7
								c2.1,1.4-1.8,0.8-7-0.2c-5.1-1.1-11.5-2.6-14.4-2.9c-2.2-0.4-4.4-0.7-6.6-1.2l-2.5-0.5c-0.4-0.3,0.3-0.4,4.1,0
								c-3.2-0.3-13.6-2.7-12.8-1.9l-6-1.3l-5.9-1.4l-11.8-2.8c-0.7-0.2-1.4-0.5-1.9-0.8c-0.8-0.1-1,0-0.9,0.1
								c-17.1-4.3-34.1-9-51-14.2c-16.8-5.3-33.4-11.1-49.8-17.4c2.4,1.1,4.6,2,6.8,3c2.2,1,4.5,2,7,3c-8-1.6,8.2,3.3,5.6,3.6
								c-3.6-0.8-8.5-2.8-11.4-4.2c-1.3,0.2,2.7,2.2,2,2.7c3.1,1.3,5.6,2.2,7.7,2.9c2.2,0.6,4.1,1,6,1.3c1.9,0.4,3.8,0.7,6,1.2
								c1.1,0.3,2.2,0.6,3.5,1c1.3,0.4,2.7,0.8,4.2,1.4c-0.7,0.5-4.8-0.1,3.4,2.4l-2.1-0.5c6.7,1.7,9.1,2.9,10.9,3.8
								c1.9,0.8,3.2,1.4,7.6,1.6l-0.5,0.9c3.1,0.5,7.5,1.7,12.1,2.8c4.5,1.2,9.1,2.4,12.4,3.2l-0.4,0.1c9.4,1.9,12,2.5,14.9,3.2
								c1.4,0.4,3,0.8,5.4,1.4c2.5,0.6,5.9,1.4,11.2,2.5l-9.9-1.1c7.1,2.2,9.1,1.3,14.2,2.7c-0.4,0.1,0.6,1.1-4.3,0.2
								c8.6,1.5,17.3,2.6,25.9,3.9C273.6,228.3,266.2,226.8,265.4,226.1z"/>
							<path class="st1" d="M297.5,234c1.4,0.3,2.9,0.6,4.7,0.9C300.5,234.6,299,234.3,297.5,234z"/>
							<path class="st1" d="M122.3,181.8l6.9,2.7C127,183.6,124.8,182.7,122.3,181.8z"/>
							<path class="st1" d="M334.9,238c-4.4-1.2,3.5-0.3,4.3-0.5l-8-1.2c-2.7-0.4-5.3-0.9-8-1.3c0,0.4-1.7,0.6-1.4,1
								C326.2,236.7,330.5,237.4,334.9,238z"/>
							<path class="st1" d="M318.7,233.4c-0.6,0.2-2.3,0.2-4.3,0.1l8.8,1.4C323.2,234.6,322.2,234.2,318.7,233.4z"/>
							<polygon class="st1" points="316.9,255.1 314,254.7 309.6,254.3 							"/>
							<path class="st1" d="M272.3,245.2c3.3,1.3,9.9,2.1,12.1,2.4C276.9,246.1,280.2,246.5,272.3,245.2z"/>
							<polygon class="st1" points="280.3,253.5 272.9,252.4 273.6,252.6 							"/>
							<path class="st1" d="M70.6,163c-1.1-0.5-2.1-1-3.2-1.5C68.9,162.2,69.9,162.7,70.6,163z"/>
							<path class="st1" d="M127.4,187.2c-15.5-7.4,10.8,3.2,6.3-0.2c-3-0.9-5.9-2-8.9-2.9l0.9-0.1c-3.5-1.4-7.1-2.7-10.6-4.1
								c1.9,1.6,3.5,2.3,2.7,2.7c-13.9-6.1-4.1-2.7-14-7.8c-5.1-2.3-10.3-4.5-15.4-6.9l1.3,0.4c-1.3-0.6-1.9-0.8-2.4-0.9
								c-17.2-7.9-34.1-16.7-50.3-26.3c-9.1-4.9,4.2,4.1-2.9,1.1c5.1,3.2,11.5,7,16.8,10.1c5.4,2.9,9.6,5,10.4,4.6
								c-0.4,0-1.3,0,0.7,1.3c2.2,0.8,4.5,1.4,6.7,2.1c-1.9-1.1-3.8-2.2-5.7-3.4c1.7,0.6,4.2,1.6,7.1,2.9c2.9,1.3,6.1,2.9,9.3,4.4
								c6.3,3,12.2,6.2,14,7.3c-1.5-0.6-2.7-1.1-3.7-1.5c-1-0.4-1.8-0.7-2.5-0.9c-1.4-0.5-2.4-0.7-3.4-1.1c-1.1-0.3-2.3-0.8-4.2-1.7
								c-1-0.4-2.1-1-3.5-1.7c-1.4-0.7-3-1.6-5-2.7c0.5,0.7,3.2,2.8-0.5,1.1C89.6,172.1,106.6,180.4,127.4,187.2z"/>
							<path class="st1" d="M-49.4,76.9l0.2,0C-49.5,76.7-49.6,76.6-49.4,76.9z"/>
							<path class="st1" d="M-44.6,82c2.7,2,5.5,4,8.3,6l-5.7-5.4c-1.9-1.8-3.7-3.7-5.6-5.5l-1.5-0.1c1.2,0.8,5.4,4.4,6.7,6.2
								C-43.2,82.7-43.9,82.4-44.6,82z"/>
							<path class="st1" d="M-27.1,95.2c-6.3-5.1-6.8-4-3.8-0.6c-3-2.3-3.5-3.2-3.9-3.8c-0.4-0.6-0.6-1-2.9-2.3
								c-0.5,0.8,6.7,6.6,8.4,7.9L-27.1,95.2z"/>
							<path class="st1" d="M20.5,132.1c-0.7-0.3-1.5-0.6-2.2-0.9c1.5,1.1,3.1,2.1,4.7,3.2L20.5,132.1z"/>
							<path class="st1" d="M18.3,131.2l-4.6-3.3c0.1,0.5,0.2,1,0.9,1.8L18.3,131.2z"/>
							<path class="st1" d="M1.8,119.2c-1.9-1.4-3.9-3.1-6.5-5.1C-2.5,115.8-0.4,117.5,1.8,119.2z"/>
							<path class="st1" d="M6.9,123.2l-0.1-0.2l-5-3.8C3.6,120.6,5.3,121.9,6.9,123.2z"/>
							<path class="st1" d="M13.7,127.9c-0.1-0.6-0.3-1.2-1.3-2.3c-1-1-2.8-2.4-6.1-4.7l0.6,2C9.1,124.7,11.4,126.3,13.7,127.9z"/>
							<path class="st1" d="M228.1,240.8c-2.2-0.3-4.4-0.8-6.6-1.2l0.7,0.3c2.2,0.4,4.4,0.8,6.6,1.2L228.1,240.8z"/>
							<path class="st1" d="M191.1,230.1c-1.6-0.3-2.9-0.5-4-0.7C188.8,229.9,190.1,230.1,191.1,230.1z"/>
							<path class="st1" d="M162,227.1c-7.3-3.2,10.7,2.3-3.1-2.5c-1-1.1,5.8,0,12.3,2.5c-0.7,0.5-6.5-1.6-2.7,0.4
								c4.6,0.6,6.1,1.6,4.9,0.1c7.5,1.6,8.6,1.1,13.8,1.9c-2.2-0.6-5.1-1.4-8.2-2.3c-3.2-1-6.7-2-10.2-3.2
								c-3.6-1.2-7.2-2.3-10.7-3.4c-3.5-1-6.8-2-9.7-2.6c-6.6-0.9-3.4,2.1-4.1,3.9c0.4,0.4,4.6,2,8.8,3.4
								C157.2,226.5,161.5,227.6,162,227.1z"/>
							<path class="st1" d="M173.3,232.7c3.5,1.1,4.6,1.4,6.8,1.9C179.6,233.8,176.1,233.5,173.3,232.7z"/>
							<path class="st1" d="M99.7,190.5c-0.8,0-6.8-2.4-5.8-1.4c3,1.3,6.1,2.4,9.2,3.6C101.1,191.8,100.5,191.2,99.7,190.5z"/>
							<path class="st1" d="M107.3,194.3l-4.1-1.6C104.2,193.2,105.4,193.7,107.3,194.3z"/>
							<path class="st1" d="M99.4,190.1c0.1,0.1,0.2,0.2,0.4,0.3C99.9,190.5,99.9,190.4,99.4,190.1z"/>
							<path class="st1" d="M-16.3,104.6c0.2-0.2-0.6-0.8-1.6-1.6c-1-0.8-2.3-1.8-3.2-2.4C-19.7,101.7-18,103.4-16.3,104.6z"/>
							<path class="st1" d="M-114.1-19.6l-1-3.6C-114.8-21.9-114.7-21.2-114.1-19.6z"/>
							<path class="st1" d="M-144.1-72.3c-0.1-0.1-0.3-0.4-0.4-0.7C-144.4-72.7-144.2-72.4-144.1-72.3z"/>
							<path class="st1" d="M-144.5-73c-0.9-2.6-1.4-10.9-2.3-13.8l0.2,0.4c-0.4-1.8-0.6-3.7-0.9-5.5c0.2,2.6,0.7,6.6,1.2,10.4
								c0.3,1.9,0.6,3.7,0.9,5.2C-145.1-75-144.8-73.8-144.5-73z"/>
						</g>
					</g>
				</g>
			</g>
		</g>
	</g>
	<g>
		<g>
			<g>
				<g>
					<g>
						<g>
							<path class="st1" d="M1698.7,248.6c5-0.8,9.4-0.8,7.6-0.3c10.1-2.2,10.4-1.4,11.5-3c6.4-1.7,13.6-1.7,6.2,0l18.7-3.6
								l-11.3,1.4c2.9-1.6,18.1-2.2,21.4-4.2l-20.4,3.1l1-0.5c-4.6,1.1-13.6,2.2-16.8,2.5c0.5-0.3,0.1-0.5,3.7-1.1
								c-24.6,3.5-6.3,3.1-26.7,6.4C1694.9,249,1696.5,248.8,1698.7,248.6z"/>
							<path class="st1" d="M1677.4,248.6l-8.4,2.7l-14.5,1.5c-0.1,0.5-10.6,2.4-3.4,1.9c1.4-0.3,4.1-0.8,6.3-1
								c-1.5,1.3-19.1,3.1-14.7,3.7c11.4-1.8,13.2-1.8,20.1-3.6c5.2-0.6,9.8-1.2,13.6-1.6c3.8-0.4,7-0.7,9.5-0.9
								c3.1-0.6,3.4-1.4,7.3-2.1c-0.9,0.1-1.7,0.3-2.7,0.4l-0.7-1.6c-3.2,0.8-6.4,1.1-10,1.7l16.6-4.4c-5.7-0.8-22.1,2.5-28.8,2.8
								C1676.1,248.4,1661.2,249.8,1677.4,248.6z"/>
							<path class="st1" d="M1693.2,249.3c0.1,0,0.3,0,0.4-0.1C1693.5,249.2,1693.4,249.2,1693.2,249.3z"/>
							<path class="st1" d="M425,260.7c-3.5-0.9-4.7-0.8-5.2-0.7c3.3,0.9,6.6,1.8,9.9,2.6l10,2.3l20,4.7c-1.2-0.7-12.5-4-4.8-2.4
								c-3.3-1.3-13.8-3.3-15.5-3.1l3.1,0c-9.4-1.3-15.3-4.4-9.1-3.5l-0.8-0.2l-3.3-0.3l-3.3-0.4l-6.5-0.8l-13.1-1.7
								C415.6,259.6,413.8,257.8,425,260.7z"/>
							<path class="st1" d="M-136.9-291.6c1.1,5.2,1.4,5.8,1.4,5.2C-135.9-288.3-136.4-290.1-136.9-291.6z"/>
							<path class="st1" d="M400.2,256.2l-8.2-1.1C395.3,255.7,398.2,256.1,400.2,256.2z"/>
							<path class="st1" d="M459,254.3c0-0.1,0.1-0.1-0.1-0.2l-3.7-0.3c0.1,0,0.1,0,0.1,0C456.7,254,457.9,254.2,459,254.3z"/>
							<path class="st1" d="M223.2,196.8c-0.8-0.4-1.5-0.7-2.5-1.1C221.7,196.1,222.5,196.5,223.2,196.8z"/>
							<path class="st1" d="M568,269.1l-9-0.9c-3-0.3-6-0.6-9-1c2.4,0-6.1-1.4-2.3-1.3c-1.4-0.2-7.7-1.1-6-0.6l3.6,0.6
								c-9.6-0.3-4,1.2-19.7-0.5c9.5,2.6,13.9,2.6,19.1,2.9c1.7,0.2,3.2,0.4,4.7,0.6l3.8,0.2l3.8,0.1l7.6,0.2L568,269.1z"/>
							<path class="st1" d="M-48.4-56.5l0.2,0.1C-48.4-56.5-48.4-56.5-48.4-56.5z"/>
							<path class="st1" d="M-47.4-55.9l-0.8-0.4C-47.5-55.7-45.4-52.6-47.4-55.9z"/>
							<path class="st1" d="M403.4,256.1c-0.3,0.2-1.4,0.2-3.2,0.1l6.1,0.8C405.5,256.8,404.4,256.4,403.4,256.1z"/>
							<path class="st1" d="M417.6,256.7l7.4,1.9l3.7,0.9l3.7,0.8l5.7,0.6c-2.9-0.6-6-1.2-9.4-1.8
								C425.4,258.3,421.7,257.5,417.6,256.7z"/>
							<path class="st1" d="M245.2,207.6c-29.5-12.7,7.9,1.7-5.5-4.6c-4.1-1.7-7-2.7-9.4-3.5c-2.5-0.8-4.5-1.6-7.1-2.6
								c5.8,2.6,8.5,3.8,9.6,4.5c1.1,0.7,0.6,0.8,0,1c-1,0.3-2.1,0.6,9.8,5.6c-2-0.1-6.4-1.6-11.3-3.6c-1.2-0.5-2.5-1-3.7-1.5
								c-1.2-0.5-2.5-1.2-3.7-1.7c-2.4-1.2-4.7-2.3-6.6-3.4c-8.3-5.5,8.2,2.8,10.8,2.6c-9.4-4.3-7.9-3.2-12.1-4.5
								c-3.6-1.8-7.4-3.5-11.1-5.2c-1.8-0.8-3.7-1.6-5.5-2.4c-1.8-0.9-3.5-1.7-5.2-2.5c-6.8-3.3-12.8-6.4-16.7-9.5
								c-1.3-0.6-2.5-1.2-3.5-1.7c-1-0.5-1.9-0.9-2.6-1.3c-1.5-0.7-2.6-1.2-3.6-1.6c-2-0.8-3.5-1.2-6.6-2.6
								c-0.9,0.3,2.8,2.6,7.1,5.3c4.3,2.7,9.5,5.4,11.1,7c-0.7-0.5-2.2-1.6-1.6-1.5l8.9,5c-8.3-4.9,1.9-0.7,6.5,1.6
								c1.7,0.9,4.2,2.1,6.1,3.2c2,1,3.4,1.8,2.8,1.7c-1.8-0.7-3.5-1.4-5.2-2.3c0.8,0.5,1.6,0.9,2.5,1.4c0.9,0.4,1.7,0.8,2.7,1.2
								c1.8,0.8,3.7,1.6,5.6,2.3c3.8,1.6,7.6,3.2,10.9,5.2c0.2,0.5-2.5-0.7-3-0.7c4.1,1.4,8,3.1,12.4,4.9c4.4,1.7,9.3,3.7,15.3,5.9
								l-7.4-1.7c5,1.3,12.8,4.4,21.1,8c8.4,3.4,17.4,7.3,24.7,10.7c-1.6-0.9-4.5-2.2-2.6-1.8c8.8,3.3,15.2,6.5,10.8,5.7
								c4.5,1,12.7,4.2,21.3,7.5c2.1,0.8,4.3,1.7,6.5,2.5c2.1,0.8,4.3,1.5,6.3,2.2c4.1,1.3,7.9,2.4,11,3c18.9,3.9,38.1,6.7,57,9.7
								c-2.1-0.4-4.3-0.9-6.6-1.5c-4.6-2.7-7.4-3.3,1.7-1.9c-8.8-1.9-5.8,0.1-18.7-3.7c5.2,0.9,6.9-0.1-5.4-3.9
								c-7.8-1.9-14.9-3.9-21.7-5.5c-6.8-1.7-13.3-3.1-19.8-4.6c-6.4-1.6-12.7-3.3-19.3-4.9c-3.3-0.9-6.6-1.8-10-2.7
								c-1.7-0.5-3.5-0.9-5.2-1.5c-1.7-0.6-3.5-1.1-5.3-1.7c-0.3-0.7-6-3.1-13-6c-3.5-1.4-7.3-3-10.8-4.4c-3.5-1.5-6.9-3.1-9.5-4.3
								c2.2,0.4,5.3,1.4,8.9,2.7c3.6,1.2,7.7,2.7,11.8,4.3c-2.6-1-6.1-2.5-9.8-4c-3.7-1.5-7.5-3.3-10.7-4.7L245.2,207.6z"/>
							<path class="st1" d="M316.2,231.8c-0.7-0.4-1.5-0.7-2.3-1C314.3,231,315,231.4,316.2,231.8z"/>
							<path class="st1" d="M271.7,216.6c0.1,0,0.1,0,0.1-0.1c-0.9-0.3-1.7-0.6-2.6-1C270.1,215.9,271,216.3,271.7,216.6z"/>
							<path class="st1" d="M396.7,252.1c1.9,0.2,3.3,0.5,5.2,0.7c-1.2-0.2-2.6-0.5-4-0.8C396.6,251.8,395.9,251.7,396.7,252.1z"/>
							<path class="st1" d="M402.5,255.4l-1.1,0.1c0.8,0.2,1.3,0.4,2,0.6C403.7,256,403.5,255.7,402.5,255.4z"/>
							<path class="st1" d="M141.1,143.3l-2.7-1.4C140,142.8,140.7,143.1,141.1,143.3z"/>
							<path class="st1" d="M213.4,191.2c10.1,4.7,1.8-0.7,16,6.1l-4.1-2.1c1.3,0.5,2.7,1.2,4.2,1.8c1.5,0.6,3.1,1.3,4.8,2
								c3.4,1.4,7,3,10.7,4.6c3.7,1.6,7.4,3.3,11,4.8c0.9,0.4,1.8,0.8,2.7,1.2c0.9,0.4,1.8,0.7,2.6,1.1c1.7,0.7,3.4,1.3,4.9,2
								c-1.6,0,7.3,3.7,5.5,3.9c4.3,1.6,8.6,3.2,12.4,4.5c1.9,0.6,3.7,1.2,5.3,1.7c1.6,0.4,3,0.7,4.2,0.9c5.2,2.2,13.6,4.4,20.3,7.2
								c-2.7-1.6,10.3,1.7-6.4-3.6c1.4,0.4,0.6,0,1.9,0.4c-5.2-2.3-8.9-3.5-12.6-4.6c-3.6-1.1-7.1-1.9-11.6-3.8
								c-5.2-2.7,9.2,2.7,4.1,0.5c-11.5-4-35.2-14.7-35.1-12.7c-8.2-3.4-9.1-4.3-11.4-5.7c-3.4-0.9-8.1-2.7-13.2-4.9
								c-5-2.3-10.4-5-15.5-7.5c-5-2.5-9.7-4.7-13.1-6.3c-3.4-1.6-5.6-2.4-5.9-1.8c1.1,0.6,2.5,1.2,3.9,2c1.4,0.7,3,1.6,4.7,2.3
								c3.3,1.5,7,3.1,10.5,4.5L213.4,191.2z"/>
							<path class="st1" d="M378.8,247.1c-0.6-0.2-1.5-0.5-2.1-0.6C377.4,246.6,378.1,246.9,378.8,247.1z"/>
							<path class="st1" d="M513,287.1l-4.9,1c-13-2.4-21.8-4.3-30.2-6.1c-4.2-0.9-8.3-1.8-12.8-2.8c-4.4-1.1-9.3-2.2-14.9-3.5
								c-1.7-0.6,1.1-0.2,2.5,0.1c-7.9-1.8-17.8-4.1-27.2-6.3c-9.3-2.4-18.1-4.6-23.9-5.7c-2.5-0.7-7-2-10.2-3.1
								c-3.2-1.1-5.2-2-2.6-1.5c-2.5-0.6-5.3-1.2-8-2.1c-0.6-0.8,6.3,1.7,6.6,1.2c-2.2-0.7-3-1.1-3.6-1c1.9,0.3,1.1-0.5,2-0.8
								c0.9-0.3,3.4,0.2,12.1,2.4c6.3,3.2-12.1-3-8.6-0.4c5.8,1.6,5.3,0.7,5.8,0.7c7.4,2,7.1,2.3,6.6,2.6c3,0.2,12,3.4,16.1,3.6
								c14.4,3.6-1.1,1,8.3,3.5c1.9-0.1,3.9-0.2,5.8-0.4l15.6,4c11.4,2.4,10.7,1.5,10.5,0.6c-0.1-0.4-0.1-0.8,1.5-0.8
								c0.8,0,2.1,0.1,3.9,0.4c1.8,0.3,4.3,0.7,7.6,1.2c-3.6,0.2,6.5,3.8,18.5,6.6c-3.6-0.7-8.8-1.5-14.3-2.4
								c-2.7-0.5-5.5-0.9-8.2-1.5c-2.7-0.6-5.3-1.2-7.6-1.9c12.8,4.4-18.1-4.1-11.6-1c3.3,0.4,7.7,1.2,12.3,2.2
								c2.3,0.5,4.6,1.1,6.9,1.6c2.3,0.5,4.6,1,6.7,1.6l-2.8-0.4c9,2,16.2,1.7,28.5,4.9c6.2,1.2,4.9,1.5,3.8,1.6
								c1.3,0.2,2.6,0.4,3.8,0.6c1.2,0.2,2.3,0.3,3.2,0.4C511.8,286.7,513,286.9,513,287.1z M499.4,284.9l-8.2-1.9
								C493.1,283.7,496.1,284.3,499.4,284.9z"/>
							<path class="st1" d="M1561.3,264.1c0.8-0.1,1.8-0.1,2.5-0.2C1563.2,263.9,1562.3,264,1561.3,264.1z"/>
							<path class="st1" d="M820.1,300.8l4.8,0.3C823,301,821.5,300.9,820.1,300.8z"/>
							<path class="st1" d="M928.8,298.3l7.1-0.3C933.1,297.9,930.9,298.1,928.8,298.3z"/>
							<path class="st1" d="M1503.8,270.9l-0.2,0c-0.4,0.1-0.7,0.1-1.1,0.2L1503.8,270.9z"/>
							<path class="st1" d="M1146.8,298.2c1.1,0.1,2.3,0.1,4,0.2C1150.5,298.2,1149,298.1,1146.8,298.2z"/>
							<path class="st1" d="M927.5,298.3c0.2,0,0.3,0,0.4,0c0.3,0,0.6-0.1,0.9-0.1L927.5,298.3z"/>
							<path class="st1" d="M772.6,293.3c-1,0-2,0-3.1,0C770.9,293.3,771.8,293.3,772.6,293.3z"/>
							<path class="st1" d="M779.1,298.5c-1.1,0-2.2,0-3,0L779.1,298.5z"/>
							<path class="st1" d="M613,279.2l-6.5-0.6C609.7,279,611.6,279.1,613,279.2z"/>
							<path class="st1" d="M761.9,296.3c-0.4,0.1-0.8,0.1-1,0.2C761.8,296.4,762.2,296.4,761.9,296.3z"/>
							<path class="st1" d="M1603.1,263.9c-0.1,0-0.3,0-0.4,0.1l-0.1,0.2L1603.1,263.9z"/>
							<path class="st1" d="M1618.5,259.4c1.9-0.3,3.8-0.6,5.7-0.9C1622.1,258.8,1620,259.1,1618.5,259.4z"/>
							<path class="st1" d="M1241.6,295.4c1.7,0.1,5.8,0.1,3.9,0.6C1248.8,295.4,1248.5,294.5,1241.6,295.4z"/>
							<path class="st1" d="M1572.8,278.5c1-0.4,2.3-0.7,3.5-1C1574,278,1571.9,278.5,1572.8,278.5z"/>
							<path class="st1" d="M1576.3,277.5c1.2-0.3,2.4-0.5,3.5-0.8C1578.6,276.9,1577.4,277.2,1576.3,277.5z"/>
							<path class="st1" d="M1198.5,312.2c-0.4-0.1-1.1-0.2-2-0.1C1196.8,312.3,1197.5,312.3,1198.5,312.2z"/>
							<path class="st1" d="M1628.8,258.2c1-0.5,25.6-4.7,4.8-2.1c0.6-1.4,13.3-2.3,18.8-3.4c-4.1,0.2,1.9-1.1,0.6-1.3
								c-2.7,0.5-6,1.3-10.5,1.8c-2.2-0.3,4.7-1.6,10.1-2.1c-6.7,0.2,8.3-2.1-1.2-1.4c-20,3.1-34.1,5.4-48,9.1
								c11.4-1.8,24.2-3.9,33.6-4.6l-3.8,1.6c-10.7,0.5-17.2,2-27.7,3.3l23.5-2.5c11.1-0.6,3.8,0.6-4.9,2
								C1626.3,258.2,1628.3,258,1628.8,258.2z"/>
							<path class="st1" d="M1614.3,269.7l0.4,0c0.3-0.1,0.8-0.2,1-0.2L1614.3,269.7z"/>
							<path class="st1" d="M611.2,301.2l-2.1,0.1C610.9,301.4,611.4,301.3,611.2,301.2z"/>
							<path class="st1" d="M1599.6,266.4L1599.6,266.4C1599.4,266.4,1599.4,266.4,1599.6,266.4z"/>
							<path class="st1" d="M661.7,307.4c-0.1,0-0.2,0-0.3,0.1C661.6,307.5,661.6,307.4,661.7,307.4z"/>
							<path class="st1" d="M677.6,285.5c-0.1-0.1-0.1-0.1-0.3-0.2C676.2,285.3,676.8,285.4,677.6,285.5z"/>
							<path class="st1" d="M661.8,307.3C661.7,307.3,661.8,307.4,661.8,307.3C661.7,307.4,661.8,307.3,661.8,307.3z"/>
							<path class="st1" d="M908.3,318.2c0,0-0.8-0.2-2-0.4C905.8,317.9,906.3,318.1,908.3,318.2z"/>
							<path class="st1" d="M859.7,315.4c-0.3-0.1-0.5-0.1-0.9-0.1L859.7,315.4z"/>
							<path class="st1" d="M1229.8,291.3c-2.4,0.1-4.2,0.3-5.7,0.4C1225.9,291.7,1227.8,291.5,1229.8,291.3z"/>
							<path class="st1" d="M661.4,307.5c-0.5,0.1-1.3,0.1-2.5,0.1C660.3,307.6,661,307.5,661.4,307.5z"/>
							<path class="st1" d="M982.5,313.1c-0.5,0-1,0.1-1.5,0.1c0.3,0,0.6,0,0.9,0L982.5,313.1z"/>
							<path class="st1" d="M1007.9,313.7c-0.9,0.1-1.3,0.3-1.7,0.4c4.5-0.3,10.9-0.2,16.5-0.5c5.5-0.2,10.2-0.5,11.2-1.1
								c-3.1,0.1-19-0.2-16.3-1c-6.3,0.3-15.6-0.4-19-0.2c10.4,0.6,1.1,1-5.9,1.4c-6.4-0.3,1.2-0.9-4.3-1.1l-14.7,0.2l12.8,0.1
								l-3.9,1.1c0.5,0,0.8-0.1,1.3-0.1C1005.5,312.3,985.7,314.6,1007.9,313.7z"/>
							<path class="st1" d="M1006.1,314.1c-1.4,0.1-2.5,0.2-3.5,0.3C1004.7,314.4,1005.5,314.3,1006.1,314.1z"/>
							<path class="st1" d="M1094.8,313.9c1.1-0.1,2.3-0.2,3.8-0.3C1097.9,313.7,1096.2,313.8,1094.8,313.9z"/>
							<path class="st1" d="M448.7,263.6c0.3,0.4,12.5,4,12.4,3.1c-3.6-0.9-7.3-1.9-11-2.8L448.7,263.6z"/>
							<path class="st1" d="M1335.3,294.3c-1.4,0.1-2.8,0.2-4.2,0.3c-0.3,0.1-0.6,0.1-0.8,0.2C1331.2,294.9,1334,294.5,1335.3,294.3
								z"/>
							<path class="st1" d="M1021.4,311.1c-2.3,0.2-3.3,0.3-3.9,0.5C1019,311.5,1020.3,311.4,1021.4,311.1z"/>
							<path class="st1" d="M1336.3,296.3c1.8,0.1,4.5,0.3,4.9,0.5c3.7-0.3,6.2-1,9.9-1.4C1346.9,295.9,1342,296.2,1336.3,296.3z"/>
							<path class="st1" d="M1351.4,295.3c-0.1,0-0.2,0-0.3,0C1351.2,295.4,1351.3,295.4,1351.4,295.3z"/>
							<path class="st1" d="M441.5,261.5c-1.1-0.2-2.2-0.4-3.3-0.6l1.8,0.2c-2.8-0.7-5.6-1.5-8.4-2.2c-1-0.2-2.2-0.4-3.5-0.7
								c0.6,0.1,1,0.1,1.3,0.1c-0.9-0.3-1.8-0.5-2.7-0.8c-6.9-0.9-23.8-4.7-28.7-5.4c-1.6-0.3-3.3-0.7-5-1.1
								c-1.7-0.4-3.4-0.9-5.1-1.3c-3.4-0.9-6.5-1.8-8.9-2.5c4.5,1.3,10.5,2.9,8.9,1.9c-9-3.2-13-5.9-29.1-9.3l9.2,2.7l-10.7-2.2
								l-10.6-2.5c-3.5-1.6-0.8-0.9,3.1,0.1c1.9,0.5,4.2,1.1,6.2,1.7c2,0.5,3.7,0.8,4.4,0.9c-1-0.2-2-0.5-3-0.8
								c-1-0.3-2-0.6-2.9-0.9c-1.9-0.6-3.8-1.2-5.6-1.9c-3.6-1.3-6.9-2.5-10-3.7c-6.2-2.3-11.3-4.2-15.2-4.7
								c-0.7-1.3-1.9-3.5-12.3-7.1c7.1,3.8-6.5-1.6-0.7,1.8c-3.8-0.8-11.5-4.5-12.3-4.1l1.1,0c-8.6-3.8-14.4-6.1-19.2-7.4
								c-4.8-1.3-8.4-1.9-12.3-3c-2.6-1-5.1-1.9-7.4-2.9c-2.3-1-4.4-1.9-6.5-2.8c-4.1-1.8-7.7-3.4-11.2-5c-3.5-1.6-6.9-3.1-10.5-4.7
								c-3.5-1.7-7.2-3.5-11.4-5.5c-0.4-0.9-4.1-4.7-10.8-7.8c-0.9-0.2-2.5-0.7-4.4-1.5c-1.9-0.8-4.2-1.8-6.4-2.7
								c-4.4-1.9-8.7-3.7-9.7-3.6c5.8,3.3,8.3,4.3,10.2,5c1,0.3,1.8,0.6,2.9,0.9c1,0.4,2.3,0.9,4.1,1.7c5.4,3.9,0,1.3,7.8,5.9
								c-6.5-3.3-29.6-14.4-36.2-19l2.6,1.2c-2.8-1.6-4.8-3.2-6.7-4.6c-1.9-1.5-3.6-2.8-5.5-4.3c-2-1.4-4.2-3-7.1-4.7
								c-2.9-1.7-6.6-3.6-11.3-6.1l-8.9-4.7c0.5,0.2,0.6,0.1,0.9,0.1c-7-4.4-9.4-6.3-11.9-8.2c-2.6-2-5.4-4-13.2-8.6
								c1.2,0.7,0.6,0.1,1.8,0.9c-2.1-1.6-4.2-3.1-6.3-4.5c-1.1-0.7-2.2-1.4-3.2-2.1c-1.1-0.7-2.1-1.4-3.1-2.1
								c-4.1-2.7-8-5.1-11.3-7.3c-3.3-3.6,1.5-0.1,4.3,1.1c-1.8-1.4-3.7-2.8-5.5-4.1c-1.9-1.4-3.8-2.6-5.6-4.1
								c-3.7-2.8-7.3-5.4-10.9-7.9c-1.8-1.2-3.5-2.4-5.2-3.6c-0.8-0.6-1.7-1.1-2.5-1.7c-0.8-0.6-1.6-1.1-2.3-1.7
								c-3-2.2-5.8-4.2-8.1-5.8l-8.6-8.2c5.5,4.3,12.7,9.1,11.4,7.3c-5-4.1-4.4-2.9-11.2-9.1c1.5,0.7,4.9,2.7,8.6,4.9
								c-3.4-3.3-5.4-5-6.6-5.9c-1.2-0.9-1.6-1-1.9-0.9c-0.5,0.1-0.5,0.6-4.7-4.6c-4.3-4.1-7.5-5.8-8.4-5.7
								c-1.2-1.4-2.4-2.7-3.6-4.1l-3.4-4.2c-0.7-0.1-3.5-2.5-6.8-5.7c-1.7-1.6-3.5-3.3-5.2-5.1c-1.7-1.8-3.4-3.6-4.9-5.2
								c-0.5-0.3,0.5,1.2,1.9,3c0.7,0.9,1.6,1.9,2.4,2.8c0.8,0.9,1.7,1.7,2.3,2.2c-0.5,0-2.5-1.5-4.7-3.8c-2.3-2.2-4.9-5-6.9-7.2
								C8.3,31.6-17.1,4.6-10.7,8.6c-2.1-2.6-4.3-5.4-6.6-8.2c-1.1-1.4-2.3-2.9-3.5-4.3c-1.2-1.5-2.4-2.9-3.5-4.5
								c-2.3-3.1-4.5-6.2-6.8-9.2c-2.3-3.1-4.6-6.1-6.6-9.3C-46.3-39.2-53.7-51-58.5-58.5c-2.4-5.4-8.2-15.8-3.9-10
								c-10.3-19-17-28.1-25.1-48.1c-0.5-1.7,3.9,8.9,4.2,7.9c-1.6-3.1-2.9-6.2-4.3-9.3c-1.3-3.1-2.6-6.3-3.8-9.8
								c-1.2-3.5-2.6-7.1-4.1-11.2c-1.5-4.1-3.1-8.6-5.1-13.7c1.3,3.4,2,4.3,2.4,4.7c-0.1,0.2-1-1.8-2.2-4.5
								c-0.6-1.4-1.2-2.9-1.9-4.5c-0.6-1.5-1.2-3.1-1.7-4.4c-0.8-3.1,1.6,3.9,1.2,2.2c-6.4-20-11.9-37.7-17-55.5
								c-5.1-17.8-9.7-35.7-13.5-56.2c0.6,2.9,1.1,5.4,1.6,7.4c0.5,2,1.1,3.7,1.5,4.9c0.9,2.5,1.6,3.5,1.9,3.6
								c-0.8-3.8-1.6-7.6-2.3-11.5c-1.5-4.3-3.1-12.9-4.9-20c0.1-0.9-0.3-4.5,0.6-1c-2.8-22.9-8.3-35.2-12.6-62.9
								c2.9,11,5.7,22.1,8.4,33.2l-0.5-8.5l3.7,14.6c-0.8-9-3.7-16.4-2.9-17.6c0.6,1.8,1.3,6.3,1.8,6.4c-1.1-8.6-1.9-9.1-3.2-15.5
								c2.5,8.2,5,20.6,7.5,33.1c2.5,12.5,4.8,25.1,6.8,33.9c0.7,2.7-0.9-2.3-1.2-2.7c0.7,3.6,1.1,6.5,1.6,9.6
								c0.5,3.1,1.1,6.5,2.2,11c2,5.4-0.3-4.4-1.1-8.9c0.8,0.5,1.3,2.7,2.4,7.6c-0.2,0.3,0,2.2,0.5,4.9c0.5,2.7,1.2,6.3,2,10
								c0.7,3.7,1.6,7.6,2.3,11c0.7,3.4,1.2,6.2,1.3,7.9c3.5,13.1,3.9,11.8,4.1,10.6c0.1-0.6,0.2-1.3,0.7-0.2c0.2,0.6,0.5,1.6,1,3.2
								c0.5,1.7,1.1,3.9,1.9,7.1l1.1,7.9c1.3,3.6,2.7,7.5,4.1,11.5c0.7,2,1.4,4.1,2.2,6.1c0.8,2.1,1.6,4.2,2.3,6.3
								c3,8.5,6.4,17.1,9.2,25.2c-0.4-1.1-0.9-2.3-1.3-3.4c-1.3-2.1-0.2,1.8,0.2,3.5c2.2,6.1,4.7,11.8,6.9,16.9
								c2.3,5,4.3,9.5,5.4,13.4c0.4,0.8,0.9,1.7,1.4,2.6c0.5,0.9,1,1.8,1.5,2.7c1,1.9,2.1,3.9,3.2,5.9c1.1,2.1,2.3,4.2,3.4,6.4
								c1.2,2.2,2.5,4.4,3.7,6.6c1.3,2.2,2.5,4.4,3.8,6.6c0.6,1.1,1.2,2.2,1.9,3.3c0.6,1.1,1.3,2.1,1.9,3.2c2.6,4.2,5,8.3,7.2,11.9
								c0.5,2.4-2.5-2.3-6.1-8.3c-3.7-5.9-7.6-13.4-9.7-16.4l3.5,6.9l1.8,3.4c0.6,1.1,1.2,2.3,1.9,3.4c-0.6-1-1.1-2-1.7-2.9
								c-0.5-0.9-1-1.7-1.4-2.5c-0.9-1.6-1.7-2.9-2.4-4.1c-1.5-2.4-2.9-4.4-4.6-6.8c3,6.1,5.3,10,7.6,13.8c2.5,3.7,4.9,7.3,8.2,12.8
								c-0.4-0.3-0.5-0.1-0.1,0.9c0.4,1,1.3,2.7,2.8,5.2l1.7,0.9c0,0.1,0.3,0.7,1.2,2.3l6.2,9.6c2.1,3.2,4.3,6.3,6.5,9.4
								c-2.3-4.3-1.7-4.9-4.9-9.9c0.6,2.1-2.1-2.1-5.1-7.2c3.2,4.1-2.5-5.2-2-5.4c1.5,2.5,3.2,5.2,4.8,7.9c0.8,1.3,1.6,2.7,2.5,4
								c0.8,1.3,1.7,2.6,2.5,3.9c3.4,5,6.5,9.6,8.8,12.8c0.2,0.9,0.5,1.7,0.7,2.6c3.2,4.6,6.6,9.3,9.7,13.6c3.2,4.3,6.3,8,8.5,11.1
								L-11-3.3c2,2.7,4.1,5.4,6.1,8c2.1,2.6,4.3,5.1,6.4,7.6c2.1,2.5,4.1,5,6.1,7.4c0.5,0.6,1,1.2,1.5,1.8c0.5,0.6,1,1.2,1.5,1.8
								c1,1.2,1.9,2.4,2.9,3.6c2.2,2.1,4.6,4.3,6.9,6.5c1.2,1.1,2.4,2.3,3.6,3.4c1.2,1.1,2.5,2.2,3.7,3.3c4.9,4.3,9.7,8.4,13.5,11.5
								c2.3,1.4,8.5,7.7,15.5,14.6c0.9,0.9,1.8,1.7,2.7,2.6c0.9,0.8,1.9,1.7,2.8,2.5c1.9,1.7,3.7,3.3,5.6,4.9
								c1.8,1.6,3.6,3.1,5.3,4.4c1.7,1.3,3.2,2.5,4.7,3.4c0.3,0.3-1.7-0.9-4.1-2.7c-2.5-1.8-5.5-4-7.4-5.3c3.4,3,6.6,5.4,9.2,7.4
								c2.7,1.9,4.7,3.4,5.4,4.8c-15.5-13.1,0.2,1.5-7.1-4c7.4,6,15.4,12,19.3,14.6c-12-9.6,5.3,2.1-7.2-7.2c2.5,1.7,5.2,3.6,8,5.6
								c2.9,2,5.9,4,8.9,6.1c3,2.1,6.1,4.3,9.1,6.5c1.5,1.1,3,2.3,4.5,3.3c1.5,1.1,3,2.1,4.5,3.2c-0.4,0.4,0.9,1.5,5.2,4.7l4,1.8
								c5.5,3.9-11.3-6.5-0.2,1.3c12.2,6.8,35.2,23,41.8,23.8c8.8,6.1-18-9.2-4.7-0.2c-2.1-1-4.4-2.1-6.7-3.4l-1.7-0.9
								c-0.5-0.3-1.1-0.7-1.6-1c-1.1-0.7-2.1-1.3-3.1-1.9c-4.1-2.5-7.5-4.6-9.1-4.9c8,4.5,2.3,2.6,7.3,5.8c3,1.6,6,3.2,9.1,4.6
								l-1.9-1.2c3.9,1.9,8.2,4.2,12.9,6.7c2.3,1.3,4.7,2.6,7.2,4c1.2,0.7,2.5,1.4,3.7,2.1c1.3,0.7,2.6,1.3,3.9,2
								c5.2,2.7,10.5,5.5,15.7,8.2c1.3,0.7,2.6,1.4,3.9,2c1.3,0.7,2.6,1.3,3.9,2c2.6,1.2,5.1,2.4,7.6,3.6c4.3,1.7,8.3,3.3,12.2,4.8
								c1.9,0.7,3.9,1.5,5.8,2.2c1.9,0.7,3.9,1.4,5.8,2.1c3.9,1.4,7.9,2.9,12.2,4.6c2.1,0.8,4.4,1.8,6.7,2.7c2.3,1,4.7,2.1,7.3,3.1
								c-6.4-1.8,16.9,7.5,3.4,3.5c9.3,4.4,19.1,7.5,19.4,7.1c-8.3-3.5-2.9-1.3-9.9-4.4c5,1.3,16,5.8,20.5,7.7
								c-2.1-0.8-1.3-0.4-1.9-0.4c10,4.1,5.1,1.2,12.5,3.6c2,1.6,16.1,6.2,22.8,8.7l10.2,2c-5.7-1,9.3,3.4,10.6,4.6
								c1.8,0.4,3.5,0.8,5.3,1.2c1.8,0.3,3.6,0.7,5.5,1.1c3.8,0.8,8.1,1.8,13.5,3.6c-4.6-0.9,9.7,3.5,9.7,4.4
								c2.3,0.8,4.5,1.5,6.7,2.1c2.2,0.6,4.3,1.1,6.3,1.5c4.1,0.9,8,1.7,11.9,2.4c3.9,0.7,7.7,1.5,11.7,2.4c2,0.5,4,1,6.1,1.6
								c2.1,0.5,4.2,1.1,6.4,1.8c-0.6,0.1-4.3-0.2,0.8,1.2c4.2,0.7,11.4,2.5,15.8,3.5l-0.1,0c0.1,0,0.1,0,0.2,0
								c2.2,0.5,3.5,0.7,3.6,0.5c3.9,0.4,6.8,0.8,10.7,1.2c3.9,0.4,8.7,1,16.2,2.2c-0.4-0.6-3.8-1.4-7.8-2.2c-2-0.4-4.1-0.8-6.1-1.1
								c-2-0.4-3.8-0.7-5.2-0.9l-4.9-0.2c-4.1-2.5-13.4-2.9-16.7-4.2c4.6,0.2,13.3,1.9,22.8,3.9c1.2,0.2,2.4,0.5,3.6,0.7
								c1.2,0.2,2.4,0.4,3.6,0.7c2.4,0.4,4.9,0.9,7.2,1.3c4.7,0.8,9.3,1.6,13.2,2.1c-4.6-1.6-11.9-3.6-20.4-5.5
								c-4.2-0.9-8.7-2.1-13.2-3.2c-4.5-1.1-9.1-2.1-13.6-3.1l7.7,2.4l-9.3-2.2l8.7,3.1c-8.7-2.3-16.4-3.7-24.3-5.7
								c9.3,2.3,12.6,4.3,7.4,2.9c-2.5-0.8-4.5-1.4-6.1-1.8c-1.6-0.4-2.9-0.6-4.1-0.8c-2.4-0.4-4.6-0.5-8.5-1.6
								c4.4,1.2,10.1,2.8,6.2,2.3c-7.6-2.6-12.5-4-17.2-5.4c-2.4-0.7-4.7-1.4-7.3-2.2c-2.6-0.8-5.5-1.7-8.9-3.1
								c1.3,2.1-17.5-5-20-4.3l6.5,2l-14.1-3.1c-6.2-2.5-3.2-2-1.2-1.7c1,0.2,1.9,0.3,1.2-0.1c-0.6-0.4-2.7-1.1-7.4-2.9
								c-17.6-6-17.7-4.1-31.6-8.6c4.9,0.7,16.2,3.4,27.3,7.1l-6.6-2.7c1.9,0.3,6.7,1.8,12,3.5c2.6,0.9,5.4,1.7,8.1,2.5
								c2.6,0.8,5.1,1.5,7,2.1c-13.2-2.7,5.9,2.1,11.6,4.7c1.3-0.6-7-2.9,3-0.7c-9.2-2.7-10.5-3-22.1-6.8
								c12.5,3.9,18.4,4.8,23.9,5.6c2.7,0.4,5.3,0.8,8.7,1.5c3.3,0.6,7.3,1.6,12.8,3.3c-10.3-2.3,3.2,2.2,4.3,3
								c4.8,1.1,14.6,3.6,18.7,4.3c-1.1-0.7-2.2-1.5-3.3-2.2c1.6,0.4,3.1,0.7,4.5,1.1c1.4,0.3,2.7,0.7,3.9,1.1
								c2.4,0.7,4.6,1.5,6.9,2.3c4.5,1.5,9.3,3,17,4.1c2.1-0.3-13.1-3.4-10.4-2.9c5.2,1,9.5,2,13.3,3c1.9,0.5,3.7,1,5.5,1.5
								c1.7,0.5,3.4,0.9,5.1,1.4c6.6,1.9,12.9,4.1,22,6.4c1.1-0.2,1.1-1.1,7.6-0.4c-2.2,0.4,2.5,1.8-4.8,0.9c3,0.8,6.4,1.4,9.7,2
								c3.3,0.4,6.5,0.8,9.3,1.1c-12.8-2.8,5.5-0.2,7.9-0.2c6.6,1.3-2.2,0.4-6.3-0.1c5.3,1.2,11.4,3.5,14.7,2.8
								c0.1,0.9-15.3-0.5-25.3-2.1l6.7,1.3c-2.3-0.2-3.7-0.4-5.3-0.7c-1.6-0.3-3.5-0.7-6.8-1.5c6.3,2,5.6,2.5,3.9,2.9
								c-0.8-0.3,0.5-0.1-0.3-0.4c-5.3-1.3-9.4-1.9-8.3-1.2c-5,0.1,7.2,2.3,10.8,3.5c2.8,0.4,5.5,0.8,8.2,1.2l28.4,1.4
								c3,0.5,5.6,0.8,7.9,1.2c2.3,0.4,4.4,0.8,6.3,1.2c3.9,0.9,7.4,1.7,11.9,2.7l2.6-0.6c10.4,1.7,20.1,3.5,13.3,3.7
								c-0.3-0.4-1.7-0.5-4-0.9c-0.3,0.1-0.8,0.1-1.5,0.1c-0.2,0-0.4,0.1-0.5,0.1c5.6,0.7,10.1,1.3,13.3,1.6
								c3.2,0.3,5.1,0.5,5.5,0.5c-19.1-1.1-1.2,1.7-4.6,2.9l19.2,2c-11.5-2.1-0.1-0.9,4-0.6c0.5,0.6,4.4,1.1,8.9,1.6
								c2.3,0.2,4.7,0.5,7.1,0.7c2.3,0.3,4.5,0.5,6.2,0.7l-0.5,0.1c6.2,1,17.1,2.1,25,2.7c-0.3-0.4,9.8-0.9,14.7-1.3
								c-13.3-1.8-5.3-1.3-6.3-2.1c1.4,0.2,3.8,0.5,4.2,0.4c1.9-0.1-2.6-0.7-2.9-1c-14.2-1.1-28.8-2.5-34.7-1.8
								c4.3,1.1,7.5,0.2,12.3,1.2c-3.6,0.1-7.6-0.2-12.2-0.6c-4.6-0.5-9.8-1.2-15.7-2l-3.7-1.3l-11.9-1.1c5,0.2,2.1-1,14.5,0.4
								c-1.5-1-12.3-1.4-19.8-2.7l-4,0.6c1.6-0.4-14.6-2.7-3-2l18.9,1.6l-5.1-1.4l15.9,1.9l-3.8,0.1c25.5,2.6,7.2,3.3,33.1,4.9
								c8.2-0.5,16.8,0.4,32.6,2.4c-11.4-0.9-1.3,0.8-5.6,1.1c2.9,0.5,5.3,0.7,7.4,0.9c2.1,0.2,3.9,0.2,5.5,0.2
								c3.2,0,5.8-0.2,8.8-0.2c2.9,1,5,1.7-5.4,0.7c-1.4,1.3,13.7,0.9,14.6,2.5c8.6,0.7,14.7,1,19.6,1c4.9,0,8.6-0.4,12.4-0.6
								c7.7-0.5,16.2-0.6,36.3,1.7l-1.6,0.5c3.2,0.1,6.3,0.3,9.2,0.4c2.9,0.1,5.7,0.2,8.4,0.3c5.4,0.2,10.4,0.4,15.3,0.7
								c4.9,0.2,9.8,0.5,15,0.7c2.6,0.1,5.2,0.2,7.9,0.3c2.7,0.1,5.6,0.2,8.6,0.2l18.7,2.1c-4.2,0.1-15.5,0.9-10.3,1.8
								c-4.5-0.9-9.2-1.3-14-1.6c-4.8-0.4-9.7-0.7-14.6-1.3c-1,0.4,3,0.8,4.7,1.2c-5.9-0.3-8.9-1.1-16.7-1.2c0.4,0.3,8.9,1.1,2.4,1
								l-10.6-1.5c-7.1-0.1-8.9,0.4-11,0.7c-2.1,0.3-4.5,0.7-12.9-0.2c1.6-0.3,4-0.7,6.8-0.9c2.8-0.3,6-0.5,9.3-0.5
								c-7.6-0.5,10.2,0,3.3-0.9c-5.5,0.4-9.6,0.3-14.2,0c-4.5-0.3-9.5-0.7-16.9-0.8c1.7-0.1,2.2-0.3,5.8-0.1l-21.2-1.9
								c5.2,1.1-17.6-0.4-15.7,0.9c22.6,2,16,0.9,41.8,3.2c-7.3-0.2-16.8,0.3-21.3,1c-0.2-0.1-0.6-0.1-1.4-0.2c-4,0.8,0,1.4-0.2,3.3
								c11.9-0.6,19.7,1.1,33.7,1.2c1.3-0.5-0.7-0.9-3.9-1.2c-3.2-0.4-7.6-0.7-11.1-0.8l12.3,0.1l-2.4,0.3
								c10.4,0.7,20.8,1.2,31.1,1.9c-5.9-0.2-7.9,0.3-11,0.6c4,0.2,8,0.7,12.2,1.2c-0.8-1-0.2-1.7,3.7-1.5c5,0.3,9.5,0.6,13.4,0.9
								c4,0.3,7.5,0.7,10.6,0.9c6.2,0.6,10.8,1.2,14.5,1.9c0.8,0,1.6,0,2.3,0c-3.3-1.1,14.3-1.4,20.5-2.3c-0.3,1,10.3,1,16.1,1.6
								c3.1-1.2-1-2.9-8-4.1c-13.6,0.7-7.6,0.9-14.1,2.3l-21.8,0.4l4.9-0.8c-10.8-0.7-21.3,0.3-20.5-1c5.8-0.6,15.2,0.1,20.9-0.5
								l-7.2-0.7c12.7-0.9,6.5,1.4,21.8,0.9c-5.6-1.2,1.4,0,8-0.6c-5.3-0.9-27-0.5-22.3-2.1c8-0.6,26.8,2.9,37.3,1.4l-0.5,0.2
								c15.6,0.4,21.1-0.6,26.9-1.2c6.6,0.7,15.8-0.1,22.9-0.1l-0.2,0.5c3.4-0.1,6.7,0,10.1-0.1c-4.8,1-11.9-0.1-20.6-0.1l1.1,1
								c-10-1.3-16.7,0.4-24.5,1.2c11.3-0.7,32,0.6,34.6-1.3l7,1.1l3.4-0.4c2.6,0.4,2.6,0.8,0.6,1.3c-1.9,0.4-5.8,0.8-10.9,0.8
								c-1.8-0.3-2.6-0.4-2.1-0.6c-4.7,0.4-9,1.1-20.4,0.8l6.1-0.5c-14.2-0.2-27,0-31.9,0.9c10.2,0.3,20.4,0.5,30.3,0.7
								c5,0.1,9.9,0.1,14.9,0.2c4.9,0,9.8,0.2,14.6,0.1c5.7-2.3,12.4-3.5,15.3-5.6c12.9-0.5,30.3-0.9,41.5-0.2l-1,0.4
								c5.5,0.1,10.5-0.1,14.7-0.5c5.8,0.4-3.9,1.2,0.1,1.4l18.4-1.1c-1.1,1-16.6,1.3-24,1.6c1.4-0.1,4.2-0.3,3.3-0.4
								c-2.1,0-4.7,0-7.5,0.2c-2.8,0.1-5.7,0.3-8.4,0.4c-5.5,0.2-10.5,0.3-12.3-0.4c-4.2,0.3,8.5-1.1-5.7-1
								c-9.5-0.4-12.5,0.8-13.5,1.2c-0.2,0.5,14.9,0.6,9.7,1.3c7.4-0.1,10.3-0.8,19.7-0.4c-7.3,0.1-17.2,1.3-21.1,0.5
								c-14.4,1.1-12.4,3.5-5.5,3.6c-1.6-0.8,26.4-1.1,7.4-2c4.3-0.5,10.3-0.8,16.6-1.1c3.2-0.1,6.4-0.3,9.6-0.4
								c3.2-0.2,6.2-0.4,9-0.6l-0.5,0.2l13.8-0.6c-1.9,0.3-6.1,0.7-6.2,1.2l19.1-1.9c-10.8,1.2,6.7,0.5,11.6,0.8
								c2-0.9,9.5-1.6,2.3-1.9c-8.1-0.4-4.7,0.5-12,0.8l10.3-1.5l0.9,0.1l6.2-1.2c7.1-0.1,5.5,0.5,4.5,1c-0.5,0.2-0.9,0.5,0,0.5
								c0.9,0.1,3,0,7.5-0.5l-2.4-1.3c21-0.6,48,0,62.7-1.3c-4,1-5.8,2.3-0.1,2.9c-6.4,0-19.2,0.6-28.4,1
								c-1.8-0.2,11.4-2.1,21.4-2.2c-4.9-2.1-25,2.4-26.3,0.1c-12.7,0.1-17.4,0.8-21.6,1.5c-4.2,0.6-8,1.3-18.8,0.8
								c-0.3,1.1-6.1,0.7-7.2,1.6c3.2,0.8,10.4,0.6,18.6,0.2c8.1-0.5,17.2-1.1,24.2-1.1c-1.4,0.1-4.1,0.4-4.6,0.6
								c10-0.1,14.1-0.5,21.1-1.1l-0.9-0.1c12.2-1.5,7.6,0.5,14.8,0.7c1.4-0.1,4.6-0.2,7.2-0.4c2.6-0.2,4.7-0.4,3.9-0.7l13,0.3
								l-0.7-1.1c7.3-0.5,9,0.2,15.6-0.8l0.3-1.1l-18.2,0.6c9.2-0.8,2.5-1.1,12.6-1.9c-11.3,1.8,8,0.2,9.2,1.1l7.4-1l-1.9,0.4
								c5.9,0.2,6.9-0.8,13.8-1c-8.1-0.2-13.4-0.6-23.6,0.7c7.4-1,22.2-2.4,25.8-2.7c3.9-0.4,7.2-0.5,10.5-0.5
								c3.3-0.1,6.5-0.1,10.2-0.2c-7,0.7-5.7,1.4-6.2,2.1c-0.5,0.7-2.8,1.4-16.9,1.7c0.5-0.2,2.8-0.3,3.7-0.2
								c-3.8-1.1-16.9,1-23,1.8c1.6,0.7-4.8,1.2,6.1,1.1c-3.6-0.3,9-2.2,19.4-2.1l-1.7,1.8l7.5-0.3l7.5-0.4l-1.4,0.2
								c5.7,0.7,16-1.3,26.4-1.4c7.4-1.1,36.1-2.6,23.7-3.5c4.7,0.2,9-0.2,13.5-0.7c4.4-0.6,9-1.4,14-1.9l-12.7,0.4
								c14.8-2.4,10.6-1.3,22.4-4.2c1.2,0.4,3.9,0.5,1.5,1.2c10-0.8,22.2-1.6,33.3-2.6c5.6-0.5,10.9-1,15.5-1.5
								c4.6-0.6,8.6-1.2,11.5-1.8c14.1-1.3,16.5,0.5,36.2-2.2c4.1-0.6-3.4-1.2,9.8-2c0.9,0-12.5,2.4,2.1,0.9
								c5.1-1.2,11.3-1.5,17.8-2c6.5-0.5,13.4-1,20.1-2.3c7.2-0.3,19.5-1.8,17.1-0.5c-11.3,1-27.3,2.9-29.7,3.7
								c1.5-0.8-8.1,0.3,0.2-1.1c-17.2,1.1-11,1.8-26.4,2.8c-1,0.5,8,0.4,11.2-0.3c0.2,1.4-30.2,3.6-16.4,3.9
								c8.2-0.7,13.5-1.9,18.4-2.9c5-1,9.7-1.9,16.9-2c-5.6,1.4-14.6,1.8-21.7,3.9l5.9-0.3l5.9-0.4l8.4-1.9l-0.5,0.3
								c20.7-1,18.9-3.5,37.3-6.2c-10.8,0.2,2.2-2.6-5.9-2.4c12.3-1.5,21.4-2.3,21.6-0.9c-22.9,3.6-1.1,1.6-22.3,5.3
								c3.6,0.1-4.9,2.6,7.9,1.3c14.2-2.5-4.4-0.7,9.8-2.7c0.9,0,1.7,0.1,1.3,0.3c6.5-1.4,7.7-0.6,15.5-2.2l-1.8,0.5
								c9.9-0.4,10.6-2.2,19.1-2.3c-3.5-0.6,5.6-1.5,10.7-2.8c-8.6,0.6-13.4-0.3-30.2,1.9c-1.9,1-0.7,1.3-7.5,2.5
								c3.6-0.4,7.3-0.8,10.9-1.3c-2.3,0.4-4.1,0.8-6.3,1.2l-10.6,0.7c13.3-2,7.1-2.2,12.6-3.7c12.2-1.1,10-1.4,17.7-2.1
								c-0.6,1.3,23.8-0.8,37.9-1.8c-2.2,0.2-5,0.6-6.5,0.7c-10.1,2,7.1,0.1,7.6,0.4l7.4-1.5c-1.4,0.3-3.3,0.8-0.1,0.5
								c10-1.5,9.3-2.5,19.3-4c0.8,0.6-7.5,2.6-1.2,2.2c2.2,0.3,9.3,0.9,22.5-1.5c0.9-0.4,4.4-1,8.3-1.6c-0.6,0.1-1.2,0.2-1.5,0.3
								l9-0.5c-7.4,2.1-15.3,1.5-22.8,3.6l-0.5,1.1c-5.9,0.8-13.9,2.3-17.5,3.3c9-1,10.9-1.5,20.9-3.1c1.5,0.5-5.5,1.9-6.5,2.1
								l1.4-0.8c-6.1,0.4-10.5,1.2-15.3,2.2c-4.8,0.9-10,2-17.5,2.8c-2.3,0.2-0.9,0-0.4-0.3c-12,2.5-24.1,2.5-35.7,5.3l3.8-1
								c-4,0.7-9.9,1.8-16.7,3.1c-3.4,0.6-7.1,1.3-10.8,2c-3.8,0.7-7.7,1.3-11.6,2l-0.1,0.4c1.8,0.1-4.1,0.7-7.3,0.9l0,0
								c-7.8,1.3-15.3,2.6-21.5,3.7c2,0,4.6,0,7.5-0.3c2.4-0.7,16.9-1.9,14.8-2.8c6.7-0.1,17.4-2.1,22.3-2.3c-9,0.4,6.1-1.8,7.6-2.6
								c3.1,0.3,13.2-1.6,12.1-0.6c1.8,0-4.4-0.1-8.2,0.9c-9.2,2,17.2-1.3,5.6,0.9c14.7-2.4,34.2-4.5,49.4-7.2l-8.6,0.7
								c3.4-0.3,9.1-1,14.1-1.6c5-0.6,9.3-1.1,9.9-1c-2.5,0.4-5.2,0.8-8.1,1.2c-2.9,0.4-6,0.8-9.2,1.3c-0.1,0.5,3.8,0.1,7.8-0.5
								c4-0.5,8.1-1.2,8.5-0.9l18.5-4.2l-8.2,1c5.1-1.3,22.3-2.8,35-4.4c-7.1,2.4-19.1,2.6-32.4,4.9c-9.6,1.8,6.2,0.6-3,2.1
								c2.4,0,8.4-0.8,11.3-1.6l3.7-0.2c-4,1.2-10.6,2.3-17.7,3.5c-7.1,1.2-14.7,2.4-20.8,3.7c1.1-0.3,2-0.5,2.3-0.7
								c-9.5,0.6-19.1,1.8-28.2,3.3c4.9-0.2,6.8-0.7,9.6-1.2c0.4,0.3-8.3,1.5-11.5,2.2c8.6-0.7,1.7,0.6,7.1,0.1
								c-5.5,1-10.1,1.4-16.9,2.1c-3.6-0.1,2.8-1,2-1.6c-6.9,1.2-10.3,0.1-20.5,2.1c13.6-1.4-3.4,1.8-8.1,2.8l2.3-0.2
								c-4.2,1.3-7.9,1.8-10.9,1.4c5.5-0.9,10.9-1.4,9.3-2c-3.7,0.5-7.3,1-11.5,1.6l3.7-1l-18.3,2.2c-2.8,1-7.6,2.5-10,3.8
								c-4.5-0.1-10.5,1-14.7,1.7l1.9-0.5c-8.1,0.3-26.1,2.7-27.5,3.5c-5.8,0.1,40.4-8.3-0.3-3.3c-7.7,0.9-10.1,1.6-11.6,2.3
								c-1.5,0.7-2.2,1.4-6.6,2.2c0,0,0.5-0.2-0.4-0.3c-6.8,0.5-7.4,1.3-13,2.1c4.1-0.1,10-0.7,11.9-1.1c-2,1-14.2,1.3-19.3,2.4
								c6.6-1.9-13.2,0.8-8-0.4c-13.6,0.5-27.9,2.9-35,4.5c-9.3-0.8-16.1,1.5-31.1,2c2.3-0.1,6.4-0.7,9.7-0.8
								c8.4-1.7-15.5,0.8-2.5-1.2c-2.8,0.4-0.2,0.5,2.7,0.1c5-0.5,9.7-1.3,8.4-1.7l-12.2,0.1l4.2-0.6l-18.5,0.3
								c-0.5,0.2,1.3,0.3,2.2,0.4c-10.7,0.6-22.1,1.6-33.3,2.6c-11.1,0.9-21.9,1.7-31.3,2.3c-3.3,3-46,4.5-61.1,6.8
								c4-1,6.2-2.6,3.6-3c3.4-0.3,10.2-1.8,17.9-2c1.2,0.4,10.7,0.2,4.7,1.2c21.1-1.8-2.9-1,3.2-2.5c-5.9,0.5-11.1,1-15.9,1.4
								c-4.8,0.5-9.2,0.9-13.3,1.4c-8.2,1-15.3,1.9-22.7,2.7l-0.4-0.3l-11.2,1.2c9.2-0.3,8.8,1.3-3,1.4l1.4-0.2
								c-3.4-0.2-8.6,0.2-14.2,0.5c-5.7,0.3-11.8,0.7-17,0.9l-7.1,1.2c-10.5,0.3-11.1-1.4-14.5-2.3c-8.2,0.3-14.7,0.8-20.6,1.5
								c-5.9,0.7-11.2,1.3-17,1.9c-5.3-0.6-30.1-0.2-17-1.4c-7.4,0.5-10.4,1.7-14.7,2.6c-2.1,0.5-4.6,0.8-8.2,1
								c-3.5,0.1-8.1,0.2-14.5-0.4c2.2-0.3,4.4-0.5,6.6-0.8c-12.2,0.2-27,0.7-40.2,1c-6.6,0.2-12.8,0.3-18,0.4
								c-5.2,0.1-9.5-0.1-12.3-0.3c9-2.5-30.5-2.9-34.8-5.5c1.2,0.6-8,0.7-9.3,1c-2-0.3-5.3-0.6-8.9-0.2c4.8,0.4,3.1,1,2.5,1.4
								c-0.6,0.5-0.1,0.8,9,0.3c-2.3,0.4-4.8,0.8-7.5,1.1c-2.7,0.3-5.7,0.5-9.1,0.7c-6.7,0.4-14.7,0.4-24.8,0.1l0.3-1l16,0.8
								c-1.6-0.8,6.6-0.5,10-0.8c-29.7-1.4,3.9-2.4-26.4-3.1c-3,0.6-1,0.4-8.9,0.4c3.7,0.1,4.4-0.6-1.6-0.8l-5.8,0.7
								c-10.5-2.1,17.6-0.6,8.6-2.1c11.7-0.5,32-0.4,28.3-1.8c-19.1-1-17.3,2-37.3,0.9l-2.1-0.6c-3.5,0.1-5.6,0.4-7.2,0.6
								c-1.7,0.3-2.9,0.6-4.9,0.8c-0.3-0.3-2.1-0.7-6.6-1c-11.9,0.8-19.8,0.7-30.9,1.6c14.6,0.1,20.8,0.7,27.2,1.3
								c3.2,0.3,6.4,0.6,10.7,0.8c2.1,0.1,4.6,0.2,7.4,0.3c2.8,0,6.1,0.1,9.8,0c-2.4,0.1-8.9,0.2-14.9,0.2c-6.1,0-11.7,0.2-12.4,0.9
								l0.3-1c-9.8,0.1-19.7,0.2-31.9-0.8l7.5-0.2c-4.1,0-7.8-0.2-11.3-0.4c-3.5-0.3-6.8-0.7-9.9-1c-6.3-0.7-12.2-1.2-18.7-0.8
								c4.5,0.4,8.2,0.6,11,0.6c-8.4-0.1-18.9-0.9-28.1-1.7c-3.2,0.1-6.3,0.2-9.5,0.2l-9.5,0c0.2-0.5-11.7-1.6-5.9-1.9
								c-13.5-2-20-1-27.9-1.4c-13.8-2.3,12.1,0.6,13.6-0.8c-19.1-2-39.4-4-50.3-4.2c3.9,0.6,5.7,1,5.5,1.3
								c-0.5-0.4-8.3-1.1-12.5-1.6l-3,0.4c-7.1-1.2-6-1.5,0.1-1.4c-6.8-0.8-15.1-0.7-22-2.5c2.9,0.2,6.1,0.5,9.2,0.8
								c3.1,0.3,6.3,0.8,9.2,1.1c5.9,0.7,11.2,1.3,14.2,1.4c-6.1-0.5-10.7-1-14.6-1.6c-3.9-0.6-7.1-1.3-10.6-2
								c-6.9-1.4-14.5-2.9-30-4.5c-0.3-0.4,5-0.3-1-1.1c-6.9-0.8-7.8-0.6-7.6-0.1c0.2,0.5,1.6,1.2-0.6,1.2c10.6,1,15.5,2,21.6,3.7
								l-2.9,0.2c-0.4-0.3-7-1.2-9-1.8l-1.9,0.9c0.5-0.6-1.9-1.4-5.5-2.2c-3.6-0.8-8.3-1.7-12.5-2.1c8.3,2.2,6,1.8,8.1,3.6
								c-11.9-0.5-13.1-3.4-26.4-4c1.1-0.2,12.6,1.2,2.7-0.6c-8.2-1.3-7.3-0.2-12.8-0.7c6.4-0.1,4.9-1.1,11.8-1.3
								c14.6,2.1,5.9,0.9,20.2,2.7l-11.9-2.7c12.4,1.7,9.2,0.2,10.2,0c-20.9-4.3-16.1-0.9-29.7-3.3c-6.7-0.3,12.7,2.1,2.3,1.3
								c-12.7-2.1-3,0.3-17.3-1.8l2.5,0c-4.2-1.4-8.7-1.4-13.7-2.2c-5.6-0.7,5.6,4.7-17.2,0.7c1.2-0.1,1.6-0.2,1.6-0.3l23.7-4.6
								c-5.7-1-11.7-2.1-17.8-3.2c-3.1-0.6-6.2-1.1-9.3-1.7c-3.1-0.6-6.3-1.3-9.5-2c-6.4-1.4-12.8-2.8-19.3-4.3
								c-6.5-1.5-13.1-2.9-19.6-4.6c-2.9-1.6,1.9-0.8,7.2,0.2c5.3,0.9,11.2,2,10.5,1.4l12,2.8c-0.8,0.6-25.3-5-14.7-1.5
								c10.7,1.9,18.4,3.6,26,5.1c1.9,0.4,3.8,0.7,5.7,1.1c1.9,0.3,3.9,0.6,6,0.9c4.1,0.6,8.6,1.2,13.7,1.7c-3-1.4-9.7-2.5-17.2-3.8
								c-7.5-1.3-15.9-3-22.3-4.9c5.5,1.2,10.2,2,14.7,2.7c-6.1-1.4-12.5-2.8-19-4.3c-3.3-0.7-6.6-1.5-10-2.3
								c-1.7-0.4-3.4-0.8-5.1-1.2c-1.7-0.4-3.4-0.9-5.2-1.3l-3.2-0.3c9.3,2.5,15.9,3.8,16.7,4.1c-3.1-0.7-6.1-1.3-8.9-1.8
								c-2.8-0.6-5.3-1-7.5-1.3c-4.4-0.6-7.3-0.8-7.9-0.2l2.2,0.6l-4.6-0.7C447.3,263,444.4,262.3,441.5,261.5z M-130.5-266.1
								c0.3,0.7,0.5,1.3,0.8,1.7C-130-264.8-130-264.2-130.5-266.1z M689.1,297.6c-16.9-2.1-34-4.2-50.2-6.2
								c14.5,2.9,26.9,5.3,29.5,6.4c2.6,1.1-4.5,0.8-29.1-2l-3.2-0.2c1.6,0.3,3.5,0.6,5.6,0.9c2.1,0.3,4.4,0.6,6.8,0.8
								c4.9,0.6,10.2,1.1,15.5,1.6c4.3,0,13.3,0,21.2-0.1c3.9,0,7.6-0.2,10.3-0.3c2.7-0.1,4.3-0.2,4.3-0.3c-2.9-1-7.3-0.5-12.7-1.3
								L689.1,297.6z M700.8,302.8c9.6,1.1,7.5,0.4,9,0c-3.4-0.2-6.8-0.5-10.1-0.7C700.9,302.3,701.5,302.6,700.8,302.8z
								 M709.3,302.2c-1.1-0.1-2-0.2-2.5-0.3L709.3,302.2z M523.1,276.7c0.4,0.1,0.6,0.1,1,0.1c-2.2-0.4-4.5-0.9-6.8-1.3
								C518.1,275.8,519.9,276.1,523.1,276.7z M542.2,281.4l2.4-0.5c-2.1-0.4-4.2-0.8-6.4-1.3C538.8,280.2,539.5,280.7,542.2,281.4z
								 M604.1,294c4.1-0.6,17.3,1.1,18.3,0c0.9-0.2-1.9-0.7-5-1.2c-3.5-0.5-7.2-1-11.1-1.6c-0.2,0.2-1,0.2-2.3,0.2
								c3.9,0.7,6.4,1.3,4.7,1.9c-4.9-1.5-7.2-1.5-9.6-1.3c-1.2,0.1-2.4,0.2-4,0.2c-1.6,0-3.6-0.3-6.3-0.8c-1.8,0.2,1.2,0.9,5,1.5
								C597.7,293.5,602.4,294,604.1,294z M1440.3,286.4c0.3,0.1,1.4,0.2,2.9,0.4l-7.6,1.4c-3.4,0.3-6.7,0.5-9.8,0.6
								c-3.2,0.1-6.2,0.2-9.2,0.3c-6,0.3-11.8,0.8-17.9,2.1c-5.8,0.2-8.9-0.4-11.9-0.8c2.8-0.2,5.4-0.4,7.6-0.5
								c17.1-2.8,21.6-2.6,25.4-2.3c1.9,0.2,3.5,0.4,6.4,0.3C1429.2,288,1433.4,287.6,1440.3,286.4z M1283.3,298.4
								c1.4-0.2,1.9-0.4,1.9-0.4c-30.3,4.4-55.4,6.8-71.9,7.8c3.2,0.7,18.1,0.4,25.1,0.3l-6.1,1.5l-3.9-0.6l-10.7,1.7
								c3.1,0.5,11.8-0.2,17.6-0.1c0.5-0.2,19.1-2.7,24.2-3.7l-14.9,0.3c4,0,23.8-1.6,31.6-2.4c0.1-0.5-13.4-0.4-15.1,0.8
								c-1.7-0.7,13.9-1.7,4-1.9c5.8-0.8,13.4-1.3,20.5-1.8c7.2-0.5,14-0.8,18.3-0.9l1.6,1.2c9.5-0.3,6.3-2.1,17.5-2.3
								c-13.8,1.4,2.4,1.2-8.5,2.2c3.5,0.2,0.2,1.4,11.2,0.4c9-2.5,11.7,0.1,20.2-2.1c5.8,0.1-6.1,1.5,5.3,0.8c6.5-1,9.5-1.7,11-2.3
								c1.5-0.6,1.5-1.1,1.8-1.7c-3.1,0.2-5.4,0.5-7.4,0.8c-2,0.3-3.6,0.6-5.2,1c-3.1,0.7-5.9,1.3-10.9,1.6
								c6.5-1.3,13.1-2.5,19.6-3.8c-3.7,0.1-6.4,0.2-8.6,0.5c4-0.4,7.3-1.1,10.2-1.8c1.6-0.4,3.1-0.8,4.5-1.1
								c-11.2,1.1-21.2,1.8-23,1.5l1.5-0.7c-4-0.2-10.5,0.7-13.4,1.4c-10.1,0.9-20,2.6-22.3,2l3.8-0.9
								C1300.3,296.9,1298.9,297.1,1283.3,298.4z M876.9,308.4c3.7,1.2,7.6,2.4,15,3.3c7.4,1,18.2,1.5,35.8,1.5l-2.8,0.1
								c8.8,0.8,17.5,0.4,26.6,0.1c2.3-0.1,4.6-0.2,6.9-0.2c2.3-0.1,4.7-0.2,7.2-0.2c4.9-0.1,10,0,15.3,0.3
								c-10.4,0.9-9.9,0.8-21.4,2.8l11.2-0.7c-3.1,1.2,8.1,0.5,16.3,0.5l-7.3,1.5c-4.9-0.4-17.7-0.4-17.4-0.1c1.4-0.1-2.8-0.5-8.7-1
								c-5.9-0.4-13.5-0.8-18.9-0.7c1.1,1,23.7,0.8,13.6,2.3c4.5-0.3,7-0.2,9.5,0c2.6,0.1,5.2,0.3,9.8,0.1c-8.9,0.7-2.2,1.4-8.9,2.1
								l15.3-0.4c0.4,0.3-22.2,0.9-9.7,2c6.1-0.6,22.5,0,22.7-1.1l0.4,0.3c11.4,0.2,5-1.5,19.1-1c0.2-0.5-2.5-0.9-7.6-0.7
								c-4.3,0.3-4.9,1-13.7,1.2c-3.9-0.8,10.6,0,4.5-1.3c-3-0.7-23.1,0.8-16.7-0.9l11.4,0.2c0.3-1.1,8.6-1.1,8.3-1.9
								c7-0.4,13.6,0.7,20.7-0.3c1.5-0.4,0.9-0.8,1.5-1.2c0.5-0.4,2.2-0.5,8.1-0.4c9.2,1.4,36.4,0.4,46.5,0l8.9-0.9
								c-0.8-0.6-17,0.5-11.3-0.5l13.9-0.6l-1.1,0.4c4.6,0,9.3-0.7,13.5-1.1c-4.3,0.9-14.3,1-12.3,2c6.5,0,7.5,0.3,13.5-0.1
								c-1.3,0.1-2.4,0.3-2.3,0.4c13.2,0,12.7-1.7,16-2.2c13.2-1.9-13.4-0.8-11.7-2l38.6-2.1c-3.3,0.5-6.6,1-5.3,1.4
								c9.5,0.1,0.3,0.8,13.6,0.3c-1-1.4,16.7-1.8,26.1-3.2c4.4,0.4,5.3,0.5-4.3,1c1.1,0.9,14-0.2,18.6-0.3c2.6-0.4,7.2-0.8,10-1.1
								c-3.9-0.3-2.3-1,6-1.8l0.5-0.2c-13.7,0.5-34.9,0.5-43.4,2l2.4-0.6c-4,0-8.1,0.2-12.1,0.5c-4.1,0.3-8.1,0.6-11.8,0.9
								c-7.5,0.6-14,1-17.6,0.3c0.6-0.8-3.2,0-2.9-1.1l-11.6,1.3l2.4-0.6l-19.8,1l0.5-0.2c-4.7,0.7-8.9,1.2-12.6,1.7
								c-3.7,0.5-7,0.9-10,1.3c0,0.5,0.6,0.6-2.5,1c-3.1,0.3-5.5,0.4-7.7,0.4c0,0,0,0,0,0l0,0c-4.9,0-8.1-0.6-14.1-0.7l18.4-0.5
								c1.5-0.8-0.1-1.6-9.1-1.9c3.7-0.1,5.2-0.8,0.7-0.7c-0.5,0.2-12,0.8-7.6,1.3c-4.4,0.2-9.4,0.2-14.9,0.2c-2.8,0-5.6,0-8.6,0
								c-3-0.1-6.1-0.1-9.2-0.2c-12.6-0.2-26.3-0.3-39.5,0.6c19.1-1-15.3-0.9,5.9-1.4c-14.8-1.2-12.7,1.4-27.8,1
								c-1.3-0.5,8.2,0.2,11.7-0.7c-12.5-0.4-23.1,0-33.5,0.4c-5.2,0.2-10.4,0.4-15.9,0.5c-2.7,0.1-5.5,0.1-8.3,0.1
								c-2.8,0-5.8-0.1-8.8-0.2l-1-1C887.3,308.4,882.2,308.4,876.9,308.4z M829,308c-4.7-0.1-9.4-0.2-14.2-0.3
								c0.5,0,0.9,0.1,1.4,0.1l-14,0.1c8.6,0.8,14.2,2.1,2.1,2.1c1-0.4-2.5-1,1.7-1.1c-4-0.5-10.4-1.1-15.3-1.3
								c-4.8-0.3-8.1-0.3-5.9,0.5c7.8-0.2,8.7,0.3,9.1,0.8c0.5,0.5,0.5,1.1,6.6,0.9c-3.3,0.3-6.6,0.3-9.8,0.2
								c-3.2-0.1-6.4-0.4-9.5-0.3c6.5-0.4-1.4-1.9-11-2.9c-4.2,0-15.6-1-22.6-1.1c2.4,1.1-3.7,1.2,7.7,2.2
								c-4.2-0.1-10.7-0.3-17.9-1.3c2.9,0.1,7.9,0.3,7.6-0.1c-2.3-0.6-4.8-0.9-7.1-1.2c-2.3-0.3-4.4-0.6-5.9-0.9
								c-2.4-0.2-4.8-0.3-7.2-0.5c0.7,0.1,1.3,0.3,1.7,0.5l-8,0.1c10.7,0.5,4.9,0.8,4.7,1.4c0.4-1-6.8-0.7-10.5-1l7.8,1.8
								c-3.9,0.2-13.4-2-11.5-0.7c8.4,1,14.2,1.5,19.8,2c2.8,0.2,5.6,0.4,8.6,0.6c3,0.2,6.3,0.3,10.1,0.5l-6.1-1.3
								c17.2,0.5,10.5,2.2,29.7,3.4c4-0.1,11.3,0.3,17.6,0.6c6.3,0.2,11.6,0.2,11.9-0.5c-2.4,0.4,11.9,2,18.6,1.6
								c7.4-1.1,29.4-0.3,22.8-1.2c-6-0.3-14,0.1-18.8-1l11.6,0.2l-7.5-1.1C831.1,310,830.8,309.2,829,308z M573.1,274.7
								c-0.1,0-0.3-0.1-0.4-0.1C572.8,274.6,573,274.7,573.1,274.7L573.1,274.7z"/>
							<path class="st1" d="M1609.8,263.2c3.2-0.8,11.4-1.8,9.7-2.4C1619.9,261.6,1605,262.9,1609.8,263.2z"/>
							<path class="st1" d="M1619.7,262.7c0.5-0.3,0.1-0.5,3.8-1.1l-10,1.6L1619.7,262.7z"/>
							<path class="st1" d="M1630.7,267.1c5.1-1.3,8.4-2.1,16.5-3.1c3.3,1.7-13.3,2.3-16.7,4.8c15-1.8,19.3-4.2,31.6-6
								C1655.9,262.7,1630.9,265.5,1630.7,267.1z"/>
							<polygon class="st1" points="1624.4,270.6 1632.6,269.1 1631.8,269 1623.5,270.6 							"/>
							<path class="st1" d="M1442.1,274.1c-0.8-0.6-5.9,0.6-8.7,1.1C1435.7,275,1438.8,274.8,1442.1,274.1z"/>
							<path class="st1" d="M-60.3-93.1c-9.5-18.6-18-37.7-25.4-57.2c0.8,2.1,1.5,4.2,2.4,6.3c0.8,2.1,1.7,4.1,2.5,6.2
								c1.7,4.2,3.4,8.5,5.5,13c1,2.3,2,4.6,3.1,7c1.1,2.4,2.2,5,3.5,7.5c1.3,2.6,2.6,5.3,4,8.2C-63.4-99.2-61.9-96.2-60.3-93.1z"/>
							<path class="st1" d="M1231.5,296.3c17.1-1.8,24.6-3.4,42-4.9c-23,0.3-30.1,4.1-49.4,4.1L1231.5,296.3z"/>
							<path class="st1" d="M1237.1,290.7c2.9,1-13.1,2.3-10.6,3.1c11.5-1.1,5.3-1.5,15.7-2.1L1237.1,290.7z"/>
							<polygon class="st1" points="1316.2,305.2 1311,306.2 1315.2,305.6 							"/>
							<polygon class="st1" points="1159.3,296.4 1161.2,296 1152.6,296.1 							"/>
							<path class="st1" d="M1163.1,295.6l-1.9,0.4L1163.1,295.6z"/>
							<polygon class="st1" points="1309.7,308.3 1317.4,308 1321.2,307.1 							"/>
							<path class="st1" d="M1241,306.8l6.9-0.9C1246.5,306.1,1237.1,306.2,1241,306.8z"/>
							<polygon class="st1" points="1106.9,298.1 1098.5,298.9 1099.4,298.9 1107.7,298.2 							"/>
							<path class="st1" d="M1187.1,313.5c4.8,0.7-13.8,1-3.9,1.3C1191.9,314.1,1188.4,313.8,1187.1,313.5z"/>
							<path class="st1" d="M1085.2,311.6c-1.1,0-2.3,0.1-3.5,0.3C1083.1,311.8,1084.3,311.7,1085.2,311.6z"/>
							<path class="st1" d="M1085.2,311.6c3.7-0.1,7.3,0.1,9.8-0.3C1090.5,311.1,1088.9,311.3,1085.2,311.6z"/>
							<path class="st1" d="M1043.2,312.9l3.3,0c-3.4,0.5-1.8,0.4,1.2,0c3.5-0.1,3.3-0.4,3.7-0.6c0.7-0.1,1.4-0.3,2.2-0.4
								c-1.1,0.2-2.1,0.3-2.9,0.4C1045.4,312.3,1042,312.5,1043.2,312.9z"/>
							<path class="st1" d="M887.5,297c12.2,0.7,15.4,0.9,14.7,1.6c11.6,0.4,9.8-0.9,16.8-1.1C905.9,297.5,903.2,297.2,887.5,297z"
								/>
							<path class="st1" d="M919,297.5c1.5,0,2.9,0,4.6,0C921.7,297.4,920.3,297.4,919,297.5z"/>
							<polygon class="st1" points="1092.6,319.5 1085,321 1087.8,320.7 							"/>
							<path class="st1" d="M869.4,296.1c2.3,0.1,5.9,0.2,7.7,0.5C877.8,295.9,867.2,296,869.4,296.1z"/>
							<path class="st1" d="M916.3,311.5c1.2,0.5,9.1,0.3,12.3,0.5C924,311.8,920.3,310.4,916.3,311.5z"/>
							<path class="st1" d="M834.3,297.9c2.3,0.2,5.7,0.8,4.2,1.3C841.8,299,846.3,298,834.3,297.9z"/>
							<path class="st1" d="M893.9,311l1.7,0.3c2.8-0.1,5.6-0.1,8.4-0.3C900.7,311.1,897.3,311,893.9,311z"/>
							<path class="st1" d="M923.7,322.2c9.5-0.8-15-2.3,1.3-2.8c-21-1.1,1.6,1.3-13.9,0.9C920.2,320.7,924.6,321.9,923.7,322.2z"/>
							<path class="st1" d="M911.1,320.3c-1.3-0.1-2.8-0.1-4.3-0.1C908.5,320.2,909.9,320.3,911.1,320.3z"/>
							<path class="st1" d="M778.2,309.7c1.4,0,2.3,0,3.2-0.1C780.3,309.7,779.3,309.7,778.2,309.7z"/>
							<path class="st1" d="M861.5,319.8l14.2-0.9c-9.5,0.6-33.4-0.1-31.9,1.2c7.7,0.5,17,0.4,20.9,0L861.5,319.8z"/>
							<path class="st1" d="M700.9,286.4l6.1,0l-7.6-0.8C701.6,285.9,697.6,286.6,700.9,286.4z"/>
							<path class="st1" d="M698,285.4l1.5,0.2C699.1,285.5,698.7,285.4,698,285.4z"/>
							<path class="st1" d="M805,310.6c4.6,0.3,8.2,0.4,12.4,0.4C815.7,310.7,804.3,309.9,805,310.6z"/>
							<polygon class="st1" points="658.1,283.8 668.1,284.7 657.2,283.6 							"/>
							<polygon class="st1" points="611.9,275.9 610.2,275.4 601.9,274.8 603.6,275.3 							"/>
							<path class="st1" d="M670,308.7c6.8,0.9,12.3,0.3,10.5-0.1l-13.3-1.4c3.3,1.4,3.7,0.4,11.3,1.5L670,308.7z"/>
							<path class="st1" d="M276.3,193.9c3,0.5,16.1,6.1,16.6,7c-1.9-0.5-9.2-3.1-4.8-0.9l5.6,1.3c1.9,0.4,3.7,0.9,5.6,1.2
								c6.9,3.1,4,2.6-1.5,1.1c-5.5-1.6-13.5-4.4-17.1-5.5c7.1,2.9,11.8,4.6,16.7,6.2c4.9,1.5,9.9,3,17.6,5.8
								c-4.5-1.8-7.2-3.2-9.5-4.4c-0.1-1.3,14,4.4,24.3,8c-3.2-1.3-3.8-1.9-3-1.8c0.4,0,1.1,0.2,2.1,0.4c1,0.2,2.1,0.5,3.4,0.7
								c0.9,0.2,1.5,0.4,1.9,0.4c0.6,0.1,1.1,0.3,1.7,0.4l-1.2-0.4c0.1-0.1-0.1-0.3-0.9-0.8c-4.4-1.2-8.1-2.8-11.5-4.2
								c-3.3-1.4-6.3-2.8-9-3.8c4.8,3.8-19-6.3-26-8.7l-8-3l-3-1.2c-0.5-0.4,0.4-0.3,5.1,1.1c-3.9-1.2-16.4-6.3-15.5-5.3l-14.1-6.2
								l-7.1-3.1l-3.5-1.5l-1.8-0.8l-1.7-0.8c-0.8-0.5-1.7-1-2.2-1.4c-1-0.4-1.2-0.3-1.1-0.2c-40.5-18.9-79.6-40.9-116.1-66.5
								c5.3,3.9,9.8,7.4,15.4,11.4c-9.2-4.7,9.1,6.5,6,5.8c-4.1-2.2-9.6-6.1-12.7-8.6c-1.6-0.3,2.9,3.3,1.9,3.6
								c3.4,2.5,6.2,4.4,8.7,5.9c2.5,1.4,4.7,2.5,7,3.5c4.4,2.1,8.8,4.1,15.7,8.6c-0.5,0.1-1.9-0.3-2-0.1c-0.1,0.1,0.2,0.4,1,1
								c0.4,0.3,1,0.7,1.8,1.2c0.8,0.5,1.7,1,2.9,1.7l-2.5-1.2c15.5,7.9,11,8.2,21.4,11.9l-0.8,0.8c0.9,0.4,1.9,0.9,3,1.4
								c1.1,0.5,2.3,1,3.5,1.6c2.4,1.1,5.1,2.4,7.7,3.8c5.3,2.7,10.6,5.4,14.5,7.3l-0.5-0.1c11.2,4.8,14.3,6.1,17.7,7.8
								c1.7,0.8,3.5,1.7,6.4,3.1c1.5,0.7,3.2,1.6,5.4,2.5c2.2,0.9,4.8,2,7.9,3.3l-6-2c-2-0.7-4-1.3-6-2c2.1,1.2,3.8,1.9,5.3,2.5
								c1.5,0.6,2.8,1,4,1.4c2.4,0.8,4.6,1.4,7.7,2.8c-0.5,0,0.6,1.3-5.3-1.1l15.6,5.8c1.3,0.5,2.6,1,3.9,1.4l3.9,1.3l7.9,2.6
								C286.2,198.3,277.3,194.8,276.3,193.9z"/>
							<path class="st1" d="M315,210.3c1.6,0.7,3.5,1.4,5.7,2.1C318.6,211.6,316.7,210.9,315,210.3z"/>
							<path class="st1" d="M110.7,101.7l7.6,5.5C115.9,105.4,113.5,103.6,110.7,101.7z"/>
							<path class="st1" d="M360.7,223.3c-2.6-1.2-1.6-1,0.3-0.6c1.9,0.4,4.6,1,5.1,1c-1.6-0.5-3.3-0.9-4.9-1.5l-4.9-1.6l-9.8-3.2
								c0,0.4-2.1,0.2-1.8,0.7L360.7,223.3z"/>
							<path class="st1" d="M341.2,214.9c-0.7,0.1-2.9-0.4-5.3-0.9l10.7,3.5C346.6,217.2,345.5,216.5,341.2,214.9z"/>
							<polygon class="st1" points="336.4,236.2 332.9,235 327.5,233.6 							"/>
							<path class="st1" d="M282.5,214.9c1.9,1.1,4.9,2.3,7.7,3.4c2.8,1,5.5,1.8,6.9,2.2C288,217.2,292,218.4,282.5,214.9z"/>
							<path class="st1" d="M291.3,225.4c-3-0.9-5.9-2-8.9-3.1l0.8,0.4C285.9,223.7,288.6,224.6,291.3,225.4z"/>
							<path class="st1" d="M54.3,60.9c-1.1-1-2.2-2-3.3-3C52.5,59.3,53.5,60.2,54.3,60.9z"/>
							<path class="st1" d="M115.8,109.3c-8.4-6.9-5.4-5-0.9-2c1.1,0.7,2.3,1.6,3.5,2.3c1.2,0.7,2.3,1.4,3.3,1.9
								c1.8,1,2.8,1.3,1.6,0l-5-3.1l-4.9-3.3l1,0.3l-11.7-8.4c2,2.3,3.7,3.7,2.8,3.9c-3.8-2.9-6-4.6-7.3-5.7c-1.3-1.1-1.7-1.6-1.9-2
								c-0.5-0.8-0.5-1.2-5.7-6c-5.6-4.4-11.3-8.7-16.7-13.5l1.5,1c-1.4-1.2-2-1.6-2.6-1.9L66,66.8l-3.4-2.9c-1.2-1-2.2-2-3.3-3
								L45.9,48.6c-8.5-8.5-17.1-16.9-25.1-25.8c-9.3-9.3,3.9,6.3-3.4-0.2c2.6,2.8,5.4,6,8.3,9.2c0.7,0.8,1.4,1.6,2.1,2.4
								c0.7,0.8,1.5,1.5,2.2,2.3c1.5,1.5,2.9,3,4.2,4.4c5.4,5.5,9.7,9.7,10.8,9.6c-0.5-0.2-1.5-0.6,0.6,1.6l7.3,5.2l-5.9-6
								c1.8,1.3,4.5,3.5,7.5,6.2c1.5,1.3,3.1,2.8,4.7,4.2c0.8,0.7,1.6,1.5,2.5,2.2c0.8,0.7,1.7,1.5,2.5,2.2
								c6.7,5.8,13,11.6,14.7,13.5c-6.3-5.2-8.1-6.1-10.5-7.8C67.3,71,66,70,64,68.3c-1-0.9-2.2-1.9-3.7-3.2c-1.4-1.4-3.1-3-5.1-5.1
								c0.5,1,3.1,4.3-0.8,0.9c4.9,4.6,9.9,8.7,14.7,12.9c2.4,2.1,4.9,4.2,7.3,6.3c2.4,2.1,5,4,7.5,6c2.5,2,5,4,7.6,6
								c2.5,2,5.1,4,7.8,5.9C104.5,101.7,110,105.5,115.8,109.3z"/>
							<path class="st1" d="M-59.4-88.9l0.2,0.1C-59.5-89.2-59.6-89.3-59.4-88.9z"/>
							<path class="st1" d="M-55.5-80.9c2.4,3.6,5,7.1,7.5,10.7l-5-8.8c-1.6-2.9-3.1-6-4.7-8.9l-1.6-0.8c1.1,1.5,4.7,7.6,5.7,10.1
								C-54.2-79.4-54.8-80.1-55.5-80.9z"/>
							<path class="st1" d="M-39.6-57.7c-5.8-8.7-6.5-7.6-4-2.5c-2.8-3.9-3-5.3-3.3-6.1c-0.2-0.9-0.4-1.4-2.5-4
								c-0.3,0.3,1.1,3,2.7,5.9c1.7,2.9,3.8,5.9,4.5,7L-39.6-57.7z"/>
							<polygon class="st1" points="4.2,5.3 1.9,3.4 6.5,9 							"/>
							<path class="st1" d="M1.9,3.4C0.4,1.6-1-0.4-2.5-2.3c0,0.6,0,1.2,0.6,2.3L0,1.8L1.9,3.4z"/>
							<path class="st1" d="M-13.6-17.4c-1.7-2.5-3.6-5.3-5.9-8.6L-13.6-17.4z"/>
							<path class="st1" d="M-8.9-10.7l0-0.3c-1.6-2.1-3.2-4.2-4.7-6.4C-12-14.9-10.4-12.9-8.9-10.7z"/>
							<path class="st1" d="M-2.5-2.3c-0.1-1.4-0.2-3-6.7-11.1l0.2,2.4L-2.5-2.3z"/>
							<path class="st1" d="M228.8,198.1l-7.8-3.2l0.8,0.5l7.8,3.2C229.3,198.4,229,198.2,228.8,198.1z"/>
							<path class="st1" d="M185.3,175.6c-1.9-0.8-3.4-1.4-4.8-2C182.5,174.6,184.2,175.3,185.3,175.6z"/>
							<path class="st1" d="M150.7,162.8c-4.1-2.9-1-1.4,1.2-0.4c1.1,0.5,1.9,0.9,1.5,0.5c-0.2-0.2-0.7-0.5-1.7-1.1
								c-1-0.6-2.4-1.4-4.4-2.7c-0.5-0.8,1.2-0.2,4,1.1c2.8,1.3,6.7,3.3,10.4,5.6c-1,0.3-7.6-3.8-3.3-0.5c5.5,2.2,7.1,3.7,5.9,1.8
								c8.8,4.2,10.1,4.2,16.3,6.6c-1.3-0.6-2.8-1.4-4.5-2.2c-1.6-0.8-3.3-1.9-5.2-2.9c-3.6-2.1-7.7-4.4-11.8-6.8
								c-8.3-4.6-16.7-9.9-23.4-13.3c-7.7-3.2-4.4,0.9-5.5,2.5c0.4,0.5,5.2,3.7,10,6.6c2.4,1.5,4.8,2.9,6.7,3.9
								C148.9,162.4,150.3,163,150.7,162.8z"/>
							<path class="st1" d="M163.5,172.3c4,2.4,5.3,3,7.8,4.3C170.9,175.7,166.7,174.1,163.5,172.3z"/>
							<path class="st1" d="M83,101.6c-0.8-0.3-7.5-5.2-6.4-3.8l10,7.6C84.3,103.6,83.7,102.7,83,101.6z"/>
							<path class="st1" d="M91,108.7c-1.5-1-3-2.1-4.5-3.2c0.5,0.4,1.1,0.9,1.9,1.5C89.2,107.4,90,108,91,108.7z"/>
							<path class="st1" d="M82.6,101.1c0.1,0.2,0.2,0.3,0.4,0.5C83.1,101.7,83.1,101.6,82.6,101.1z"/>
							<path class="st1" d="M-30.1-42.1c0.5-0.2-2.7-4.5-4.3-6.7C-33.3-46.9-31.7-44.3-30.1-42.1z"/>
							<path class="st1" d="M-110.4-230.6l-0.7-4.8C-110.9-233.7-110.8-232.9-110.4-230.6z"/>
							<path class="st1" d="M-139.1-302.1c-0.1-0.1-0.3-0.5-0.4-0.9C-139.4-302.5-139.3-302.2-139.1-302.1z"/>
							<path class="st1" d="M-139.6-303c-1-3.2-2.1-13.6-3.3-17.2l0.3,0.4l-1.5-6.8C-143-320.1-140.8-306.6-139.6-303z"/>
						</g>
					</g>
				</g>
			</g>
		</g>
	</g>
</g>
<g id="圖層_3">
</g>
</svg>
