<?xml version="1.0" encoding="utf-8"?>
<!-- Generator: Adobe Illustrator 22.0.1, SVG Export Plug-In . SVG Version: 6.00 Build 0)  -->
<svg version="1.1" xmlns="http://www.w3.org/2000/svg" xmlns:xlink="http://www.w3.org/1999/xlink" x="0px" y="0px"
	 viewBox="0 0 1367 462" style="enable-background:new 0 0 1367 462;" xml:space="preserve">
<style type="text/css">
	.st0{fill:#FFC536;}
	.st1{fill:#2D6042;}
	.st2{fill:#426F55;}
</style>
<g id="Group_202">
	<path class="st0" d="M0,0v231c0,0,82.8,82.9,289.8,82.8c288,0,284-183,606.1-183C1189.9,130.8,1367,0,1367,0H0z"/>
</g>
<g id="圖層_2">
	<path class="st1" d="M916,0h451v361c0,0-94-47.4-123-110C1168,87,1032,19,916,0z"/>
</g>
<g id="圖層_3">
	<g>
		<g>
			<g>
				<g>
					<g>
						<path class="st2" d="M1438.3,392.8c2.6,3.1,2.4,2.5,0.8,0.2c-1.6-2.3-4.5-6.2-7.2-9.9l-6.1-5.6L1438.3,392.8z"/>
						<path class="st2" d="M1410.2,358.2l-15.9-15.8l11.3,11.6c2.9,3.4,4.2,5.1,4.4,5.6c0.2,0.5-0.6-0.2-1.9-1.5
							c-2.7-2.6-7.4-7.4-9.7-9.9c5,5.4,8,8.5,9.7,10.2c1.8,1.7,2.2,2,2.3,1.7C1410.3,359.7,1408.4,356.7,1410.2,358.2z"/>
						<path class="st2" d="M1379.5,326.6c-10.1-10.2-7.9-6.8-3.8-2.3c0.5,0.2,2.4,1.9,3.8,3C1380.8,328.3,1381.5,328.8,1379.5,326.6
							z"/>
						<path class="st2" d="M553.3,273.4c3.8-1.4,8.2-3.1,7.7-2.6C565,268.9,565.8,268.3,553.3,273.4z"/>
						<path class="st2" d="M560.9,270.8c-0.8,0.4-1.6,0.8-2.6,1.3c0.8-0.4,1.5-0.7,2.5-1.1C561,270.8,560.9,270.9,560.9,270.8z"/>
						<path class="st2" d="M836.4,185.2c3.9-1,7.3-1.9,10.6-2.7c3.2-0.8,6.3-1.4,9.3-2.1c3-0.7,6-1.2,9.2-1.9
							c3.2-0.6,6.5-1.3,10.2-2.1c2.8-0.2,5.7-0.4,8.5-0.5c16.1-3,7-2.1,18.7-4.4c7.4-0.8,19-2.3,29.5-3.5c10.6-1.2,20.2-2,23.7-2.3
							c2.5,0.1,1,0.3-1.5,0.6c-2.4,0.3-5.8,0.7-6.9,1c9.5-1,14-1.5,19-2.1c5-0.5,10.6-1.1,22.6-1.3l0.4,0.3
							c28.5-1.1,60.9,0.3,93.6,5.6c16.4,2.6,32.8,6.1,48.8,10.3c16,4.3,31.7,9.3,46.5,14.8c-4-1.6-2.9-1.4-4.4-2.2
							c3.9,1.5,7.9,3,11.8,4.6c3.9,1.6,7.9,3.3,11.9,5c7.9,3.6,15.9,7.1,23.7,11.1c3.9,1.9,7.9,3.9,11.7,6c3.9,2.1,7.8,4.1,11.6,6.2
							c3.8,2.2,7.6,4.4,11.3,6.5l2.8,1.6l2.8,1.7c1.8,1.1,3.7,2.3,5.5,3.4c7.4,4.4,14.4,9.2,21.4,13.8c3.4,2.3,6.8,4.7,10.1,7.1
							c1.7,1.2,3.3,2.3,5,3.5c1.7,1.1,3.2,2.4,4.8,3.5c3.2,2.4,6.3,4.7,9.4,6.9c1.6,1.1,3.1,2.3,4.5,3.4c1.5,1.2,3,2.3,4.4,3.4
							c2.9,2.3,5.8,4.5,8.6,6.6c2.7,2.2,5.4,4.4,8,6.5c-1.7-1.5-3.5-3.1-5.4-4.7c-0.9-0.8-1.9-1.6-2.8-2.5c-1-0.8-2-1.6-3-2.5
							c-4-3.3-8.3-7-12.7-10.6c-4.5-3.6-9.2-7.3-13.9-11c-4.9-3.6-9.8-7.3-14.8-10.9c-5.1-3.5-10.2-7-15.2-10.4
							c-5.1-3.3-10.2-6.4-15.2-9.5c-5-2.9-9.9-5.7-14.6-8.2c-4.7-2.5-9.2-4.7-13.4-6.7c-2.9-1.9-6.4-3.6-10-5.4
							c-1.8-0.9-3.6-1.8-5.4-2.7c-0.9-0.4-1.8-0.9-2.7-1.3c-0.9-0.4-1.8-0.8-2.7-1.2c-7-3.2-13.1-6.1-15.6-7.6
							c-24.3-10.6-42.3-16.1-60-20.7c-2.2-0.6-4.5-1.1-6.7-1.7c-1.1-0.3-2.2-0.6-3.4-0.8c-1.1-0.2-2.3-0.5-3.4-0.8
							c-4.6-1-9.2-2.1-14.2-3c-2.5-0.5-5-1-7.5-1.5c-2.6-0.5-5.2-0.9-8-1.4c-1.4-0.2-2.8-0.5-4.2-0.7c-1.4-0.2-2.9-0.4-4.3-0.7
							c-2.9-0.4-6-1-9.1-1.4c-7.2-1.2-3.6-1.2-5.6-2c3.3,0.4,6.7,0.8,10,1.3l10,1.5l10,1.8c3.3,0.6,6.6,1.3,9.9,2
							c-4-0.9-8-1.9-12-2.7c-4-0.8-8.1-1.7-12.1-2.4c1.3,0.2,2.9,0.4,4.6,0.6c1.7,0.3,3.6,0.6,5.6,1c2,0.4,4,0.7,6.1,1.1
							c2.1,0.4,4.1,0.8,6.1,1.3c2,0.4,4,0.8,5.8,1.2c1.8,0.4,3.5,0.7,5,1.1c3,0.6,5.1,1,5.9,0.9c-17.3-3.8-39.9-8.3-62.2-10.8
							c-2.8-0.3-5.6-0.6-8.3-0.9c-2.8-0.3-5.5-0.5-8.2-0.7c-5.4-0.5-10.7-0.7-15.8-1c-5.1-0.2-10-0.3-14.5-0.4
							c-4.6,0-8.8,0-12.7,0.1c14.5,0.4,32.6,0.9,49.7,2.7c3.7,0.6,8.5,1.3,12.2,1.9c3.7,0.7,6.4,1.2,6,1.4
							c-6.1-0.7-12.1-1.2-17.9-1.7c-5.9-0.4-11.7-0.9-17.4-1.2c-11.4-0.7-22.7-0.9-33.9-1c-11.3-0.1-22.6,0.3-34.2,0.8
							c-11.6,0.7-23.5,1.6-36,3c-12.5,1.4-29.5,3.8-31.6,3.7c8.2-1.4,1.9-0.9,8.6-2.1c-8.8,1.5-9.2,2-10.5,2.6
							c-0.7,0.3-1.6,0.6-4,1.1c-2.3,0.5-6.1,1.2-12.5,2.2c1-0.8,2-1.5,3-2.2c-2.5,0.8-5.6,1.7-9.3,2.4c-3.7,0.7-7.8,1.5-12.2,2.3
							c-8.8,1.6-18.5,3.4-27.4,6c-3.3,0.4-2-0.2,1.8-1.2c1.9-0.5,4.5-1.2,7.4-1.9c2.9-0.7,6.3-1.4,9.7-2.2c-3.9,0.8-7,1.4-9.5,2
							c-2.5,0.6-4.5,1.2-6.4,1.7c-3.8,1.1-7.2,2.1-13.5,3.6c3.8-1.4,7.6-2.9,11.5-4.2c-13,4.5-23.8,5.5-31.5,7.1
							c-0.8,0.6,6.4-0.2-10.1,4.2c-7.1,1.8-3.6,0.4-5.3,0.7c-0.8,0.6-6.6,2.9-17.4,6.2c-1.1,0.1,0.7-0.7,2.8-1.5
							c2.1-0.8,4.5-1.7,4.8-2.1c-4.1,1.2-7.8,2.3-11.2,3.4c-3.4,1-6.6,1.9-9.6,2.6c-14.3,4.9,1.1,0.4-7.5,3.7
							c-22.1,6.8-2.7-0.9-11.2,0.8c8.2-3,17.7-6.3,26.2-9.1c4.3-1.4,8.3-2.7,11.8-3.8c3.5-1.1,6.5-2.1,8.8-2.8
							c-10.7,3.2-21.4,6.5-32,10c1.8-1.2-21.9,6-5.2,0c-16,4.8-33.5,10.8-50.7,17.2c-17.2,6.3-34,13-48.9,19.1
							c4.3-1.5,9.8-3.5,9-2.8c-15.3,6.3-13.9,5-17.2,5.9c-11.3,4.9-9.6,5.3-16.3,8.8c-23.8,8.7-26.9,10.6-47.2,17.7l1.6,0.4
							c-14.4,5.1-15.9,7.4-31.3,13.2c-0.9,0.2,4.8-2.5,9.4-4.7c-13.3,5.9-12.7,4.4-25.7,10.2l10-5.4c-10.4,4.4-25.6,11.1-20.6,8
							c-8.9,4.3-21.4,9.7-34.5,15.1c-6.6,2.7-13.3,5.4-19.8,8.1c-1.6,0.7-3.2,1.3-4.8,2c-1.6,0.6-3.2,1.2-4.7,1.8
							c-3.1,1.2-6.1,2.4-9,3.5l1.2-1.4c-1.4,0.7-3.2,1.4-5.2,2.2c-1,0.4-2.1,0.8-3.2,1.3c-0.6,0.2-1.1,0.4-1.7,0.7
							c-0.6,0.2-1.2,0.4-1.8,0.6c-4.9,1.6-10.4,3.4-15.8,5.1c-1.4,0.4-2.7,0.9-4.1,1.3c-1.3,0.4-2.7,0.8-4,1.1
							c-2.6,0.8-5.2,1.5-7.6,2.2c-4.7,1.4-8.7,2.7-11.3,3.7l-1.9,0.1l-12.2,3.4c-4.1,1.1-8.1,2.3-12.2,3.2c-11.3,2-7.7,0-8.5,0.6
							c-3.1,0.6-6.1,1.2-9,1.8c-2.9,0.5-5.8,0.9-8.6,1.4c-2.8,0.4-5.5,0.9-8.1,1.3c-2.6,0.4-5.2,0.9-7.7,1.1c-5,0.5-9.7,1-14.2,1.5
							c-2.2,0.2-4.4,0.5-6.5,0.6c-2.1,0.1-4.2,0.2-6.2,0.3c-3.9,1.5-30.3,3.9-51.4,3.8c-50.7-0.3-103.3-6.2-153.8-17.6
							c-25.2-5.7-50-12.7-73.7-21c-23.7-8.3-46.3-18-67.3-29c-12.4-6.7-29.8-15.9-43.5-27.5c2.1,1.8,3.9,3.4,5.6,4.9
							c0.8,0.7,1.6,1.4,2.4,2c0.8,0.6,1.5,1.2,2.3,1.7c1.4,1.1,2.8,2.1,4,3c1.3,0.9,2.5,1.7,3.8,2.5c2.5,1.6,4.9,3.3,8,5.1
							c3,1.8,6.5,4.1,11.2,6.6c13.8,8.2,18.7,11.7,30.9,18.4c-2-1.2-4-2.6-6-3.9c5,2.2,8.4,3.6,10.8,4.7c2.5,1.1,4,1.9,5.4,2.6
							c2.9,1.4,5.3,2.4,13.4,5.2L1.5,310c5.9,1.6,19.9,7.5,25.7,9.9l5.7,0.8c6.4,2.5,11.7,4.3,15.9,5.9c2.1,0.8,3.9,1.5,5.4,2.1
							c1.5,0.6,2.8,1.2,3.7,1.7l-1-1.3c1.2,0.5,5,1.7,9.7,3.1c4.7,1.4,10.5,2.8,15.5,4.2c2.5,0.7,4.9,1.3,6.9,1.8
							c2,0.5,3.7,1,4.7,1.3c2.2,0.7,2,0.9-2,0.4c2,0.3,3.9,0.6,6.3,1c2.5,0.4,5.5,1.1,9.8,1.9l1.1,1.2c12.4,2.4,26.2,4.5,29.7,5.7
							c-6.8-0.9-9.1-0.9-11.4-0.9c3.3,0.6,6.2,1.1,8.8,1.5c2.6,0.4,4.9,0.8,6.9,1.1c4,0.5,6.9,0.8,9.1,1c4.3,0.3,5.5,0.1,6.6-0.2
							c1.1-0.3,2-0.5,5.5-0.5c1.8,0,4.2,0.2,7.6,0.5c1.7,0.2,3.7,0.4,6,0.6c1.1,0.1,2.4,0.2,3.6,0.4c1.3,0.1,2.7,0.2,4.1,0.3
							l-0.6,0.6l11.9,0.3c4.1,0.7,8.3,1.1,12.4,1.6c8.5-0.6,25,0.3,42.9,0.3c4.5,0,9.1,0,13.6,0c4.6-0.2,9.1-0.3,13.5-0.5
							c2.2-0.1,4.4-0.2,6.5-0.3c2.1-0.1,4.2-0.3,6.3-0.5c4.1-0.4,7.9-0.8,11.5-1.2c1.4-0.1,2.8-0.2,4.3-0.3c1.5-0.1,3.1-0.3,4.7-0.4
							c3.3-0.3,6.8-0.5,10.7-0.8c1.9-0.2,3.9-0.3,6-0.5c2.1-0.1,4.2-0.5,6.5-0.8c4.5-0.6,9.4-1.3,14.6-2.1l-1.5-0.8
							c1.1-0.1,2.3-0.2,3.7-0.4c1.4-0.2,3-0.4,4.6-0.7c3.4-0.5,7.3-1.2,11.6-1.8c2.1-0.3,4.4-0.7,6.6-1.1c2.3-0.5,4.6-0.9,7-1.4
							c4.8-1,9.7-2,14.6-3c4.9-1.1,9.8-2.3,14.5-3.4c4.7-1.1,9.3-2.1,13.3-3.3c8.2-2.2,15.1-3.9,19.1-4.6c14.9-6.3-1.7,0.4-1.6-0.5
							c29.4-11.6,31.7-11.3,47.2-16.8c17.7-7.7-13.8,5.2-4.5,0.6c13.8-5.2,19.2-7.8,25.5-10.7c6.2-2.9,13.2-6.2,30.1-12.9
							c3.5-0.9-8.5,4-11.8,5.8c23.3-10.8,67.4-28.8,102.6-43.1c20.3-7.7,45.5-17.3,71.7-26.4c26.2-9.2,53.6-17.9,78-24.5l0.8-0.6
							c20.4-5,42.2-11.7,66.3-16.6L836.4,185.2z"/>
						<path class="st2" d="M1136,174l-3.7-1.9c-1.9-0.5-3.8-1-5.7-1.4l-5.7-1.3l-5.7-1.2l-5.8-1.1c2.3,0.7,4.3,1.2,6.3,1.7
							c1.9,0.5,3.8,1,5.8,1.4c2,0.5,4.1,0.9,6.4,1.5C1130.2,172.4,1132.8,173.1,1136,174z"/>
						<path class="st2" d="M1130.5,175.1c4,1,7.9,1.8,11.9,2.9c-3.1-1-6.3-1.8-9.5-2.7c-3.2-0.9-6.4-1.7-9.6-2.5l3.6,1.1
							L1130.5,175.1z"/>
						<path class="st2" d="M837.5,176.6l3-0.5c14.4-3.5,28.9-6.7,43.5-9.5C868.5,169.5,852.9,172.9,837.5,176.6z"/>
						<path class="st2" d="M554.4,272c4.5-2.4,11.4-5,16.1-7.3l-19,8.4L554.4,272z"/>
						<path class="st2" d="M365.5,334.3c-7.3,2.9-15.2,2.9-4.8,2.3C372.7,334.1,362.1,335.5,365.5,334.3z"/>
						<path class="st2" d="M320.3,343.6c3.5-0.4,6.2-0.7,8.6-1.1c2.3-0.4,4.2-0.8,6.1-1.2c-2.3,0.2-4.1,0.4-5.5,0.6
							c-1.4,0.2-2.5,0.3-3.4,0.5C324.2,342.7,322.9,343.1,320.3,343.6z"/>
					</g>
				</g>
			</g>
		</g>
	</g>
</g>
</svg>
