<?xml version="1.0" encoding="utf-8"?>
<!-- Generator: Adobe Illustrator 22.0.1, SVG Export Plug-In . SVG Version: 6.00 Build 0)  -->
<svg version="1.1" xmlns="http://www.w3.org/2000/svg" xmlns:xlink="http://www.w3.org/1999/xlink" x="0px" y="0px"
	 viewBox="0 0 300 560" style="enable-background:new 0 0 300 560;" xml:space="preserve">
<style type="text/css">
	.st0{opacity:0.16;fill:#2D6042;}
	.st1{fill:#2D6042;}
</style>
<g id="圖層_1">
</g>
<g id="圖層_5">
	<path class="st0" d="M-22,236c0,0,81-30.4,144.6-136.9S253-17,253-17H-22V236z"/>
</g>
<g id="圖層_2">
	<path class="st1" d="M-48-22h379v135c0,0-36.8,22-74.8,15c-55.7-10.3-105.1-85.7-187.5-86.9C-10,40-48,104-48,104V-22z"/>
	<path class="st0" d="M315,405c0,0-78.3,22.6-139.9,102S49,593.5,49,593.5h266V405z"/>
	<path class="st1" d="M325,584.5H-54v-135c0,0,36.8-22,74.8-15c55.7,10.3,105.1,85.7,187.5,86.9C287,522.5,325,458.5,325,458.5
		V584.5z"/>
</g>
<g id="圖層_3">
</g>
<g id="圖層_4">
</g>
</svg>
